<svg width="28" height="28" viewBox="0 0 28 28" fill="none" xmlns="http://www.w3.org/2000/svg">
<path d="M23.9305 5.12948V10.2576C23.9305 10.4843 23.8404 10.7017 23.6801 10.862C23.5199 11.0222 23.3025 11.1123 23.0758 11.1123H17.9477C17.7785 11.1124 17.6131 11.0624 17.4725 10.9685C17.3318 10.8746 17.2221 10.741 17.1574 10.5848C17.0926 10.4285 17.0757 10.2566 17.1088 10.0907C17.1418 9.9248 17.2233 9.77244 17.343 9.65291L19.2991 7.69354C17.7255 6.18581 15.6324 5.34084 13.4531 5.33354H13.405C11.1719 5.32916 9.02678 6.20422 7.43393 7.76939C7.27071 7.92177 7.05434 8.00421 6.8311 7.99909C6.60787 7.99397 6.39551 7.90169 6.23944 7.742C6.08338 7.5823 5.996 7.36787 5.99602 7.14458C5.99603 6.92129 6.08342 6.70687 6.23951 6.54719C8.14479 4.68566 10.6996 3.63841 13.3633 3.62705C16.027 3.61568 18.5906 4.64109 20.5117 6.4863L22.4732 4.52479C22.5929 4.40585 22.745 4.32499 22.9106 4.29237C23.0761 4.25976 23.2475 4.27686 23.4034 4.34152C23.5592 4.40617 23.6924 4.5155 23.7862 4.65572C23.88 4.79594 23.9302 4.96078 23.9305 5.12948ZM19.9145 19.5833C18.3314 21.1296 16.2102 22.0015 13.9972 22.0157C11.7843 22.0298 9.6521 21.1851 8.04931 19.6592L10.0055 17.703C10.1262 17.5836 10.2087 17.431 10.2424 17.2646C10.2761 17.0982 10.2594 16.9255 10.1945 16.7685C10.1297 16.6116 10.0195 16.4776 9.87814 16.3835C9.73677 16.2895 9.57058 16.2396 9.40078 16.2404H4.27266C4.04598 16.2404 3.82859 16.3305 3.6683 16.4907C3.50802 16.651 3.41797 16.8684 3.41797 17.0951V22.2232C3.41784 22.3924 3.46789 22.5577 3.5618 22.6984C3.6557 22.8391 3.78923 22.9487 3.94549 23.0135C4.10175 23.0782 4.2737 23.0952 4.43958 23.0621C4.60546 23.0291 4.75782 22.9476 4.87735 22.8279L6.83672 20.8664C8.73006 22.6937 11.2566 23.7181 13.8879 23.7253H13.9445C16.624 23.7322 19.1984 22.6832 21.11 20.8055C21.2661 20.6458 21.3535 20.4314 21.3535 20.2081C21.3535 19.9848 21.2661 19.7704 21.1101 19.6107C20.954 19.451 20.7416 19.3587 20.5184 19.3536C20.2952 19.3485 20.0788 19.4309 19.9156 19.5833H19.9145Z" fill="#0266F4"/>
</svg>
