<svg width="32" height="32" viewBox="0 0 32 32" fill="none" xmlns="http://www.w3.org/2000/svg">
<path fill-rule="evenodd" clip-rule="evenodd" d="M18.9876 3.33114C18.9876 3.2428 18.9525 3.15807 18.8901 3.09561C18.8276 3.03314 18.7429 2.99805 18.6545 2.99805H9.32804C8.3563 2.99805 7.42435 3.38407 6.73722 4.0712C6.05009 4.75833 5.66406 5.69028 5.66406 6.66203V25.315C5.66406 26.2868 6.05009 27.2187 6.73722 27.9058C7.42435 28.593 8.3563 28.979 9.32804 28.979H22.6516C23.6234 28.979 24.5553 28.593 25.2424 27.9058C25.9296 27.2187 26.3156 26.2868 26.3156 25.315V12.1873C26.3156 12.099 26.2805 12.0142 26.218 11.9518C26.1556 11.8893 26.0708 11.8542 25.9825 11.8542H19.9869C19.7219 11.8542 19.4677 11.7489 19.2803 11.5615C19.0929 11.3741 18.9876 11.12 18.9876 10.855V3.33114ZM19.9869 16.3216C20.2519 16.3216 20.5061 16.4269 20.6935 16.6143C20.8809 16.8017 20.9862 17.0559 20.9862 17.3209C20.9862 17.5859 20.8809 17.8401 20.6935 18.0275C20.5061 18.2149 20.2519 18.3202 19.9869 18.3202H11.9928C11.7277 18.3202 11.4736 18.2149 11.2862 18.0275C11.0988 17.8401 10.9935 17.5859 10.9935 17.3209C10.9935 17.0559 11.0988 16.8017 11.2862 16.6143C11.4736 16.4269 11.7277 16.3216 11.9928 16.3216H19.9869ZM19.9869 21.651C20.2519 21.651 20.5061 21.7563 20.6935 21.9437C20.8809 22.1311 20.9862 22.3853 20.9862 22.6503C20.9862 22.9153 20.8809 23.1695 20.6935 23.3569C20.5061 23.5443 20.2519 23.6496 19.9869 23.6496H11.9928C11.7277 23.6496 11.4736 23.5443 11.2862 23.3569C11.0988 23.1695 10.9935 22.9153 10.9935 22.6503C10.9935 22.3853 11.0988 22.1311 11.2862 21.9437C11.4736 21.7563 11.7277 21.651 11.9928 21.651H19.9869Z" fill="#0266F4"/>
<path d="M20.9844 3.76179C20.9844 3.51664 21.2415 3.36075 21.432 3.51398C21.5937 3.64455 21.7372 3.79644 21.8624 3.96964L25.8768 9.56154C25.9674 9.68945 25.8688 9.85466 25.7116 9.85466H21.3175C21.2291 9.85466 21.1444 9.81957 21.0819 9.7571C21.0195 9.69464 20.9844 9.60991 20.9844 9.52157V3.76179Z" fill="#0266F4"/>
</svg>
