<svg width="30" height="26" viewBox="0 0 30 26" fill="none" xmlns="http://www.w3.org/2000/svg">
<path d="M28.6875 0H20.1875C19.0603 0 17.9793 0.447766 17.1823 1.2448C16.3853 2.04183 15.9375 3.12283 15.9375 4.25V15.9016C15.9412 16.1758 15.8409 16.4413 15.6569 16.6446C15.4728 16.8478 15.2186 16.9739 14.9454 16.9973C14.8001 17.007 14.6543 16.9867 14.5171 16.9376C14.38 16.8885 14.2544 16.8118 14.1482 16.7122C14.0419 16.6125 13.9573 16.4921 13.8996 16.3584C13.8418 16.2247 13.8122 16.0805 13.8125 15.9348V4.25C13.8125 3.12283 13.3647 2.04183 12.5677 1.2448C11.7707 0.447766 10.6897 0 9.5625 0H1.0625C0.780707 0 0.510456 0.111942 0.311199 0.311199C0.111942 0.510457 0 0.780708 0 1.0625V20.1875C0 20.4693 0.111942 20.7395 0.311199 20.9388C0.510456 21.1381 0.780707 21.25 1.0625 21.25H10.625C11.469 21.25 12.2785 21.5847 12.8761 22.1808C13.4736 22.7768 13.8104 23.5855 13.8125 24.4295C13.8083 24.6465 13.8714 24.8594 13.9931 25.039C14.1149 25.2185 14.2894 25.356 14.4925 25.4323C14.6537 25.4945 14.8277 25.5164 14.9994 25.4962C15.171 25.476 15.3351 25.4142 15.4775 25.3162C15.6198 25.2182 15.7361 25.0869 15.8163 24.9338C15.8965 24.7807 15.9381 24.6103 15.9375 24.4375C15.9375 23.5921 16.2733 22.7814 16.8711 22.1836C17.4689 21.5858 18.2796 21.25 19.125 21.25H28.6875C28.9693 21.25 29.2395 21.1381 29.4388 20.9388C29.6381 20.7395 29.75 20.4693 29.75 20.1875V1.0625C29.75 0.780708 29.6381 0.510457 29.4388 0.311199C29.2395 0.111942 28.9693 0 28.6875 0ZM25.5 15.9375H20.2234C19.9492 15.9412 19.6837 15.8409 19.4805 15.6569C19.2772 15.4728 19.1511 15.2186 19.1277 14.9454C19.118 14.8001 19.1383 14.6543 19.1874 14.5171C19.2365 14.38 19.3132 14.2544 19.4128 14.1482C19.5125 14.0419 19.6329 13.9573 19.7666 13.8996C19.9003 13.8418 20.0445 13.8122 20.1902 13.8125H25.4668C25.741 13.8088 26.0064 13.9091 26.2097 14.0931C26.413 14.2772 26.539 14.5314 26.5625 14.8046C26.5721 14.9499 26.5518 15.0957 26.5028 15.2329C26.4537 15.37 26.377 15.4956 26.2773 15.6018C26.1777 15.7081 26.0573 15.7927 25.9235 15.8504C25.7898 15.9082 25.6457 15.9378 25.5 15.9375ZM25.5 11.6875H20.2234C19.9492 11.6912 19.6837 11.5909 19.4805 11.4069C19.2772 11.2228 19.1511 10.9686 19.1277 10.6954C19.118 10.5501 19.1383 10.4043 19.1874 10.2671C19.2365 10.13 19.3132 10.0044 19.4128 9.89816C19.5125 9.79192 19.6329 9.7073 19.7666 9.64956C19.9003 9.59181 20.0445 9.56218 20.1902 9.5625H25.4668C25.741 9.55881 26.0064 9.65907 26.2097 9.84313C26.413 10.0272 26.539 10.2814 26.5625 10.5546C26.5721 10.6999 26.5518 10.8457 26.5028 10.9829C26.4537 11.12 26.377 11.2456 26.2773 11.3518C26.1777 11.4581 26.0573 11.5427 25.9235 11.6004C25.7898 11.6582 25.6457 11.6878 25.5 11.6875ZM25.5 7.4375H20.2234C19.9487 7.44187 19.6826 7.34191 19.4788 7.15778C19.2749 6.97366 19.1485 6.71907 19.125 6.44539C19.1154 6.30006 19.1357 6.15429 19.1847 6.01714C19.2338 5.88 19.3105 5.7544 19.4102 5.64816C19.5098 5.54192 19.6302 5.4573 19.764 5.39955C19.8977 5.34181 20.0418 5.31218 20.1875 5.3125H25.4641C25.7388 5.30813 26.0049 5.40809 26.2087 5.59222C26.4126 5.77634 26.539 6.03093 26.5625 6.30461C26.5721 6.44995 26.5518 6.59571 26.5028 6.73286C26.4537 6.87001 26.377 6.9956 26.2773 7.10184C26.1777 7.20808 26.0573 7.2927 25.9235 7.35045C25.7898 7.40819 25.6457 7.43782 25.5 7.4375Z" fill="#0266F4"/>
</svg>
