<svg width="34" height="34" viewBox="0 0 34 34" fill="none" xmlns="http://www.w3.org/2000/svg">
<path d="M28.1548 10.0938V9.5625C28.1534 8.41135 27.812 7.28624 27.1736 6.32838C26.5351 5.37052 25.6279 4.62257 24.5659 4.17838C23.5039 3.7342 22.3344 3.61358 21.204 3.83164C20.0737 4.04971 19.033 4.59676 18.2125 5.40414C18.1639 5.45306 18.1255 5.51111 18.0996 5.57494C18.0736 5.63876 18.0605 5.7071 18.061 5.77602V17.5591C18.0613 17.6549 18.0875 17.7489 18.1367 17.831C18.186 17.9131 18.2565 17.9804 18.3409 18.0257C18.4253 18.0711 18.5204 18.0927 18.6161 18.0884C18.7117 18.0842 18.8045 18.0541 18.8845 18.0014C19.8948 17.3536 21.0684 17.0063 22.2685 17C22.5464 16.9948 22.8156 17.0963 23.0209 17.2836C23.2262 17.4708 23.3519 17.7296 23.3722 18.0067C23.3798 18.1509 23.3579 18.2951 23.3079 18.4305C23.2579 18.5659 23.1809 18.6897 23.0815 18.7943C22.982 18.899 22.8623 18.9823 22.7296 19.0391C22.5969 19.096 22.4541 19.1252 22.3097 19.125C21.1826 19.125 20.1015 19.5728 19.3045 20.3698C18.5075 21.1668 18.0597 22.2478 18.0597 23.375V27.8747C18.0596 27.9542 18.0773 28.0326 18.1116 28.1044C18.1458 28.1761 18.1957 28.2392 18.2576 28.2891C19.0116 28.913 19.8993 29.3547 20.8517 29.5798C21.8042 29.8049 22.7957 29.8072 23.7492 29.5868C24.7027 29.3663 25.5925 28.9289 26.3495 28.3085C27.1064 27.6882 27.7101 26.9016 28.1136 26.01C28.1542 25.9203 28.1692 25.8211 28.1567 25.7235C28.1442 25.6259 28.1049 25.5336 28.043 25.457C27.9812 25.3804 27.8993 25.3225 27.8064 25.2898C27.7136 25.257 27.6135 25.2507 27.5173 25.2716C26.8551 25.4233 26.1779 25.5 25.4985 25.5H24.4719C24.1978 25.5034 23.9325 25.403 23.7293 25.219C23.5261 25.035 23.4 24.781 23.3762 24.5079C23.3666 24.3626 23.3869 24.2168 23.4359 24.0796C23.485 23.9425 23.5617 23.8169 23.6614 23.7107C23.761 23.6044 23.8814 23.5198 24.0152 23.4621C24.1489 23.4043 24.2931 23.3747 24.4387 23.375H25.5012C26.6113 23.3767 27.7051 23.1087 28.6887 22.5941C29.8535 21.9874 30.8212 21.0612 31.4783 19.9241C32.1353 18.787 32.4546 17.4862 32.3985 16.1741C32.3425 14.8619 31.9135 13.593 31.1618 12.5161C30.4102 11.4392 29.3671 10.5989 28.1548 10.0938ZM26.561 14.875H26.0298C24.7617 14.875 23.5456 14.3713 22.6489 13.4746C21.7523 12.5779 21.2485 11.3618 21.2485 10.0938V9.5625C21.2485 9.28071 21.3605 9.01046 21.5597 8.8112C21.759 8.61194 22.0293 8.5 22.311 8.5C22.5928 8.5 22.8631 8.61194 23.0624 8.8112C23.2616 9.01046 23.3735 9.28071 23.3735 9.5625V10.0938C23.3735 10.4426 23.4423 10.788 23.5757 11.1103C23.7092 11.4325 23.9049 11.7253 24.1515 11.972C24.6497 12.4701 25.3253 12.75 26.0298 12.75H26.561C26.8428 12.75 27.1131 12.8619 27.3124 13.0612C27.5116 13.2605 27.6235 13.5307 27.6235 13.8125C27.6235 14.0943 27.5116 14.3645 27.3124 14.5638C27.1131 14.7631 26.8428 14.875 26.561 14.875ZM11.686 3.71875C10.1367 3.72051 8.65137 4.33675 7.55583 5.43229C6.4603 6.52782 5.84406 8.01318 5.8423 9.5625V10.0938C4.63016 10.5991 3.58724 11.4396 2.83585 12.5167C2.08446 13.5938 1.65574 14.8628 1.59998 16.1749C1.54422 17.487 1.86372 18.7878 2.52102 19.9247C3.17831 21.0617 4.14616 21.9877 5.31105 22.5941C6.29462 23.1087 7.38848 23.3767 8.49855 23.375H9.52519C9.79976 23.3709 10.0657 23.471 10.2695 23.6551C10.4732 23.8391 10.5997 24.0935 10.6235 24.3671C10.6332 24.5124 10.6129 24.6582 10.5638 24.7954C10.5147 24.9325 10.438 25.0581 10.3384 25.1643C10.2387 25.2706 10.1183 25.3552 9.98459 25.4129C9.85087 25.4707 9.7067 25.5003 9.56105 25.5H8.49855C7.81865 25.5003 7.14094 25.4232 6.47847 25.2702C6.38233 25.2493 6.28226 25.2554 6.1894 25.288C6.09655 25.3205 6.01457 25.3783 5.95259 25.4547C5.89062 25.5311 5.8511 25.6233 5.83842 25.7209C5.82575 25.8184 5.84042 25.9176 5.88081 26.0073C6.28421 26.8992 6.88785 27.686 7.6448 28.3066C8.40176 28.9272 9.29164 29.3649 10.2453 29.5857C11.1989 29.8064 12.1906 29.8043 13.1433 29.5794C14.0959 29.3545 14.9839 28.913 15.7382 28.2891C15.8 28.2392 15.8499 28.1761 15.8842 28.1044C15.9184 28.0326 15.9362 27.9542 15.936 27.8747V23.375C15.936 22.2478 15.4883 21.1668 14.6913 20.3698C13.8942 19.5728 12.8132 19.125 11.686 19.125C11.5417 19.1252 11.3988 19.096 11.2661 19.0391C11.1335 18.9823 11.0137 18.899 10.9143 18.7943C10.8149 18.6897 10.7378 18.5659 10.6878 18.4305C10.6378 18.2951 10.616 18.1509 10.6235 18.0067C10.6439 17.7294 10.7698 17.4704 10.9754 17.2831C11.181 17.0958 11.4505 16.9945 11.7285 17C12.9287 17.0063 14.1023 17.3536 15.1126 18.0014C15.1926 18.0541 15.2854 18.0842 15.381 18.0884C15.4767 18.0927 15.5718 18.0711 15.6562 18.0257C15.7406 17.9804 15.8111 17.9131 15.8604 17.831C15.9096 17.7489 15.9358 17.6549 15.936 17.5591V5.77602C15.9365 5.63657 15.8821 5.50252 15.7846 5.40281C14.6937 4.32335 13.2208 3.71813 11.686 3.71875ZM12.7485 10.0938C12.7485 11.3618 12.2448 12.5779 11.3482 13.4746C10.4515 14.3713 9.23537 14.875 7.9673 14.875H7.43605C7.15426 14.875 6.88401 14.7631 6.68475 14.5638C6.48549 14.3645 6.37355 14.0943 6.37355 13.8125C6.37355 13.5307 6.48549 13.2605 6.68475 13.0612C6.88401 12.8619 7.15426 12.75 7.43605 12.75H7.9673C8.31612 12.75 8.66153 12.6813 8.9838 12.5478C9.30607 12.4143 9.5989 12.2187 9.84555 11.972C10.0922 11.7253 10.2879 11.4325 10.4214 11.1103C10.5548 10.788 10.6235 10.4426 10.6235 10.0938V9.5625C10.6235 9.28071 10.7355 9.01046 10.9347 8.8112C11.134 8.61194 11.4043 8.5 11.686 8.5C11.9678 8.5 12.2381 8.61194 12.4373 8.8112C12.6366 9.01046 12.7485 9.28071 12.7485 9.5625V10.0938Z" fill="#407BFF"/>
</svg>
