<svg width="28" height="28" viewBox="0 0 28 28" fill="none" xmlns="http://www.w3.org/2000/svg">
<path d="M16.2414 11.966C16.2414 12.1927 16.1514 12.4101 15.9911 12.5704C15.8308 12.7307 15.6134 12.8207 15.3867 12.8207H11.968C11.7413 12.8207 11.5239 12.7307 11.3636 12.5704C11.2033 12.4101 11.1133 12.1927 11.1133 11.966C11.1133 11.7393 11.2033 11.5219 11.3636 11.3617C11.5239 11.2014 11.7413 11.1113 11.968 11.1113H15.3867C15.6134 11.1113 15.8308 11.2014 15.9911 11.3617C16.1514 11.5219 16.2414 11.7393 16.2414 11.966ZM24.7883 7.69258V21.3676C24.7883 21.8209 24.6082 22.2557 24.2876 22.5763C23.967 22.8969 23.5323 23.077 23.0789 23.077H4.27578C3.82243 23.077 3.38764 22.8969 3.06707 22.5763C2.7465 22.2557 2.56641 21.8209 2.56641 21.3676V7.69258C2.56641 7.23922 2.7465 6.80444 3.06707 6.48387C3.38764 6.1633 3.82243 5.9832 4.27578 5.9832H8.54922V5.12852C8.54922 4.44848 8.81936 3.7963 9.30021 3.31545C9.78107 2.83459 10.4332 2.56445 11.1133 2.56445H16.2414C16.9214 2.56445 17.5736 2.83459 18.0545 3.31545C18.5353 3.7963 18.8055 4.44848 18.8055 5.12852V5.9832H23.0789C23.5323 5.9832 23.967 6.1633 24.2876 6.48387C24.6082 6.80444 24.7883 7.23922 24.7883 7.69258ZM10.2586 5.9832H17.0961V5.12852C17.0961 4.90184 17.006 4.68445 16.8458 4.52416C16.6855 4.36388 16.4681 4.27383 16.2414 4.27383H11.1133C10.8866 4.27383 10.6692 4.36388 10.5089 4.52416C10.3486 4.68445 10.2586 4.90184 10.2586 5.12852V5.9832ZM23.0789 12.138V7.69258H4.27578V12.138C7.16059 13.7083 10.3929 14.5307 13.6773 14.5301C16.9618 14.5307 20.1941 13.7083 23.0789 12.138Z" fill="#0266F4"/>
</svg>
