<svg width="61" height="71" viewBox="0 0 61 71" fill="none" xmlns="http://www.w3.org/2000/svg">
<g filter="url(#filter0_dddd_4679_3944)">
<rect x="8.75781" y="4.37891" width="43.0599" height="42.3301" rx="21.165" fill="url(#paint0_radial_4679_3944)"/>
<rect x="9.12273" y="4.74382" width="42.3301" height="41.6003" rx="20.8001" stroke="url(#paint1_linear_4679_3944)" stroke-width="0.729829"/>
<path d="M38.5391 18.7949H34.7891V18.0449C34.7891 17.4482 34.552 16.8759 34.1301 16.4539C33.7081 16.032 33.1358 15.7949 32.5391 15.7949H28.0391C27.4423 15.7949 26.87 16.032 26.4481 16.4539C26.0261 16.8759 25.7891 17.4482 25.7891 18.0449V18.7949H22.0391C21.6412 18.7949 21.2597 18.953 20.9784 19.2343C20.6971 19.5156 20.5391 19.8971 20.5391 20.2949V32.2949C20.5391 32.6927 20.6971 33.0743 20.9784 33.3556C21.2597 33.6369 21.6412 33.7949 22.0391 33.7949H38.5391C38.9369 33.7949 39.3184 33.6369 39.5997 33.3556C39.881 33.0743 40.0391 32.6927 40.0391 32.2949V20.2949C40.0391 19.8971 39.881 19.5156 39.5997 19.2343C39.3184 18.953 38.9369 18.7949 38.5391 18.7949ZM27.2891 18.0449C27.2891 17.846 27.3681 17.6552 27.5087 17.5146C27.6494 17.3739 27.8402 17.2949 28.0391 17.2949H32.5391C32.738 17.2949 32.9287 17.3739 33.0694 17.5146C33.21 17.6552 33.2891 17.846 33.2891 18.0449V18.7949H27.2891V18.0449ZM38.5391 20.2949V27.0449H22.0391V20.2949H38.5391Z" fill="white"/>
</g>
<defs>
<filter id="filter0_dddd_4679_3944" x="-0.000133634" y="-6.63996e-05" width="60.5745" height="70.7934" filterUnits="userSpaceOnUse" color-interpolation-filters="sRGB">
<feFlood flood-opacity="0" result="BackgroundImageFix"/>
<feColorMatrix in="SourceAlpha" type="matrix" values="0 0 0 0 0 0 0 0 0 0 0 0 0 0 0 0 0 0 127 0" result="hardAlpha"/>
<feOffset dy="0.729829"/>
<feGaussianBlur stdDeviation="1.09474"/>
<feColorMatrix type="matrix" values="0 0 0 0 0 0 0 0 0 0.443137 0 0 0 0 0.94902 0 0 0 0.1 0"/>
<feBlend mode="normal" in2="BackgroundImageFix" result="effect1_dropShadow_4679_3944"/>
<feColorMatrix in="SourceAlpha" type="matrix" values="0 0 0 0 0 0 0 0 0 0 0 0 0 0 0 0 0 0 127 0" result="hardAlpha"/>
<feMorphology radius="1.45966" operator="dilate" in="SourceAlpha" result="effect2_dropShadow_4679_3944"/>
<feOffset dy="4.37897"/>
<feGaussianBlur stdDeviation="3.64914"/>
<feColorMatrix type="matrix" values="0 0 0 0 0 0 0 0 0 0.443137 0 0 0 0 0.94902 0 0 0 0.09 0"/>
<feBlend mode="normal" in2="effect1_dropShadow_4679_3944" result="effect2_dropShadow_4679_3944"/>
<feColorMatrix in="SourceAlpha" type="matrix" values="0 0 0 0 0 0 0 0 0 0 0 0 0 0 0 0 0 0 127 0" result="hardAlpha"/>
<feOffset dx="-0.729829" dy="9.48778"/>
<feGaussianBlur stdDeviation="2.91932"/>
<feColorMatrix type="matrix" values="0 0 0 0 0 0 0 0 0 0.443137 0 0 0 0 0.94902 0 0 0 0.05 0"/>
<feBlend mode="normal" in2="effect2_dropShadow_4679_3944" result="effect3_dropShadow_4679_3944"/>
<feColorMatrix in="SourceAlpha" type="matrix" values="0 0 0 0 0 0 0 0 0 0 0 0 0 0 0 0 0 0 127 0" result="hardAlpha"/>
<feOffset dx="-1.45966" dy="17.5159"/>
<feGaussianBlur stdDeviation="3.28423"/>
<feColorMatrix type="matrix" values="0 0 0 0 0 0 0 0 0 0.443137 0 0 0 0 0.94902 0 0 0 0.01 0"/>
<feBlend mode="normal" in2="effect3_dropShadow_4679_3944" result="effect4_dropShadow_4679_3944"/>
<feBlend mode="normal" in="SourceGraphic" in2="effect4_dropShadow_4679_3944" result="shape"/>
</filter>
<radialGradient id="paint0_radial_4679_3944" cx="0" cy="0" r="1" gradientUnits="userSpaceOnUse" gradientTransform="translate(30.2878 6.22717) scale(28.4158 28.9057)">
<stop stop-color="#74B5FF"/>
<stop offset="1" stop-color="#0071F2"/>
</radialGradient>
<linearGradient id="paint1_linear_4679_3944" x1="30.2878" y1="4.37891" x2="30.2878" y2="46.709" gradientUnits="userSpaceOnUse">
<stop stop-color="#0071F2"/>
<stop offset="1" stop-color="#7CB9FF"/>
</linearGradient>
</defs>
</svg>
