<svg width="59" height="59" viewBox="0 0 59 59" fill="none" xmlns="http://www.w3.org/2000/svg">
<path fill-rule="evenodd" clip-rule="evenodd" d="M12.7585 7.44531C11.4711 7.44531 10.2364 7.95673 9.32605 8.86706C8.41572 9.7774 7.9043 11.0121 7.9043 12.2995V46.2786C7.9043 47.5661 8.41572 48.8007 9.32605 49.7111C10.2364 50.6214 11.4711 51.1328 12.7585 51.1328H46.7376C48.025 51.1328 49.2597 50.6214 50.17 49.7111C51.0804 48.8007 51.5918 47.5661 51.5918 46.2786V12.2995C51.5918 11.0121 51.0804 9.7774 50.17 8.86706C49.2597 7.95673 48.025 7.44531 46.7376 7.44531H12.7585ZM41.7621 23.9398C42.2175 23.4847 42.4735 22.8673 42.4737 22.2235C42.474 21.5796 42.2184 20.9621 41.7633 20.5067C41.3082 20.0512 40.6908 19.7953 40.047 19.795C39.4032 19.7948 38.7856 20.0503 38.3302 20.5054L26.3162 32.5195L21.1683 27.3717C20.943 27.1462 20.6754 26.9673 20.3809 26.8452C20.0864 26.7231 19.7708 26.6602 19.452 26.66C18.8082 26.6598 18.1906 26.9154 17.7352 27.3705C17.2798 27.8256 17.0238 28.4429 17.0236 29.0868C17.0233 29.7306 17.2789 30.3481 17.734 30.8036L24.4279 37.4975C24.6758 37.7455 24.9702 37.9423 25.2942 38.0765C25.6182 38.2108 25.9654 38.2799 26.3162 38.2799C26.6669 38.2799 27.0141 38.2108 27.3381 38.0765C27.6621 37.9423 27.9565 37.7455 28.2044 37.4975L41.7621 23.9398Z" fill="#0266F4"/>
</svg>
