<svg width="77" height="89" viewBox="0 0 77 89" fill="none" xmlns="http://www.w3.org/2000/svg">
<g filter="url(#filter0_dddd_4679_3626)">
<rect x="10.9961" y="5.49805" width="54.0611" height="53.1448" rx="3.66516" fill="url(#paint0_radial_4679_3626)"/>
<rect x="11.4542" y="5.95619" width="53.1448" height="52.2285" rx="3.20701" stroke="url(#paint1_linear_4679_3626)" stroke-width="0.916289"/>
<path d="M49.7148 20.3828H26.3398C25.7763 20.3828 25.2358 20.6067 24.8372 21.0052C24.4387 21.4037 24.2148 21.9442 24.2148 22.5078V41.6328C24.2148 42.1964 24.4387 42.7369 24.8372 43.1354C25.2358 43.5339 25.7763 43.7578 26.3398 43.7578H49.7148C50.2784 43.7578 50.8189 43.5339 51.2174 43.1354C51.616 42.7369 51.8398 42.1964 51.8398 41.6328V22.5078C51.8398 21.9442 51.616 21.4037 51.2174 21.0052C50.8189 20.6067 50.2784 20.3828 49.7148 20.3828ZM33.3523 34.4078C33.5778 34.5769 33.7268 34.8286 33.7667 35.1076C33.8065 35.3865 33.7339 35.6699 33.5648 35.8953C33.3958 36.1207 33.1441 36.2698 32.8651 36.3096C32.5861 36.3495 32.3028 36.2769 32.0773 36.1078L27.8273 32.9203C27.6954 32.8213 27.5883 32.693 27.5145 32.5455C27.4407 32.3979 27.4023 32.2353 27.4023 32.0703C27.4023 31.9054 27.4407 31.7427 27.5145 31.5951C27.5883 31.4476 27.6954 31.3193 27.8273 31.2203L32.0773 28.0328C32.3028 27.8637 32.5861 27.7911 32.8651 27.831C33.1441 27.8708 33.3958 28.0199 33.5648 28.2453C33.7339 28.4707 33.8065 28.7541 33.7667 29.0331C33.7268 29.312 33.5778 29.5637 33.3523 29.7328L30.2352 32.0703L33.3523 34.4078ZM41.1737 24.925L36.9237 39.8C36.8875 39.9365 36.8244 40.0645 36.7381 40.1763C36.6519 40.2882 36.5442 40.3817 36.4213 40.4515C36.2985 40.5212 36.163 40.5658 36.0227 40.5826C35.8825 40.5993 35.7403 40.5879 35.6045 40.5491C35.4686 40.5102 35.3419 40.4447 35.2318 40.3563C35.1216 40.2679 35.0301 40.1584 34.9628 40.0342C34.8954 39.9101 34.8535 39.7737 34.8395 39.6332C34.8254 39.4926 34.8395 39.3507 34.881 39.2156L39.131 24.3406C39.2127 24.0746 39.3955 23.8513 39.64 23.7186C39.8846 23.586 40.1714 23.5545 40.4389 23.631C40.7064 23.7076 40.9333 23.886 41.0706 24.1279C41.208 24.3699 41.245 24.6561 41.1737 24.925ZM48.2273 32.9203L43.9773 36.1078C43.7519 36.2769 43.4685 36.3495 43.1896 36.3096C42.9106 36.2698 42.6589 36.1207 42.4898 35.8953C42.3208 35.6699 42.2482 35.3865 42.288 35.1076C42.3279 34.8286 42.4769 34.5769 42.7023 34.4078L45.8195 32.0703L42.7023 29.7328C42.5907 29.6491 42.4967 29.5442 42.4256 29.4241C42.3545 29.3041 42.3078 29.1712 42.288 29.0331C42.2683 28.8949 42.276 28.7543 42.3106 28.6191C42.3452 28.484 42.4061 28.3569 42.4898 28.2453C42.5736 28.1337 42.6784 28.0396 42.7985 27.9686C42.9186 27.8975 43.0515 27.8507 43.1896 27.831C43.3277 27.8113 43.4684 27.8189 43.6035 27.8536C43.7387 27.8882 43.8657 27.9491 43.9773 28.0328L48.2273 31.2203C48.3593 31.3193 48.4664 31.4476 48.5402 31.5951C48.6139 31.7427 48.6523 31.9054 48.6523 32.0703C48.6523 32.2353 48.6139 32.3979 48.5402 32.5455C48.4664 32.693 48.3593 32.8213 48.2273 32.9203Z" fill="white"/>
</g>
<defs>
<filter id="filter0_dddd_4679_3626" x="0.000627398" y="0.000314116" width="76.0534" height="88.8798" filterUnits="userSpaceOnUse" color-interpolation-filters="sRGB">
<feFlood flood-opacity="0" result="BackgroundImageFix"/>
<feColorMatrix in="SourceAlpha" type="matrix" values="0 0 0 0 0 0 0 0 0 0 0 0 0 0 0 0 0 0 127 0" result="hardAlpha"/>
<feOffset dy="0.916289"/>
<feGaussianBlur stdDeviation="1.37443"/>
<feColorMatrix type="matrix" values="0 0 0 0 0 0 0 0 0 0.443137 0 0 0 0 0.94902 0 0 0 0.1 0"/>
<feBlend mode="normal" in2="BackgroundImageFix" result="effect1_dropShadow_4679_3626"/>
<feColorMatrix in="SourceAlpha" type="matrix" values="0 0 0 0 0 0 0 0 0 0 0 0 0 0 0 0 0 0 127 0" result="hardAlpha"/>
<feMorphology radius="1.83258" operator="dilate" in="SourceAlpha" result="effect2_dropShadow_4679_3626"/>
<feOffset dy="5.49773"/>
<feGaussianBlur stdDeviation="4.58144"/>
<feColorMatrix type="matrix" values="0 0 0 0 0 0 0 0 0 0.443137 0 0 0 0 0.94902 0 0 0 0.09 0"/>
<feBlend mode="normal" in2="effect1_dropShadow_4679_3626" result="effect2_dropShadow_4679_3626"/>
<feColorMatrix in="SourceAlpha" type="matrix" values="0 0 0 0 0 0 0 0 0 0 0 0 0 0 0 0 0 0 127 0" result="hardAlpha"/>
<feOffset dx="-0.916289" dy="11.9118"/>
<feGaussianBlur stdDeviation="3.66516"/>
<feColorMatrix type="matrix" values="0 0 0 0 0 0 0 0 0 0.443137 0 0 0 0 0.94902 0 0 0 0.05 0"/>
<feBlend mode="normal" in2="effect2_dropShadow_4679_3626" result="effect3_dropShadow_4679_3626"/>
<feColorMatrix in="SourceAlpha" type="matrix" values="0 0 0 0 0 0 0 0 0 0 0 0 0 0 0 0 0 0 127 0" result="hardAlpha"/>
<feOffset dx="-1.83258" dy="21.9909"/>
<feGaussianBlur stdDeviation="4.1233"/>
<feColorMatrix type="matrix" values="0 0 0 0 0 0 0 0 0 0.443137 0 0 0 0 0.94902 0 0 0 0.01 0"/>
<feBlend mode="normal" in2="effect3_dropShadow_4679_3626" result="effect4_dropShadow_4679_3626"/>
<feBlend mode="normal" in="SourceGraphic" in2="effect4_dropShadow_4679_3626" result="shape"/>
</filter>
<radialGradient id="paint0_radial_4679_3626" cx="0" cy="0" r="1" gradientUnits="userSpaceOnUse" gradientTransform="translate(38.0266 7.81851) scale(35.6756 36.2907)">
<stop stop-color="#74B5FF"/>
<stop offset="1" stop-color="#0071F2"/>
</radialGradient>
<linearGradient id="paint1_linear_4679_3626" x1="38.0266" y1="5.49805" x2="38.0266" y2="58.6428" gradientUnits="userSpaceOnUse">
<stop stop-color="#0071F2"/>
<stop offset="1" stop-color="#7CB9FF"/>
</linearGradient>
</defs>
</svg>
