<svg width="21" height="20" viewBox="0 0 21 20" fill="none" xmlns="http://www.w3.org/2000/svg">
<path d="M17.2627 2.91895C15.3718 1.04648 12.8174 -0.00272273 10.1562 5.3066e-06H10.0518C7.3763 0.0275331 4.81978 1.1097 2.93766 3.01139C1.05553 4.91309 -0.000141599 7.48066 1.42456e-08 10.1563C1.42456e-08 14.3555 2.5957 17.877 6.77344 19.3525C7.24464 19.5187 7.7488 19.5694 8.24366 19.5005C8.73851 19.4315 9.20962 19.2449 9.61748 18.9564C10.0253 18.6678 10.3581 18.2856 10.5877 17.8419C10.8174 17.3982 10.9374 16.9059 10.9375 16.4063C10.9375 15.9919 11.1021 15.5944 11.3951 15.3014C11.6882 15.0084 12.0856 14.8438 12.5 14.8438H17.0127C17.7216 14.8472 18.4103 14.6081 18.9645 14.1661C19.5187 13.7241 19.9051 13.1059 20.0596 12.4141C20.2342 11.6452 20.3191 10.8587 20.3125 10.0703C20.3026 8.73581 20.0279 7.41654 19.5043 6.18897C18.9808 4.96139 18.2189 3.84992 17.2627 2.91895ZM5.85937 14.0625C5.6276 14.0625 5.40103 13.9938 5.20832 13.865C5.0156 13.7362 4.8654 13.5532 4.7767 13.3391C4.68801 13.125 4.6648 12.8893 4.71002 12.662C4.75523 12.4347 4.86684 12.2259 5.03073 12.062C5.19462 11.8981 5.40343 11.7865 5.63075 11.7413C5.85807 11.6961 6.0937 11.7193 6.30783 11.808C6.52196 11.8967 6.70499 12.0469 6.83375 12.2396C6.96252 12.4323 7.03125 12.6589 7.03125 12.8906C7.03125 13.2014 6.90778 13.4995 6.68802 13.7193C6.46825 13.939 6.17018 14.0625 5.85937 14.0625ZM5.85937 8.59376C5.6276 8.59376 5.40103 8.52503 5.20832 8.39626C5.0156 8.26749 4.8654 8.08447 4.7767 7.87034C4.68801 7.65621 4.6648 7.42058 4.71002 7.19326C4.75523 6.96594 4.86684 6.75713 5.03073 6.59324C5.19462 6.42935 5.40343 6.31774 5.63075 6.27252C5.85807 6.22731 6.0937 6.25051 6.30783 6.33921C6.52196 6.42791 6.70499 6.57811 6.83375 6.77082C6.96252 6.96354 7.03125 7.19011 7.03125 7.42188C7.03125 7.73268 6.90778 8.03075 6.68802 8.25052C6.46825 8.47029 6.17018 8.59376 5.85937 8.59376ZM10.1562 6.25001C9.92447 6.25001 9.6979 6.18128 9.50519 6.05251C9.31248 5.92374 9.16227 5.74072 9.07358 5.52659C8.98488 5.31246 8.96167 5.07683 9.00689 4.84951C9.05211 4.62219 9.16372 4.41338 9.32761 4.24949C9.4915 4.0856 9.70031 3.97399 9.92763 3.92877C10.1549 3.88356 10.3906 3.90676 10.6047 3.99546C10.8188 4.08416 11.0019 4.23436 11.1306 4.42707C11.2594 4.61979 11.3281 4.84636 11.3281 5.07813C11.3281 5.38893 11.2047 5.687 10.9849 5.90677C10.7651 6.12654 10.467 6.25001 10.1562 6.25001ZM14.4531 8.59376C14.2213 8.59376 13.9948 8.52503 13.8021 8.39626C13.6094 8.26749 13.4591 8.08447 13.3705 7.87034C13.2818 7.65621 13.2585 7.42058 13.3038 7.19326C13.349 6.96594 13.4606 6.75713 13.6245 6.59324C13.7884 6.42935 13.9972 6.31774 14.2245 6.27252C14.4518 6.22731 14.6874 6.25051 14.9016 6.33921C15.1157 6.42791 15.2987 6.57811 15.4275 6.77082C15.5563 6.96354 15.625 7.19011 15.625 7.42188C15.625 7.73268 15.5015 8.03075 15.2818 8.25052C15.062 8.47029 14.7639 8.59376 14.4531 8.59376Z" fill="#0266F4"/>
</svg>
