<svg width="29" height="23" viewBox="0 0 29 23" fill="none" xmlns="http://www.w3.org/2000/svg">
<g clip-path="url(#clip0_4652_3649)">
<path d="M6.44897 0C7.39918 0 8.31047 0.377469 8.98237 1.04937C9.65427 1.72127 10.0317 2.63256 10.0317 3.58276C10.0317 4.53297 9.65427 5.44426 8.98237 6.11616C8.31047 6.78806 7.39918 7.16553 6.44897 7.16553C5.49877 7.16553 4.58748 6.78806 3.91558 6.11616C3.24368 5.44426 2.86621 4.53297 2.86621 3.58276C2.86621 2.63256 3.24368 1.72127 3.91558 1.04937C4.58748 0.377469 5.49877 0 6.44897 0ZM22.9297 0C23.8799 0 24.7912 0.377469 25.4631 1.04937C26.135 1.72127 26.5125 2.63256 26.5125 3.58276C26.5125 4.53297 26.135 5.44426 25.4631 6.11616C24.7912 6.78806 23.8799 7.16553 22.9297 7.16553C21.9795 7.16553 21.0682 6.78806 20.3963 6.11616C19.7244 5.44426 19.3469 4.53297 19.3469 3.58276C19.3469 2.63256 19.7244 1.72127 20.3963 1.04937C21.0682 0.377469 21.9795 0 22.9297 0ZM0 13.3771C0 10.7393 2.1407 8.59863 4.77851 8.59863H6.69081C7.40288 8.59863 8.07913 8.75538 8.6882 9.03304C8.62998 9.35549 8.60311 9.69138 8.60311 10.0317C8.60311 11.7425 9.35549 13.2786 10.5423 14.3311H0.953911C0.429932 14.3311 0 13.9011 0 13.3771ZM18.1512 14.3311H18.1198C19.3111 13.2786 20.059 11.7425 20.059 10.0317C20.059 9.69138 20.0276 9.35997 19.9739 9.03304C20.583 8.7509 21.2592 8.59863 21.9713 8.59863H23.8836C26.5214 8.59863 28.6621 10.7393 28.6621 13.3771C28.6621 13.9056 28.2322 14.3311 27.7082 14.3311H18.1557H18.1512ZM10.0317 10.0317C10.0317 8.89149 10.4847 7.79794 11.291 6.99166C12.0973 6.18538 13.1908 5.73242 14.3311 5.73242C15.4713 5.73242 16.5649 6.18538 17.3711 6.99166C18.1774 7.79794 18.6304 8.89149 18.6304 10.0317C18.6304 11.172 18.1774 12.2655 17.3711 13.0718C16.5649 13.8781 15.4713 14.3311 14.3311 14.3311C13.1908 14.3311 12.0973 13.8781 11.291 13.0718C10.4847 12.2655 10.0317 11.172 10.0317 10.0317ZM5.73242 21.7339C5.73242 18.4378 8.40606 15.7642 11.7022 15.7642H16.9554C20.2561 15.7642 22.9297 18.4378 22.9297 21.7339C22.9297 22.3923 22.3968 22.9297 21.7339 22.9297H6.92369C6.26536 22.9297 5.72794 22.3968 5.72794 21.7339H5.73242Z" fill="#0266F4"/>
</g>
<defs>
<clipPath id="clip0_4652_3649">
<rect width="28.6621" height="22.9297" fill="white"/>
</clipPath>
</defs>
</svg>
