<svg width="61" height="71" viewBox="0 0 61 71" fill="none" xmlns="http://www.w3.org/2000/svg">
<g filter="url(#filter0_dddd_4557_10734)">
<rect x="8.75781" y="4.37891" width="43.0599" height="42.3301" rx="21.165" fill="url(#paint0_radial_4557_10734)"/>
<rect x="9.12273" y="4.74382" width="42.3301" height="41.6003" rx="20.8001" stroke="url(#paint1_linear_4557_10734)" stroke-width="0.729829"/>
<g clip-path="url(#clip0_4557_10734)">
<path d="M34.7888 32.9735C35.3062 32.7697 35.8076 32.5275 36.2888 32.2489V36.0448C36.2888 36.2437 36.2098 36.4345 36.0692 36.5751C35.9285 36.7158 35.7377 36.7948 35.5388 36.7948C35.3399 36.7948 35.1491 36.7158 35.0085 36.5751C34.8678 36.4345 34.7888 36.2437 34.7888 36.0448V32.9735ZM35.8913 24.6832L30.6413 21.8829C30.4662 21.7935 30.2629 21.7764 30.0752 21.8354C29.8876 21.8944 29.7307 22.0247 29.6382 22.1983C29.5457 22.3719 29.5252 22.5749 29.5809 22.7635C29.6367 22.9521 29.7643 23.1113 29.9363 23.2067L34.3201 25.5448L35.9138 24.6954L35.8913 24.6832ZM41.8913 21.8829L30.6413 15.8829C30.5328 15.8251 30.4118 15.7949 30.2888 15.7949C30.1659 15.7949 30.0448 15.8251 29.9363 15.8829L18.6863 21.8829C18.5663 21.9469 18.466 22.0422 18.396 22.1588C18.326 22.2754 18.2891 22.4088 18.2891 22.5448C18.2891 22.6808 18.326 22.8142 18.396 22.9308C18.466 23.0474 18.5663 23.1427 18.6863 23.2067L21.2888 24.5951V29.1345C21.288 29.5029 21.4236 29.8585 21.6695 30.1329C22.8976 31.5007 25.6491 33.7948 30.2888 33.7948C31.8272 33.8075 33.3541 33.5289 34.7888 32.9735V25.7951L34.3201 25.5448L30.2888 27.6945L22.3979 23.4823L20.6326 22.5448L30.2888 17.3951L39.9451 22.5448L38.1845 23.4823H38.1788L35.9138 24.6954C36.0279 24.7613 36.1226 24.856 36.1884 24.97C36.2542 25.0841 36.2889 25.2134 36.2888 25.3451V32.2489C37.2668 31.6843 38.1506 30.9704 38.9082 30.1329C39.154 29.8585 39.2896 29.5029 39.2888 29.1345V24.5951L41.8913 23.2067C42.0113 23.1427 42.1117 23.0474 42.1817 22.9308C42.2516 22.8142 42.2886 22.6808 42.2886 22.5448C42.2886 22.4088 42.2516 22.2754 42.1817 22.1588C42.1117 22.0422 42.0113 21.9469 41.8913 21.8829Z" fill="white"/>
</g>
</g>
<defs>
<filter id="filter0_dddd_4557_10734" x="-0.000133634" y="-6.63996e-05" width="60.5745" height="70.7934" filterUnits="userSpaceOnUse" color-interpolation-filters="sRGB">
<feFlood flood-opacity="0" result="BackgroundImageFix"/>
<feColorMatrix in="SourceAlpha" type="matrix" values="0 0 0 0 0 0 0 0 0 0 0 0 0 0 0 0 0 0 127 0" result="hardAlpha"/>
<feOffset dy="0.729829"/>
<feGaussianBlur stdDeviation="1.09474"/>
<feColorMatrix type="matrix" values="0 0 0 0 0 0 0 0 0 0.443137 0 0 0 0 0.94902 0 0 0 0.1 0"/>
<feBlend mode="normal" in2="BackgroundImageFix" result="effect1_dropShadow_4557_10734"/>
<feColorMatrix in="SourceAlpha" type="matrix" values="0 0 0 0 0 0 0 0 0 0 0 0 0 0 0 0 0 0 127 0" result="hardAlpha"/>
<feMorphology radius="1.45966" operator="dilate" in="SourceAlpha" result="effect2_dropShadow_4557_10734"/>
<feOffset dy="4.37897"/>
<feGaussianBlur stdDeviation="3.64914"/>
<feColorMatrix type="matrix" values="0 0 0 0 0 0 0 0 0 0.443137 0 0 0 0 0.94902 0 0 0 0.09 0"/>
<feBlend mode="normal" in2="effect1_dropShadow_4557_10734" result="effect2_dropShadow_4557_10734"/>
<feColorMatrix in="SourceAlpha" type="matrix" values="0 0 0 0 0 0 0 0 0 0 0 0 0 0 0 0 0 0 127 0" result="hardAlpha"/>
<feOffset dx="-0.729829" dy="9.48778"/>
<feGaussianBlur stdDeviation="2.91932"/>
<feColorMatrix type="matrix" values="0 0 0 0 0 0 0 0 0 0.443137 0 0 0 0 0.94902 0 0 0 0.05 0"/>
<feBlend mode="normal" in2="effect2_dropShadow_4557_10734" result="effect3_dropShadow_4557_10734"/>
<feColorMatrix in="SourceAlpha" type="matrix" values="0 0 0 0 0 0 0 0 0 0 0 0 0 0 0 0 0 0 127 0" result="hardAlpha"/>
<feOffset dx="-1.45966" dy="17.5159"/>
<feGaussianBlur stdDeviation="3.28423"/>
<feColorMatrix type="matrix" values="0 0 0 0 0 0 0 0 0 0.443137 0 0 0 0 0.94902 0 0 0 0.01 0"/>
<feBlend mode="normal" in2="effect3_dropShadow_4557_10734" result="effect4_dropShadow_4557_10734"/>
<feBlend mode="normal" in="SourceGraphic" in2="effect4_dropShadow_4557_10734" result="shape"/>
</filter>
<radialGradient id="paint0_radial_4557_10734" cx="0" cy="0" r="1" gradientUnits="userSpaceOnUse" gradientTransform="translate(30.2878 6.22717) scale(28.4158 28.9057)">
<stop stop-color="#74B5FF"/>
<stop offset="1" stop-color="#0071F2"/>
</radialGradient>
<linearGradient id="paint1_linear_4557_10734" x1="30.2878" y1="4.37891" x2="30.2878" y2="46.709" gradientUnits="userSpaceOnUse">
<stop stop-color="#0071F2"/>
<stop offset="1" stop-color="#7CB9FF"/>
</linearGradient>
<clipPath id="clip0_4557_10734">
<rect width="24" height="24" fill="white" transform="translate(18.2891 13.5449)"/>
</clipPath>
</defs>
</svg>
