<svg width="77" height="89" viewBox="0 0 77 89" fill="none" xmlns="http://www.w3.org/2000/svg">
<g filter="url(#filter0_dddd_4557_10074)">
<rect x="10.9961" y="5.49805" width="54.0611" height="53.1448" rx="3.66516" fill="url(#paint0_radial_4557_10074)"/>
<rect x="11.4542" y="5.95619" width="53.1448" height="52.2285" rx="3.20701" stroke="url(#paint1_linear_4557_10074)" stroke-width="0.916289"/>
<path d="M42.2773 22.5078V35.2578C42.2773 35.5396 42.1654 35.8099 41.9661 36.0091C41.7669 36.2084 41.4966 36.3203 41.2148 36.3203H35.9023C35.6206 36.3203 35.3503 36.2084 35.151 36.0091C34.9518 35.8099 34.8398 35.5396 34.8398 35.2578V22.5078C34.8398 22.226 34.9518 21.9558 35.151 21.7565C35.3503 21.5573 35.6206 21.4453 35.9023 21.4453H41.2148C41.4966 21.4453 41.7669 21.5573 41.9661 21.7565C42.1654 21.9558 42.2773 22.226 42.2773 22.5078ZM50.7773 21.4453H45.4648C45.1831 21.4453 44.9128 21.5573 44.7135 21.7565C44.5143 21.9558 44.4023 22.226 44.4023 22.5078V29.4141C44.4023 29.555 44.4583 29.6901 44.5579 29.7897C44.6576 29.8893 44.7927 29.9453 44.9336 29.9453H51.3086C51.4495 29.9453 51.5846 29.8893 51.6842 29.7897C51.7839 29.6901 51.8398 29.555 51.8398 29.4141V22.5078C51.8398 22.226 51.7279 21.9558 51.5286 21.7565C51.3294 21.5573 51.0591 21.4453 50.7773 21.4453ZM51.3086 32.0703H44.9336C44.7927 32.0703 44.6576 32.1263 44.5579 32.2259C44.4583 32.3255 44.4023 32.4607 44.4023 32.6016V38.4453C44.4023 39.0089 44.6262 39.5494 45.0247 39.9479C45.4233 40.3464 45.9638 40.5703 46.5273 40.5703H49.7148C50.2784 40.5703 50.8189 40.3464 51.2174 39.9479C51.616 39.5494 51.8398 39.0089 51.8398 38.4453V32.6016C51.8398 32.4607 51.7839 32.3255 51.6842 32.2259C51.5846 32.1263 51.4495 32.0703 51.3086 32.0703ZM31.6523 21.4453H26.3398C26.0581 21.4453 25.7878 21.5573 25.5885 21.7565C25.3893 21.9558 25.2773 22.226 25.2773 22.5078V29.4141C25.2773 29.555 25.3333 29.6901 25.4329 29.7897C25.5326 29.8893 25.6677 29.9453 25.8086 29.9453H32.1836C32.3245 29.9453 32.4596 29.8893 32.5592 29.7897C32.6589 29.6901 32.7148 29.555 32.7148 29.4141V22.5078C32.7148 22.226 32.6029 21.9558 32.4036 21.7565C32.2044 21.5573 31.9341 21.4453 31.6523 21.4453ZM32.1836 32.0703H25.8086C25.6677 32.0703 25.5326 32.1263 25.4329 32.2259C25.3333 32.3255 25.2773 32.4607 25.2773 32.6016V42.6953C25.2773 43.2589 25.5012 43.7994 25.8997 44.1979C26.2983 44.5964 26.8388 44.8203 27.4023 44.8203H30.5898C31.1534 44.8203 31.6939 44.5964 32.0924 44.1979C32.491 43.7994 32.7148 43.2589 32.7148 42.6953V32.6016C32.7148 32.4607 32.6589 32.3255 32.5592 32.2259C32.4596 32.1263 32.3245 32.0703 32.1836 32.0703Z" fill="white"/>
</g>
<defs>
<filter id="filter0_dddd_4557_10074" x="0.000627398" y="0.000314116" width="76.0534" height="88.8798" filterUnits="userSpaceOnUse" color-interpolation-filters="sRGB">
<feFlood flood-opacity="0" result="BackgroundImageFix"/>
<feColorMatrix in="SourceAlpha" type="matrix" values="0 0 0 0 0 0 0 0 0 0 0 0 0 0 0 0 0 0 127 0" result="hardAlpha"/>
<feOffset dy="0.916289"/>
<feGaussianBlur stdDeviation="1.37443"/>
<feColorMatrix type="matrix" values="0 0 0 0 0 0 0 0 0 0.443137 0 0 0 0 0.94902 0 0 0 0.1 0"/>
<feBlend mode="normal" in2="BackgroundImageFix" result="effect1_dropShadow_4557_10074"/>
<feColorMatrix in="SourceAlpha" type="matrix" values="0 0 0 0 0 0 0 0 0 0 0 0 0 0 0 0 0 0 127 0" result="hardAlpha"/>
<feMorphology radius="1.83258" operator="dilate" in="SourceAlpha" result="effect2_dropShadow_4557_10074"/>
<feOffset dy="5.49773"/>
<feGaussianBlur stdDeviation="4.58144"/>
<feColorMatrix type="matrix" values="0 0 0 0 0 0 0 0 0 0.443137 0 0 0 0 0.94902 0 0 0 0.09 0"/>
<feBlend mode="normal" in2="effect1_dropShadow_4557_10074" result="effect2_dropShadow_4557_10074"/>
<feColorMatrix in="SourceAlpha" type="matrix" values="0 0 0 0 0 0 0 0 0 0 0 0 0 0 0 0 0 0 127 0" result="hardAlpha"/>
<feOffset dx="-0.916289" dy="11.9118"/>
<feGaussianBlur stdDeviation="3.66516"/>
<feColorMatrix type="matrix" values="0 0 0 0 0 0 0 0 0 0.443137 0 0 0 0 0.94902 0 0 0 0.05 0"/>
<feBlend mode="normal" in2="effect2_dropShadow_4557_10074" result="effect3_dropShadow_4557_10074"/>
<feColorMatrix in="SourceAlpha" type="matrix" values="0 0 0 0 0 0 0 0 0 0 0 0 0 0 0 0 0 0 127 0" result="hardAlpha"/>
<feOffset dx="-1.83258" dy="21.9909"/>
<feGaussianBlur stdDeviation="4.1233"/>
<feColorMatrix type="matrix" values="0 0 0 0 0 0 0 0 0 0.443137 0 0 0 0 0.94902 0 0 0 0.01 0"/>
<feBlend mode="normal" in2="effect3_dropShadow_4557_10074" result="effect4_dropShadow_4557_10074"/>
<feBlend mode="normal" in="SourceGraphic" in2="effect4_dropShadow_4557_10074" result="shape"/>
</filter>
<radialGradient id="paint0_radial_4557_10074" cx="0" cy="0" r="1" gradientUnits="userSpaceOnUse" gradientTransform="translate(38.0266 7.81851) scale(35.6756 36.2907)">
<stop stop-color="#74B5FF"/>
<stop offset="1" stop-color="#0071F2"/>
</radialGradient>
<linearGradient id="paint1_linear_4557_10074" x1="38.0266" y1="5.49805" x2="38.0266" y2="58.6428" gradientUnits="userSpaceOnUse">
<stop stop-color="#0071F2"/>
<stop offset="1" stop-color="#7CB9FF"/>
</linearGradient>
</defs>
</svg>
