<svg width="59" height="99" viewBox="0 0 59 99" fill="none" xmlns="http://www.w3.org/2000/svg">
<g opacity="0.5">
<path d="M48.8118 14.1624C50.2629 17.3954 50.7575 21.1594 50.2968 25.4594C49.8339 29.7594 48.9811 33.6444 47.7312 37.1154C44.1733 46.3324 43.026 52.3424 44.2862 55.1494C44.6679 56.0014 45.7608 56.5234 47.5639 56.7164C49.367 56.9114 51.1167 56.6974 52.812 56.0744C53.4011 59.4714 53.5519 61.8904 53.2625 63.3294C46.978 66.0084 41.226 66.9164 36.0035 66.0514C30.7801 65.1884 27.1 62.3764 24.9624 57.6134C23.6653 54.7234 23.7063 50.0704 25.0897 43.6524C26.473 37.2384 27.8841 30.8884 29.3249 24.5984C30.7636 18.3124 30.817 13.6804 29.4798 10.7024C28.1437 7.72638 25.8337 6.63438 22.5508 7.42538C22.8771 14.1784 21.502 20.8434 18.4274 27.4214C16.0661 27.7204 12.5954 27.1714 8.01947 25.7784C3.44149 24.3864 0.889284 23.0954 0.353596 21.9034C-0.638762 19.6934 0.457244 16.4644 3.64674 12.2174C6.83419 7.97138 11.2634 4.63838 16.9384 2.21938C22.6113 -0.198622 28.5213 -0.640618 34.6684 0.892382C40.8145 2.42538 45.5289 6.84838 48.8118 14.1624ZM42.1137 98.2494C39.622 97.3354 37.7491 95.4744 36.4889 92.6674C35.2287 89.8604 35.3211 86.8854 36.767 83.7354C38.213 80.5874 40.5066 78.3414 43.6479 77.0034C46.7902 75.6634 49.6143 75.4734 52.1245 76.4294C54.6325 77.3884 56.5085 79.2474 57.7492 82.0104C58.9899 84.7754 58.8442 87.7504 57.311 90.9354C55.7778 94.1204 53.4842 96.3664 50.4302 97.6684C47.3741 98.9694 44.6033 99.1624 42.1137 98.2494Z" fill="#FB263D"/>
</g>
</svg>
