<svg width="28" height="28" viewBox="0 0 28 28" fill="none" xmlns="http://www.w3.org/2000/svg">
<path d="M18.8033 24.7863C18.8033 25.013 18.7132 25.2304 18.5529 25.3907C18.3926 25.551 18.1753 25.641 17.9486 25.641H9.4017C9.17502 25.641 8.95763 25.551 8.79735 25.3907C8.63706 25.2304 8.54701 25.013 8.54701 24.7863C8.54701 24.5596 8.63706 24.3423 8.79735 24.182C8.95763 24.0217 9.17502 23.9316 9.4017 23.9316H17.9486C18.1753 23.9316 18.3926 24.0217 18.5529 24.182C18.7132 24.3423 18.8033 24.5596 18.8033 24.7863ZM23.0767 11.1113C23.0804 12.5361 22.7585 13.943 22.1357 15.2244C21.5128 16.5059 20.6054 17.6281 19.4827 18.5054C19.2728 18.6663 19.1025 18.8731 18.9847 19.1099C18.8669 19.3468 18.8049 19.6074 18.8033 19.8719V20.5129C18.8033 20.9662 18.6232 21.401 18.3026 21.7216C17.982 22.0422 17.5472 22.2223 17.0939 22.2223H10.2564C9.80304 22.2223 9.36825 22.0422 9.04768 21.7216C8.72711 21.401 8.54701 20.9662 8.54701 20.5129V19.8719C8.54684 19.6105 8.48675 19.3527 8.37137 19.1183C8.25598 18.8838 8.08838 18.6789 7.88143 18.5193C6.76157 17.6472 5.8548 16.5317 5.22974 15.2573C4.60467 13.9829 4.2777 12.5831 4.27358 11.1637C4.2458 6.07187 8.36112 1.83155 13.4486 1.70976C14.7022 1.67955 15.9491 1.90041 17.1161 2.35934C18.283 2.81827 19.3463 3.506 20.2435 4.38204C21.1406 5.25808 21.8534 6.30474 22.34 7.46041C22.8266 8.61607 23.0771 9.8574 23.0767 11.1113ZM17.6986 11.3613C17.6192 11.2819 17.5249 11.2188 17.4212 11.1758C17.3174 11.1328 17.2062 11.1107 17.0939 11.1107C16.9816 11.1107 16.8704 11.1328 16.7666 11.1758C16.6628 11.2188 16.5686 11.2819 16.4892 11.3613L13.6751 14.1764L10.8611 11.3613C10.7007 11.2009 10.4832 11.1108 10.2564 11.1108C10.0296 11.1108 9.81207 11.2009 9.6517 11.3613C9.49132 11.5217 9.40123 11.7392 9.40123 11.966C9.40123 12.1928 9.49132 12.4103 9.6517 12.5707L12.8205 15.7384V19.6582C12.8205 19.8849 12.9105 20.1023 13.0708 20.2626C13.2311 20.4228 13.4485 20.5129 13.6751 20.5129C13.9018 20.5129 14.1192 20.4228 14.2795 20.2626C14.4398 20.1023 14.5298 19.8849 14.5298 19.6582V15.7384L17.6986 12.5707C17.778 12.4913 17.8411 12.3971 17.8841 12.2933C17.9271 12.1895 17.9492 12.0783 17.9492 11.966C17.9492 11.8537 17.9271 11.7425 17.8841 11.6387C17.8411 11.535 17.778 11.4407 17.6986 11.3613Z" fill="#0266F4"/>
</svg>
