<svg width="34" height="34" viewBox="0 0 34 34" fill="none" xmlns="http://www.w3.org/2000/svg">
<path d="M27.625 10.625H23.375V7.4375C23.375 5.74675 22.7034 4.12524 21.5078 2.92969C20.3123 1.73415 18.6908 1.0625 17 1.0625C15.3092 1.0625 13.6877 1.73415 12.4922 2.92969C11.2966 4.12524 10.625 5.74675 10.625 7.4375V10.625H6.375C5.81141 10.625 5.27091 10.8489 4.8724 11.2474C4.47388 11.6459 4.25 12.1864 4.25 12.75V27.625C4.25 28.1886 4.47388 28.7291 4.8724 29.1276C5.27091 29.5261 5.81141 29.75 6.375 29.75H27.625C28.1886 29.75 28.7291 29.5261 29.1276 29.1276C29.5261 28.7291 29.75 28.1886 29.75 27.625V12.75C29.75 12.1864 29.5261 11.6459 29.1276 11.2474C28.7291 10.8489 28.1886 10.625 27.625 10.625ZM18.0625 21.068V24.4375C18.0625 24.7193 17.9506 24.9895 17.7513 25.1888C17.552 25.3881 17.2818 25.5 17 25.5C16.7182 25.5 16.448 25.3881 16.2487 25.1888C16.0494 24.9895 15.9375 24.7193 15.9375 24.4375V21.068C15.2286 20.8174 14.6311 20.3242 14.2506 19.6757C13.8702 19.0271 13.7313 18.2649 13.8584 17.5238C13.9856 16.7827 14.3706 16.1105 14.9455 15.6258C15.5204 15.1412 16.2481 14.8753 17 14.8753C17.7519 14.8753 18.4796 15.1412 19.0545 15.6258C19.6294 16.1105 20.0144 16.7827 20.1416 17.5238C20.2687 18.2649 20.1298 19.0271 19.7494 19.6757C19.3689 20.3242 18.7714 20.8174 18.0625 21.068ZM21.25 10.625H12.75V7.4375C12.75 6.31033 13.1978 5.22933 13.9948 4.4323C14.7918 3.63527 15.8728 3.1875 17 3.1875C18.1272 3.1875 19.2082 3.63527 20.0052 4.4323C20.8022 5.22933 21.25 6.31033 21.25 7.4375V10.625Z" fill="#407BFF"/>
</svg>
