<svg width="77" height="89" viewBox="0 0 77 89" fill="none" xmlns="http://www.w3.org/2000/svg">
<g filter="url(#filter0_dddd_5034_6075)">
<rect x="10.9961" y="5.49805" width="54.0611" height="53.1448" rx="26.5724" fill="url(#paint0_radial_5034_6075)"/>
<rect x="11.4542" y="5.95619" width="53.1448" height="52.2285" rx="26.1142" stroke="url(#paint1_linear_5034_6075)" stroke-width="0.916289"/>
<path d="M52.2428 27.3728L36.1928 43.4228C35.8178 43.7976 35.3093 44.0081 34.7791 44.0081C34.2489 44.0081 33.7404 43.7976 33.3653 43.4228L24.4128 34.4228C24.0384 34.0478 23.8281 33.5396 23.8281 33.0097C23.8281 32.4798 24.0384 31.9715 24.4128 31.5965L26.9128 29.0965C27.2877 28.7233 27.7951 28.5137 28.3241 28.5137C28.8531 28.5137 29.3605 28.7233 29.7353 29.0965L34.8291 34.0365L46.9241 22.0903C47.299 21.7166 47.8067 21.5068 48.3359 21.5068C48.8652 21.5068 49.3729 21.7166 49.7478 22.0903L52.2416 24.5328C52.4291 24.7186 52.578 24.9398 52.6796 25.1834C52.7813 25.4271 52.8337 25.6885 52.8338 25.9525C52.8339 26.2166 52.7817 26.478 52.6803 26.7217C52.5789 26.9655 52.4302 27.1868 52.2428 27.3728Z" fill="white"/>
</g>
<defs>
<filter id="filter0_dddd_5034_6075" x="0.000627398" y="0.000314116" width="76.0534" height="88.8798" filterUnits="userSpaceOnUse" color-interpolation-filters="sRGB">
<feFlood flood-opacity="0" result="BackgroundImageFix"/>
<feColorMatrix in="SourceAlpha" type="matrix" values="0 0 0 0 0 0 0 0 0 0 0 0 0 0 0 0 0 0 127 0" result="hardAlpha"/>
<feOffset dy="0.916289"/>
<feGaussianBlur stdDeviation="1.37443"/>
<feColorMatrix type="matrix" values="0 0 0 0 0 0 0 0 0 0.443137 0 0 0 0 0.94902 0 0 0 0.1 0"/>
<feBlend mode="normal" in2="BackgroundImageFix" result="effect1_dropShadow_5034_6075"/>
<feColorMatrix in="SourceAlpha" type="matrix" values="0 0 0 0 0 0 0 0 0 0 0 0 0 0 0 0 0 0 127 0" result="hardAlpha"/>
<feMorphology radius="1.83258" operator="dilate" in="SourceAlpha" result="effect2_dropShadow_5034_6075"/>
<feOffset dy="5.49773"/>
<feGaussianBlur stdDeviation="4.58144"/>
<feColorMatrix type="matrix" values="0 0 0 0 0 0 0 0 0 0.443137 0 0 0 0 0.94902 0 0 0 0.09 0"/>
<feBlend mode="normal" in2="effect1_dropShadow_5034_6075" result="effect2_dropShadow_5034_6075"/>
<feColorMatrix in="SourceAlpha" type="matrix" values="0 0 0 0 0 0 0 0 0 0 0 0 0 0 0 0 0 0 127 0" result="hardAlpha"/>
<feOffset dx="-0.916289" dy="11.9118"/>
<feGaussianBlur stdDeviation="3.66516"/>
<feColorMatrix type="matrix" values="0 0 0 0 0 0 0 0 0 0.443137 0 0 0 0 0.94902 0 0 0 0.05 0"/>
<feBlend mode="normal" in2="effect2_dropShadow_5034_6075" result="effect3_dropShadow_5034_6075"/>
<feColorMatrix in="SourceAlpha" type="matrix" values="0 0 0 0 0 0 0 0 0 0 0 0 0 0 0 0 0 0 127 0" result="hardAlpha"/>
<feOffset dx="-1.83258" dy="21.9909"/>
<feGaussianBlur stdDeviation="4.1233"/>
<feColorMatrix type="matrix" values="0 0 0 0 0 0 0 0 0 0.443137 0 0 0 0 0.94902 0 0 0 0.01 0"/>
<feBlend mode="normal" in2="effect3_dropShadow_5034_6075" result="effect4_dropShadow_5034_6075"/>
<feBlend mode="normal" in="SourceGraphic" in2="effect4_dropShadow_5034_6075" result="shape"/>
</filter>
<radialGradient id="paint0_radial_5034_6075" cx="0" cy="0" r="1" gradientUnits="userSpaceOnUse" gradientTransform="translate(38.0266 7.81851) scale(35.6756 36.2907)">
<stop stop-color="#74B5FF"/>
<stop offset="1" stop-color="#0071F2"/>
</radialGradient>
<linearGradient id="paint1_linear_5034_6075" x1="38.0266" y1="5.49805" x2="38.0266" y2="58.6428" gradientUnits="userSpaceOnUse">
<stop stop-color="#0071F2"/>
<stop offset="1" stop-color="#7CB9FF"/>
</linearGradient>
</defs>
</svg>
