<svg width="34" height="34" viewBox="0 0 34 34" fill="none" xmlns="http://www.w3.org/2000/svg">
<g clip-path="url(#clip0_4652_3661)">
<path d="M33.1616 23.9893L26.106 31.0449L21.167 26.106L23.2837 23.9893L26.106 26.8115L31.0449 21.8726L33.1616 23.9893ZM8.4668 2.82227C6.90044 2.82227 5.64453 4.07817 5.64453 5.64453V28.2227C5.64453 29.789 6.90044 31.0449 8.4668 31.0449H19.4877C18.7398 29.7608 18.3447 28.2932 18.3447 26.8115C18.3447 22.1407 22.1407 18.3447 26.8115 18.3447C27.2913 18.3447 27.757 18.3871 28.2227 18.4576V11.2891L19.7559 2.82227M18.3447 4.93896L26.106 12.7002H18.3447V4.93896Z" fill="#0266F4"/>
</g>
<defs>
<clipPath id="clip0_4652_3661">
<rect width="33.8672" height="33.8672" fill="white"/>
</clipPath>
</defs>
</svg>
