<svg width="30" height="27" viewBox="0 0 30 27" fill="none" xmlns="http://www.w3.org/2000/svg">
<path d="M29.75 12.75C29.75 13.0318 29.6381 13.302 29.4388 13.5013C29.2395 13.7006 28.9693 13.8125 28.6875 13.8125H24.4375V18.0625H25.5C26.0636 18.0625 26.6041 18.2864 27.0026 18.6849C27.4011 19.0834 27.625 19.6239 27.625 20.1875V24.4375C27.625 25.0011 27.4011 25.5416 27.0026 25.9401C26.6041 26.3386 26.0636 26.5625 25.5 26.5625H21.25C20.6864 26.5625 20.1459 26.3386 19.7474 25.9401C19.3489 25.5416 19.125 25.0011 19.125 24.4375V20.1875C19.125 19.6239 19.3489 19.0834 19.7474 18.6849C20.1459 18.2864 20.6864 18.0625 21.25 18.0625H22.3125V13.8125H7.4375V18.0625H8.5C9.06359 18.0625 9.60409 18.2864 10.0026 18.6849C10.4011 19.0834 10.625 19.6239 10.625 20.1875V24.4375C10.625 25.0011 10.4011 25.5416 10.0026 25.9401C9.60409 26.3386 9.06359 26.5625 8.5 26.5625H4.25C3.68641 26.5625 3.14591 26.3386 2.7474 25.9401C2.34888 25.5416 2.125 25.0011 2.125 24.4375V20.1875C2.125 19.6239 2.34888 19.0834 2.7474 18.6849C3.14591 18.2864 3.68641 18.0625 4.25 18.0625H5.3125V13.8125H1.0625C0.780707 13.8125 0.510456 13.7006 0.311199 13.5013C0.111942 13.302 0 13.0318 0 12.75C0 12.4682 0.111942 12.198 0.311199 11.9987C0.510456 11.7994 0.780707 11.6875 1.0625 11.6875H13.8125V8.5H12.75C12.1864 8.5 11.6459 8.27612 11.2474 7.8776C10.8489 7.47909 10.625 6.93859 10.625 6.375V2.125C10.625 1.56141 10.8489 1.02091 11.2474 0.622398C11.6459 0.223883 12.1864 0 12.75 0H17C17.5636 0 18.1041 0.223883 18.5026 0.622398C18.9011 1.02091 19.125 1.56141 19.125 2.125V6.375C19.125 6.93859 18.9011 7.47909 18.5026 7.8776C18.1041 8.27612 17.5636 8.5 17 8.5H15.9375V11.6875H28.6875C28.9693 11.6875 29.2395 11.7994 29.4388 11.9987C29.6381 12.198 29.75 12.4682 29.75 12.75Z" fill="#0266F4"/>
</svg>
