<svg width="77" height="89" viewBox="0 0 77 89" fill="none" xmlns="http://www.w3.org/2000/svg">
<g filter="url(#filter0_dddd_4555_9879)">
<rect x="10.9961" y="5.49805" width="54.0611" height="53.1448" rx="3.66516" fill="url(#paint0_radial_4555_9879)"/>
<rect x="11.4542" y="5.95619" width="53.1448" height="52.2285" rx="3.20701" stroke="url(#paint1_linear_4555_9879)" stroke-width="0.916289"/>
<path d="M40.1548 24.6328C40.1548 23.7922 40.4041 22.9705 40.8711 22.2716C41.338 21.5727 42.0018 21.028 42.7784 20.7063C43.555 20.3847 44.4095 20.3005 45.2339 20.4645C46.0584 20.6285 46.8156 21.0332 47.41 21.6276C48.0044 22.222 48.4091 22.9793 48.5731 23.8037C48.7371 24.6281 48.653 25.4826 48.3313 26.2592C48.0096 27.0358 47.4649 27.6996 46.766 28.1666C46.0671 28.6336 45.2454 28.8828 44.4048 28.8828C43.2776 28.8828 42.1966 28.435 41.3996 27.638C40.6026 26.841 40.1548 25.76 40.1548 24.6328ZM49.0386 39.5331C44.8112 43.038 41.9039 41.4602 38.5371 39.6313C35.003 37.7135 30.9987 35.5394 25.6636 39.962C25.555 40.0508 25.4651 40.1601 25.399 40.2838C25.3329 40.4074 25.2919 40.5429 25.2784 40.6825C25.2649 40.8221 25.2791 40.963 25.3203 41.097C25.3616 41.231 25.4289 41.3556 25.5185 41.4635C25.608 41.5714 25.7181 41.6605 25.8422 41.7256C25.9664 41.7908 26.1022 41.8307 26.2419 41.8431C26.3816 41.8555 26.5223 41.8402 26.656 41.7979C26.7898 41.7557 26.9138 41.6874 27.021 41.597C31.2484 38.092 34.1557 39.6712 37.5225 41.4987C39.5293 42.5877 41.6861 43.7565 44.1538 43.7565C46.0318 43.7565 48.0903 43.0778 50.396 41.1666C50.613 40.9867 50.7495 40.7278 50.7757 40.4471C50.8018 40.1664 50.7154 39.8868 50.5354 39.6698C50.3554 39.4529 50.0966 39.3163 49.8159 39.2901C49.5352 39.264 49.2556 39.3504 49.0386 39.5304V39.5331ZM25.6636 34.6509C25.555 34.7396 25.4651 34.8489 25.399 34.9726C25.3329 35.0963 25.2919 35.2318 25.2784 35.3713C25.2649 35.5109 25.2791 35.6518 25.3203 35.7858C25.3616 35.9199 25.4289 36.0444 25.5185 36.1523C25.608 36.2602 25.7181 36.3493 25.8422 36.4144C25.9664 36.4796 26.1022 36.5195 26.2419 36.5319C26.3816 36.5443 26.5223 36.529 26.656 36.4867C26.7898 36.4445 26.9138 36.3762 27.021 36.2858C31.2484 32.7822 34.1557 34.36 37.5225 36.1875C39.5293 37.2766 41.6861 38.4453 44.1538 38.4453C46.0318 38.4453 48.0903 37.7666 50.396 35.8555C50.5046 35.7667 50.5945 35.6574 50.6606 35.5337C50.7267 35.4101 50.7677 35.2746 50.7812 35.135C50.7947 34.9954 50.7805 34.8545 50.7393 34.7205C50.698 34.5865 50.6307 34.4619 50.5411 34.354C50.4516 34.2461 50.3415 34.1571 50.2174 34.0919C50.0932 34.0267 49.9574 33.9868 49.8177 33.9744C49.678 33.962 49.5373 33.9774 49.4035 34.0196C49.2698 34.0618 49.1458 34.1301 49.0386 34.2206C48.2705 34.8802 47.4072 35.4202 46.478 35.8223L39.3274 28.6743C38.0475 27.3887 36.5254 26.3695 34.8491 25.6758C33.1729 24.9821 31.3758 24.6276 29.5617 24.6328H26.3423C26.0605 24.6328 25.7903 24.7448 25.591 24.944C25.3917 25.1433 25.2798 25.4135 25.2798 25.6953C25.2798 25.9771 25.3917 26.2474 25.591 26.4466C25.7903 26.6459 26.0605 26.7578 26.3423 26.7578H29.5617C31.5037 26.7541 33.4158 27.2362 35.1239 28.1603L31.1886 32.0929C29.5059 32.2509 27.6797 32.9788 25.6636 34.6495V34.6509Z" fill="white"/>
</g>
<defs>
<filter id="filter0_dddd_4555_9879" x="0.000627398" y="0.000314116" width="76.0534" height="88.8798" filterUnits="userSpaceOnUse" color-interpolation-filters="sRGB">
<feFlood flood-opacity="0" result="BackgroundImageFix"/>
<feColorMatrix in="SourceAlpha" type="matrix" values="0 0 0 0 0 0 0 0 0 0 0 0 0 0 0 0 0 0 127 0" result="hardAlpha"/>
<feOffset dy="0.916289"/>
<feGaussianBlur stdDeviation="1.37443"/>
<feColorMatrix type="matrix" values="0 0 0 0 0 0 0 0 0 0.443137 0 0 0 0 0.94902 0 0 0 0.1 0"/>
<feBlend mode="normal" in2="BackgroundImageFix" result="effect1_dropShadow_4555_9879"/>
<feColorMatrix in="SourceAlpha" type="matrix" values="0 0 0 0 0 0 0 0 0 0 0 0 0 0 0 0 0 0 127 0" result="hardAlpha"/>
<feMorphology radius="1.83258" operator="dilate" in="SourceAlpha" result="effect2_dropShadow_4555_9879"/>
<feOffset dy="5.49773"/>
<feGaussianBlur stdDeviation="4.58144"/>
<feColorMatrix type="matrix" values="0 0 0 0 0 0 0 0 0 0.443137 0 0 0 0 0.94902 0 0 0 0.09 0"/>
<feBlend mode="normal" in2="effect1_dropShadow_4555_9879" result="effect2_dropShadow_4555_9879"/>
<feColorMatrix in="SourceAlpha" type="matrix" values="0 0 0 0 0 0 0 0 0 0 0 0 0 0 0 0 0 0 127 0" result="hardAlpha"/>
<feOffset dx="-0.916289" dy="11.9118"/>
<feGaussianBlur stdDeviation="3.66516"/>
<feColorMatrix type="matrix" values="0 0 0 0 0 0 0 0 0 0.443137 0 0 0 0 0.94902 0 0 0 0.05 0"/>
<feBlend mode="normal" in2="effect2_dropShadow_4555_9879" result="effect3_dropShadow_4555_9879"/>
<feColorMatrix in="SourceAlpha" type="matrix" values="0 0 0 0 0 0 0 0 0 0 0 0 0 0 0 0 0 0 127 0" result="hardAlpha"/>
<feOffset dx="-1.83258" dy="21.9909"/>
<feGaussianBlur stdDeviation="4.1233"/>
<feColorMatrix type="matrix" values="0 0 0 0 0 0 0 0 0 0.443137 0 0 0 0 0.94902 0 0 0 0.01 0"/>
<feBlend mode="normal" in2="effect3_dropShadow_4555_9879" result="effect4_dropShadow_4555_9879"/>
<feBlend mode="normal" in="SourceGraphic" in2="effect4_dropShadow_4555_9879" result="shape"/>
</filter>
<radialGradient id="paint0_radial_4555_9879" cx="0" cy="0" r="1" gradientUnits="userSpaceOnUse" gradientTransform="translate(38.0266 7.81851) scale(35.6756 36.2907)">
<stop stop-color="#74B5FF"/>
<stop offset="1" stop-color="#0071F2"/>
</radialGradient>
<linearGradient id="paint1_linear_4555_9879" x1="38.0266" y1="5.49805" x2="38.0266" y2="58.6428" gradientUnits="userSpaceOnUse">
<stop stop-color="#0071F2"/>
<stop offset="1" stop-color="#7CB9FF"/>
</linearGradient>
</defs>
</svg>
