<svg width="15" height="22" viewBox="0 0 15 22" fill="none" xmlns="http://www.w3.org/2000/svg">
<path d="M11.7188 0H2.34375C1.72215 0 1.12601 0.24693 0.686469 0.686469C0.24693 1.12601 0 1.72215 0 2.34375V19.5312C0 20.1529 0.24693 20.749 0.686469 21.1885C1.12601 21.6281 1.72215 21.875 2.34375 21.875H11.7188C12.3404 21.875 12.9365 21.6281 13.376 21.1885C13.8156 20.749 14.0625 20.1529 14.0625 19.5312V2.34375C14.0625 1.72215 13.8156 1.12601 13.376 0.686469C12.9365 0.24693 12.3404 0 11.7188 0ZM7.03125 5.46875C6.79948 5.46875 6.57291 5.40002 6.38019 5.27125C6.18748 5.14249 6.03727 4.95946 5.94858 4.74533C5.85988 4.5312 5.83668 4.29558 5.88189 4.06825C5.92711 3.84093 6.03872 3.63212 6.20261 3.46823C6.3665 3.30434 6.57531 3.19273 6.80263 3.14752C7.02995 3.1023 7.26557 3.12551 7.47971 3.2142C7.69384 3.3029 7.87686 3.4531 8.00563 3.64582C8.1344 3.83853 8.20312 4.0651 8.20312 4.29688C8.20312 4.60768 8.07966 4.90575 7.85989 5.12552C7.64012 5.34528 7.34205 5.46875 7.03125 5.46875Z" fill="#0266F4"/>
</svg>
