<svg width="22" height="21" viewBox="0 0 22 21" fill="none" xmlns="http://www.w3.org/2000/svg">
<path d="M15.4082 20.3125H19.5312C19.9457 20.3125 20.3431 20.1479 20.6361 19.8549C20.9291 19.5618 21.0937 19.1644 21.0937 18.75V15.0732C21.0931 14.9451 21.0609 14.8191 21.0001 14.7064C20.9393 14.5936 20.8516 14.4975 20.7449 14.4266C20.6382 14.3557 20.5157 14.3121 20.3882 14.2997C20.2607 14.2873 20.132 14.3065 20.0137 14.3555C19.7368 14.4698 19.4402 14.5286 19.1406 14.5283C17.8486 14.5283 16.7969 13.4443 16.7969 12.1133C16.7969 10.7822 17.8486 9.69824 19.1406 9.69824C19.4402 9.69801 19.7368 9.75674 20.0137 9.87109C20.1327 9.92035 20.262 9.93944 20.3901 9.92664C20.5183 9.91385 20.6413 9.86957 20.7482 9.79776C20.8551 9.72594 20.9426 9.62882 21.0028 9.51502C21.0631 9.40123 21.0944 9.27429 21.0937 9.14551V5.46875C21.0937 5.05435 20.9291 4.65692 20.6361 4.3639C20.3431 4.07087 19.9457 3.90625 19.5312 3.90625H15.9941C16.0087 3.77655 16.0159 3.64613 16.0156 3.51562C16.0156 2.58322 15.6452 1.68901 14.9859 1.0297C14.3266 0.370395 13.4324 0 12.5 0C11.5676 0 10.6734 0.370395 10.0141 1.0297C9.35477 1.68901 8.98437 2.58322 8.98437 3.51562C8.98415 3.64613 8.99132 3.77655 9.00586 3.90625H5.46875C5.05435 3.90625 4.65692 4.07087 4.3639 4.3639C4.07087 4.65692 3.90625 5.05435 3.90625 5.46875V8.61523C3.77655 8.6007 3.64613 8.59352 3.51562 8.59375C2.58322 8.59375 1.68901 8.96415 1.0297 9.62345C0.370395 10.2828 0 11.177 0 12.1094C0 13.0418 0.370395 13.936 1.0297 14.5953C1.68901 15.2546 2.58322 15.625 3.51562 15.625C3.64613 15.6252 3.77655 15.6181 3.90625 15.6035V18.75C3.90625 19.1644 4.07087 19.5618 4.3639 19.8549C4.65692 20.1479 5.05435 20.3125 5.46875 20.3125H9.5918" fill="#0266F4"/>
</svg>
