<svg width="59" height="99" viewBox="0 0 59 99" fill="none" xmlns="http://www.w3.org/2000/svg">
<g opacity="0.5">
<path d="M9.77022 14.1624C8.31914 17.3954 7.82449 21.1594 8.28527 25.4594C8.7481 29.7594 9.60089 33.6444 10.8508 37.1154C14.4087 46.3324 15.5561 52.3424 14.2959 55.1494C13.9141 56.0014 12.8212 56.5234 11.0181 56.7164C9.21503 56.9114 7.46531 56.6974 5.76999 56.0744C5.18094 59.4714 5.03009 61.8904 5.31948 63.3294C11.6041 66.0084 17.3561 66.9164 22.5785 66.0514C27.802 65.1884 31.482 62.3764 33.6196 57.6134C34.9168 54.7234 34.8757 50.0704 33.4924 43.6524C32.109 37.2384 30.698 30.8884 29.2572 24.5984C27.8184 18.3124 27.765 13.6804 29.1022 10.7024C30.4383 7.72638 32.7484 6.63438 36.0312 7.42538C35.7049 14.1784 37.0801 20.8434 40.1546 27.4214C42.516 27.7204 45.9866 27.1714 50.5626 25.7784C55.1405 24.3864 57.6927 23.0954 58.2284 21.9034C59.2208 19.6934 58.1248 16.4644 54.9353 12.2174C51.7478 7.97138 47.3187 4.63838 41.6437 2.21938C35.9707 -0.198622 30.0607 -0.640618 23.9136 0.892382C17.7676 2.42538 13.0531 6.84838 9.77022 14.1624ZM16.4684 98.2494C18.96 97.3354 20.8329 95.4744 22.0931 92.6674C23.3533 89.8604 23.2609 86.8854 21.815 83.7354C20.369 80.5874 18.0754 78.3414 14.9342 77.0034C11.7919 75.6634 8.96772 75.4734 6.45758 76.4294C3.94949 77.3884 2.07355 79.2474 0.832848 82.0104C-0.407856 84.7754 -0.262131 87.7504 1.27105 90.9354C2.80422 94.1204 5.09783 96.3664 8.15187 97.6684C11.208 98.9694 13.9787 99.1624 16.4684 98.2494Z" fill="#FB263D"/>
</g>
</svg>
