<svg width="28" height="28" viewBox="0 0 28 28" fill="none" xmlns="http://www.w3.org/2000/svg">
<path d="M10.8818 20.4192C10.4 21.4725 8.79229 23.9295 4.27458 23.9295C4.04792 23.9295 3.83055 23.8395 3.67028 23.6792C3.51001 23.5189 3.41997 23.3015 3.41997 23.0749C3.41997 18.5572 5.87698 16.9494 6.9303 16.4677C7.03242 16.4211 7.14273 16.3951 7.25491 16.3911C7.36708 16.3872 7.47894 16.4054 7.58409 16.4447C7.68924 16.4839 7.78562 16.5435 7.86774 16.6201C7.94985 16.6966 8.01608 16.7886 8.06266 16.8907C8.10923 16.9928 8.13524 17.1031 8.13919 17.2153C8.14313 17.3275 8.12495 17.4393 8.08566 17.5445C8.04638 17.6496 7.98677 17.746 7.91024 17.8281C7.83371 17.9102 7.74175 17.9765 7.63963 18.0231C6.95273 18.3361 5.43686 19.3434 5.16979 22.1797C8.00604 21.9126 9.01555 20.3967 9.32642 19.7098C9.373 19.6077 9.43923 19.5158 9.52134 19.4392C9.60346 19.3627 9.69984 19.3031 9.80499 19.2638C9.91014 19.2245 10.022 19.2063 10.1342 19.2103C10.2464 19.2142 10.3567 19.2402 10.4588 19.2868C10.5609 19.3334 10.6529 19.3996 10.7294 19.4817C10.8059 19.5639 10.8655 19.6602 10.9048 19.7654C10.9441 19.8705 10.9623 19.9824 10.9583 20.0946C10.9544 20.2067 10.9284 20.317 10.8818 20.4192ZM23.9147 5.03612C23.8894 4.61942 23.7124 4.22639 23.4172 3.93119C23.122 3.636 22.729 3.45904 22.3123 3.43372C20.9684 3.3536 17.5339 3.47645 14.6849 6.32552L9.40227 11.6124C9.32294 11.6919 9.22873 11.7549 9.12502 11.798C9.02131 11.841 8.91014 11.8633 8.79785 11.8634C8.57107 11.8636 8.35349 11.7737 8.19299 11.6134C8.03249 11.4532 7.9422 11.2358 7.942 11.009C7.9418 10.7822 8.0317 10.5647 8.19192 10.4042L11.0292 7.56578C11.0886 7.50603 11.129 7.43005 11.1454 7.3474C11.1617 7.26474 11.1533 7.1791 11.1211 7.10124C11.0889 7.02339 11.0344 6.95678 10.9644 6.9098C10.8945 6.86283 10.8122 6.83757 10.728 6.83722H7.94408C7.71893 6.83603 7.49579 6.87962 7.28764 6.96545C7.07949 7.05128 6.89048 7.17764 6.7316 7.33717L3.06744 11.0035C2.84273 11.228 2.68504 11.5108 2.61209 11.82C2.53913 12.1292 2.55379 12.4526 2.65442 12.7539C2.75504 13.0552 2.93766 13.3225 3.18176 13.5258C3.42587 13.7292 3.7218 13.8604 4.03636 13.9049L8.14598 14.4785L12.8688 19.2014L13.4425 23.3131C13.4866 23.6277 13.6178 23.9236 13.8213 24.1676C14.0248 24.4115 14.2925 24.5936 14.5941 24.6933C14.7697 24.752 14.9537 24.7819 15.1389 24.782C15.3631 24.7824 15.5852 24.7384 15.7924 24.6526C15.9996 24.5668 16.1877 24.4409 16.346 24.282L20.0123 20.6179C20.1714 20.4586 20.2974 20.2696 20.3832 20.0615C20.469 19.8534 20.5129 19.6305 20.5123 19.4054V16.6215C20.5121 16.537 20.4869 16.4545 20.4399 16.3843C20.3929 16.3141 20.3261 16.2595 20.248 16.2273C20.1699 16.195 20.0841 16.1866 20.0012 16.2032C19.9184 16.2197 19.8423 16.2605 19.7826 16.3202L16.9442 19.1576C16.8612 19.2407 16.762 19.3057 16.6527 19.3488C16.5434 19.3918 16.4264 19.4118 16.309 19.4076C16.1916 19.4034 16.0764 19.3751 15.9704 19.3243C15.8645 19.2736 15.7701 19.2015 15.6933 19.1127C15.5531 18.9431 15.4819 18.727 15.4938 18.5073C15.5056 18.2876 15.5997 18.0804 15.7574 17.9269L21.0207 12.6636C23.872 9.81342 23.9948 6.37893 23.9147 5.03398V5.03612Z" fill="#0266F4"/>
</svg>
