<svg width="21" height="20" viewBox="0 0 21 20" fill="none" xmlns="http://www.w3.org/2000/svg">
<path d="M20.2072 19.1433C20.1386 19.2621 20.04 19.3607 19.9212 19.4293C19.8024 19.4979 19.6676 19.5339 19.5305 19.5339H0.780449C0.643379 19.5338 0.508758 19.4976 0.390105 19.4289C0.271451 19.3603 0.172942 19.2617 0.104467 19.1429C0.0359932 19.0242 -3.51643e-05 18.8895 2.57537e-08 18.7525C3.52158e-05 18.6154 0.0361327 18.4807 0.104668 18.362C1.59197 15.7907 3.88396 13.947 6.55877 13.073C5.23569 12.2853 4.20774 11.0852 3.63278 9.65675C3.05782 8.22835 2.96764 6.6507 3.37609 5.16609C3.78455 3.68148 4.66904 2.37199 5.89376 1.43872C7.11847 0.505446 8.61567 0 10.1554 0C11.6952 0 13.1924 0.505446 14.4171 1.43872C15.6419 2.37199 16.5264 3.68148 16.9348 5.16609C17.3433 6.6507 17.2531 8.22835 16.6781 9.65675C16.1032 11.0852 15.0752 12.2853 13.7521 13.073C16.4269 13.947 18.7189 15.7907 20.2062 18.362C20.275 18.4807 20.3112 18.6154 20.3114 18.7525C20.3116 18.8897 20.2756 19.0244 20.2072 19.1433Z" fill="#0266F4"/>
</svg>
