<svg width="77" height="89" viewBox="0 0 77 89" fill="none" xmlns="http://www.w3.org/2000/svg">
<g filter="url(#filter0_dddd_4679_3642)">
<rect x="10.9961" y="5.49805" width="54.0611" height="53.1448" rx="3.66516" fill="url(#paint0_radial_4679_3642)"/>
<rect x="11.4542" y="5.95619" width="53.1448" height="52.2285" rx="3.20701" stroke="url(#paint1_linear_4679_3642)" stroke-width="0.916289"/>
<path d="M29.5412 34.7006C29.5448 34.7725 29.5337 34.8445 29.5087 34.912C29.4836 34.9796 29.445 35.0413 29.3953 35.0935C29.3456 35.1457 29.2858 35.1872 29.2196 35.2156C29.1534 35.2439 29.082 35.2585 29.01 35.2584H23.1503C22.9105 35.2587 22.6776 35.178 22.4895 35.0292C22.3014 34.8804 22.1692 34.6724 22.1143 34.4389C22.0802 34.2791 22.0818 34.1138 22.119 33.9547C22.1562 33.7956 22.228 33.6466 22.3295 33.5185C23.2669 32.2754 24.5107 31.2966 25.9393 30.6777C25.3121 30.1058 24.831 29.3919 24.5364 28.5959C24.2418 27.7998 24.1422 26.9448 24.246 26.1024C24.3498 25.2599 24.6539 24.4546 25.133 23.7539C25.612 23.0531 26.2519 22.4774 26.9992 22.0749C27.7465 21.6723 28.5794 21.4547 29.4281 21.4402C30.2768 21.4258 31.1166 21.6149 31.8771 21.9917C32.6377 22.3685 33.2969 22.9221 33.7996 23.6061C34.3022 24.2901 34.6336 25.0846 34.7661 25.923C34.7832 26.0357 34.763 26.151 34.7085 26.2512C34.6541 26.3514 34.5685 26.4311 34.4646 26.4781C32.9909 27.1594 31.7428 28.2481 30.8676 29.6155C29.9924 30.983 29.5267 32.5723 29.5253 34.1959C29.5253 34.3659 29.5253 34.5332 29.5412 34.7006ZM53.7131 33.5172C52.7779 32.2755 51.5369 31.2972 50.1112 30.6777C50.7385 30.1058 51.2195 29.3919 51.5142 28.5959C51.8088 27.7998 51.9084 26.9448 51.8046 26.1024C51.7008 25.2599 51.3966 24.4546 50.9176 23.7539C50.4386 23.0531 49.7986 22.4774 49.0513 22.0749C48.304 21.6723 47.4712 21.4547 46.6225 21.4402C45.7738 21.4258 44.934 21.6149 44.1734 21.9917C43.4128 22.3685 42.7536 22.9221 42.251 23.6061C41.7484 24.2901 41.417 25.0846 41.2845 25.923C41.2674 26.0357 41.2876 26.151 41.342 26.2512C41.3964 26.3514 41.4821 26.4311 41.586 26.4781C43.0597 27.1594 44.3078 28.2481 45.1829 29.6155C46.0581 30.983 46.5239 32.5723 46.5253 34.1959C46.5253 34.3659 46.5253 34.5332 46.5093 34.7006C46.5057 34.7725 46.5168 34.8445 46.5419 34.912C46.567 34.9796 46.6055 35.0413 46.6552 35.0935C46.7049 35.1457 46.7647 35.1872 46.831 35.2156C46.8972 35.2439 46.9685 35.2585 47.0406 35.2584H52.9003C53.1401 35.2587 53.373 35.178 53.5611 35.0292C53.7491 34.8804 53.8814 34.6724 53.9362 34.4389C53.9706 34.2788 53.969 34.1131 53.9316 33.9537C53.8941 33.7943 53.8218 33.6453 53.7197 33.5172H53.7131ZM41.8928 39.2521C42.9507 38.4419 43.7281 37.3205 44.1158 36.0456C44.5035 34.7708 44.482 33.4065 44.0543 32.1444C43.6265 30.8824 42.8141 29.7862 41.7312 29.0098C40.6482 28.2334 39.3492 27.8158 38.0166 27.8158C36.6841 27.8158 35.3851 28.2334 34.3021 29.0098C33.2192 29.7862 32.4068 30.8824 31.979 32.1444C31.5513 33.4065 31.5297 34.7708 31.9175 36.0456C32.3052 37.3205 33.0826 38.4419 34.1405 39.2521C32.2633 40.0654 30.6957 41.4585 29.6674 43.2271C29.5741 43.3887 29.525 43.5719 29.525 43.7584C29.5251 43.945 29.5742 44.1282 29.6675 44.2897C29.7607 44.4513 29.8949 44.5854 30.0564 44.6786C30.218 44.7719 30.4013 44.8209 30.5878 44.8209H45.4628C45.6493 44.8209 45.8326 44.7719 45.9941 44.6786C46.1557 44.5854 46.2898 44.4513 46.3831 44.2897C46.4764 44.1282 46.5255 43.945 46.5255 43.7584C46.5255 43.5719 46.4764 43.3887 46.3832 43.2271C45.3526 41.4573 43.7822 40.0642 41.9021 39.2521H41.8928Z" fill="white"/>
</g>
<defs>
<filter id="filter0_dddd_4679_3642" x="0.000627398" y="0.000314116" width="76.0534" height="88.8798" filterUnits="userSpaceOnUse" color-interpolation-filters="sRGB">
<feFlood flood-opacity="0" result="BackgroundImageFix"/>
<feColorMatrix in="SourceAlpha" type="matrix" values="0 0 0 0 0 0 0 0 0 0 0 0 0 0 0 0 0 0 127 0" result="hardAlpha"/>
<feOffset dy="0.916289"/>
<feGaussianBlur stdDeviation="1.37443"/>
<feColorMatrix type="matrix" values="0 0 0 0 0 0 0 0 0 0.443137 0 0 0 0 0.94902 0 0 0 0.1 0"/>
<feBlend mode="normal" in2="BackgroundImageFix" result="effect1_dropShadow_4679_3642"/>
<feColorMatrix in="SourceAlpha" type="matrix" values="0 0 0 0 0 0 0 0 0 0 0 0 0 0 0 0 0 0 127 0" result="hardAlpha"/>
<feMorphology radius="1.83258" operator="dilate" in="SourceAlpha" result="effect2_dropShadow_4679_3642"/>
<feOffset dy="5.49773"/>
<feGaussianBlur stdDeviation="4.58144"/>
<feColorMatrix type="matrix" values="0 0 0 0 0 0 0 0 0 0.443137 0 0 0 0 0.94902 0 0 0 0.09 0"/>
<feBlend mode="normal" in2="effect1_dropShadow_4679_3642" result="effect2_dropShadow_4679_3642"/>
<feColorMatrix in="SourceAlpha" type="matrix" values="0 0 0 0 0 0 0 0 0 0 0 0 0 0 0 0 0 0 127 0" result="hardAlpha"/>
<feOffset dx="-0.916289" dy="11.9118"/>
<feGaussianBlur stdDeviation="3.66516"/>
<feColorMatrix type="matrix" values="0 0 0 0 0 0 0 0 0 0.443137 0 0 0 0 0.94902 0 0 0 0.05 0"/>
<feBlend mode="normal" in2="effect2_dropShadow_4679_3642" result="effect3_dropShadow_4679_3642"/>
<feColorMatrix in="SourceAlpha" type="matrix" values="0 0 0 0 0 0 0 0 0 0 0 0 0 0 0 0 0 0 127 0" result="hardAlpha"/>
<feOffset dx="-1.83258" dy="21.9909"/>
<feGaussianBlur stdDeviation="4.1233"/>
<feColorMatrix type="matrix" values="0 0 0 0 0 0 0 0 0 0.443137 0 0 0 0 0.94902 0 0 0 0.01 0"/>
<feBlend mode="normal" in2="effect3_dropShadow_4679_3642" result="effect4_dropShadow_4679_3642"/>
<feBlend mode="normal" in="SourceGraphic" in2="effect4_dropShadow_4679_3642" result="shape"/>
</filter>
<radialGradient id="paint0_radial_4679_3642" cx="0" cy="0" r="1" gradientUnits="userSpaceOnUse" gradientTransform="translate(38.0266 7.81851) scale(35.6756 36.2907)">
<stop stop-color="#74B5FF"/>
<stop offset="1" stop-color="#0071F2"/>
</radialGradient>
<linearGradient id="paint1_linear_4679_3642" x1="38.0266" y1="5.49805" x2="38.0266" y2="58.6428" gradientUnits="userSpaceOnUse">
<stop stop-color="#0071F2"/>
<stop offset="1" stop-color="#7CB9FF"/>
</linearGradient>
</defs>
</svg>
