<svg width="61" height="71" viewBox="0 0 61 71" fill="none" xmlns="http://www.w3.org/2000/svg">
<g filter="url(#filter0_dddd_4557_10709)">
<rect x="8.75781" y="4.37891" width="43.0599" height="42.3301" rx="21.165" fill="url(#paint0_radial_4557_10709)"/>
<rect x="9.12273" y="4.74382" width="42.3301" height="41.6003" rx="20.8001" stroke="url(#paint1_linear_4557_10709)" stroke-width="0.729829"/>
<path d="M39.938 34.1686C39.8721 34.2826 39.7774 34.3773 39.6634 34.4431C39.5493 34.509 39.42 34.5436 39.2883 34.5436H21.2883C21.1567 34.5434 21.0275 34.5087 20.9136 34.4428C20.7997 34.3769 20.7051 34.2822 20.6394 34.1682C20.5736 34.0542 20.539 33.925 20.5391 33.7934C20.5391 33.6618 20.5737 33.5325 20.6395 33.4186C22.0674 30.9501 24.2677 29.1801 26.8355 28.3411C25.5653 27.5849 24.5785 26.4328 24.0265 25.0615C23.4746 23.6902 23.388 22.1757 23.7801 20.7505C24.1722 19.3252 25.0213 18.0681 26.1971 17.1722C27.3728 16.2762 28.8101 15.791 30.2883 15.791C31.7665 15.791 33.2038 16.2762 34.3795 17.1722C35.5552 18.0681 36.4044 19.3252 36.7965 20.7505C37.1886 22.1757 37.102 23.6902 36.5501 25.0615C35.9981 26.4328 35.0113 27.5849 33.7411 28.3411C36.3089 29.1801 38.5092 30.9501 39.937 33.4186C40.003 33.5325 40.0378 33.6618 40.038 33.7934C40.0382 33.9251 40.0037 34.0545 39.938 34.1686Z" fill="white"/>
</g>
<defs>
<filter id="filter0_dddd_4557_10709" x="-0.000133634" y="-6.63996e-05" width="60.5745" height="70.7934" filterUnits="userSpaceOnUse" color-interpolation-filters="sRGB">
<feFlood flood-opacity="0" result="BackgroundImageFix"/>
<feColorMatrix in="SourceAlpha" type="matrix" values="0 0 0 0 0 0 0 0 0 0 0 0 0 0 0 0 0 0 127 0" result="hardAlpha"/>
<feOffset dy="0.729829"/>
<feGaussianBlur stdDeviation="1.09474"/>
<feColorMatrix type="matrix" values="0 0 0 0 0 0 0 0 0 0.443137 0 0 0 0 0.94902 0 0 0 0.1 0"/>
<feBlend mode="normal" in2="BackgroundImageFix" result="effect1_dropShadow_4557_10709"/>
<feColorMatrix in="SourceAlpha" type="matrix" values="0 0 0 0 0 0 0 0 0 0 0 0 0 0 0 0 0 0 127 0" result="hardAlpha"/>
<feMorphology radius="1.45966" operator="dilate" in="SourceAlpha" result="effect2_dropShadow_4557_10709"/>
<feOffset dy="4.37897"/>
<feGaussianBlur stdDeviation="3.64914"/>
<feColorMatrix type="matrix" values="0 0 0 0 0 0 0 0 0 0.443137 0 0 0 0 0.94902 0 0 0 0.09 0"/>
<feBlend mode="normal" in2="effect1_dropShadow_4557_10709" result="effect2_dropShadow_4557_10709"/>
<feColorMatrix in="SourceAlpha" type="matrix" values="0 0 0 0 0 0 0 0 0 0 0 0 0 0 0 0 0 0 127 0" result="hardAlpha"/>
<feOffset dx="-0.729829" dy="9.48778"/>
<feGaussianBlur stdDeviation="2.91932"/>
<feColorMatrix type="matrix" values="0 0 0 0 0 0 0 0 0 0.443137 0 0 0 0 0.94902 0 0 0 0.05 0"/>
<feBlend mode="normal" in2="effect2_dropShadow_4557_10709" result="effect3_dropShadow_4557_10709"/>
<feColorMatrix in="SourceAlpha" type="matrix" values="0 0 0 0 0 0 0 0 0 0 0 0 0 0 0 0 0 0 127 0" result="hardAlpha"/>
<feOffset dx="-1.45966" dy="17.5159"/>
<feGaussianBlur stdDeviation="3.28423"/>
<feColorMatrix type="matrix" values="0 0 0 0 0 0 0 0 0 0.443137 0 0 0 0 0.94902 0 0 0 0.01 0"/>
<feBlend mode="normal" in2="effect3_dropShadow_4557_10709" result="effect4_dropShadow_4557_10709"/>
<feBlend mode="normal" in="SourceGraphic" in2="effect4_dropShadow_4557_10709" result="shape"/>
</filter>
<radialGradient id="paint0_radial_4557_10709" cx="0" cy="0" r="1" gradientUnits="userSpaceOnUse" gradientTransform="translate(30.2878 6.22717) scale(28.4158 28.9057)">
<stop stop-color="#74B5FF"/>
<stop offset="1" stop-color="#0071F2"/>
</radialGradient>
<linearGradient id="paint1_linear_4557_10709" x1="30.2878" y1="4.37891" x2="30.2878" y2="46.709" gradientUnits="userSpaceOnUse">
<stop stop-color="#0071F2"/>
<stop offset="1" stop-color="#7CB9FF"/>
</linearGradient>
</defs>
</svg>
