<svg width="34" height="34" viewBox="0 0 34 34" fill="none" xmlns="http://www.w3.org/2000/svg">
<path d="M31.4514 24.9808L19.837 4.81056C19.5467 4.31639 19.1324 3.90666 18.635 3.62196C18.1377 3.33727 17.5745 3.1875 17.0014 3.1875C16.4283 3.1875 15.8652 3.33727 15.3678 3.62196C14.8704 3.90666 14.4561 4.31639 14.1659 4.81056L2.55142 24.9808C2.27217 25.4588 2.125 26.0024 2.125 26.5559C2.125 27.1095 2.27217 27.6531 2.55142 28.1311C2.83794 28.6283 3.25157 29.0402 3.74987 29.3247C4.24817 29.6092 4.8132 29.756 5.38697 29.7501H28.6159C29.1892 29.7556 29.7537 29.6085 30.2515 29.3241C30.7493 29.0396 31.1625 28.6279 31.4488 28.1311C31.7284 27.6534 31.8761 27.1099 31.8765 26.5563C31.877 26.0027 31.7303 25.459 31.4514 24.9808ZM15.9389 13.8126C15.9389 13.5308 16.0509 13.2605 16.2501 13.0613C16.4494 12.862 16.7196 12.7501 17.0014 12.7501C17.2832 12.7501 17.5535 12.862 17.7527 13.0613C17.952 13.2605 18.0639 13.5308 18.0639 13.8126V19.1251C18.0639 19.4069 17.952 19.6771 17.7527 19.8764C17.5535 20.0756 17.2832 20.1876 17.0014 20.1876C16.7196 20.1876 16.4494 20.0756 16.2501 19.8764C16.0509 19.6771 15.9389 19.4069 15.9389 19.1251V13.8126ZM17.0014 25.5001C16.6862 25.5001 16.3781 25.4066 16.116 25.2315C15.8539 25.0564 15.6496 24.8075 15.529 24.5162C15.4084 24.225 15.3768 23.9046 15.4383 23.5954C15.4998 23.2863 15.6516 23.0023 15.8745 22.7794C16.0974 22.5565 16.3813 22.4047 16.6905 22.3432C16.9997 22.2817 17.3201 22.3133 17.6113 22.4339C17.9025 22.5545 18.1515 22.7588 18.3266 23.0209C18.5017 23.283 18.5952 23.5911 18.5952 23.9063C18.5952 24.329 18.4273 24.7344 18.1284 25.0333C17.8295 25.3322 17.4241 25.5001 17.0014 25.5001Z" fill="#407BFF"/>
</svg>
