<svg width="77" height="89" viewBox="0 0 77 89" fill="none" xmlns="http://www.w3.org/2000/svg">
<g filter="url(#filter0_dddd_4557_10092)">
<rect x="10.9961" y="5.49805" width="54.0611" height="53.1448" rx="3.66516" fill="url(#paint0_radial_4557_10092)"/>
<rect x="11.4542" y="5.95619" width="53.1448" height="52.2285" rx="3.20701" stroke="url(#paint1_linear_4557_10092)" stroke-width="0.916289"/>
<path d="M40.1518 42.1647C40.1518 42.585 40.0271 42.9958 39.7936 43.3453C39.5601 43.6947 39.2283 43.9671 38.84 44.1279C38.4517 44.2888 38.0244 44.3308 37.6122 44.2489C37.2 44.1669 36.8213 43.9645 36.5242 43.6673C36.227 43.3701 36.0246 42.9915 35.9426 42.5793C35.8606 42.167 35.9027 41.7398 36.0635 41.3515C36.2243 40.9632 36.4967 40.6313 36.8462 40.3978C37.1956 40.1643 37.6065 40.0397 38.0268 40.0397C38.5903 40.0397 39.1308 40.2636 39.5294 40.6621C39.9279 41.0606 40.1518 41.6011 40.1518 42.1647ZM52.85 26.2152C48.6705 22.7874 43.4321 20.9141 38.0268 20.9141C32.6214 20.9141 27.3831 22.7874 23.2036 26.2152C23.0418 26.348 22.9078 26.5114 22.8091 26.696C22.7105 26.8806 22.6492 27.0829 22.6287 27.2912C22.6083 27.4995 22.629 27.7098 22.6898 27.91C22.7506 28.1103 22.8503 28.2967 22.9831 28.4584C23.1159 28.6202 23.2793 28.7542 23.4639 28.8529C23.6485 28.9515 23.8507 29.0128 24.059 29.0333C24.2673 29.0537 24.4776 29.033 24.6779 28.9722C24.8782 28.9114 25.0645 28.8117 25.2263 28.6789C28.8356 25.7192 33.3591 24.1018 38.0268 24.1018C42.6944 24.1018 47.2179 25.7192 50.8272 28.6789C50.989 28.8117 51.1753 28.9114 51.3756 28.9722C51.5759 29.033 51.7862 29.0537 51.9945 29.0333C52.2028 29.0128 52.405 28.9515 52.5896 28.8529C52.7742 28.7542 52.9376 28.6202 53.0704 28.4584C53.2032 28.2967 53.3029 28.1103 53.3637 27.91C53.4245 27.7098 53.4452 27.4995 53.4248 27.2912C53.4043 27.0829 53.343 26.8806 53.2444 26.696C53.1457 26.5114 53.0117 26.348 52.85 26.2152ZM48.5787 30.9606C45.5754 28.583 41.8572 27.2894 38.0268 27.2894C34.1963 27.2894 30.4781 28.583 27.4748 30.9606C27.1518 31.2258 26.9458 31.6072 26.9013 32.0227C26.8568 32.4382 26.9772 32.8546 27.2367 33.1821C27.4962 33.5097 27.8739 33.7223 28.2886 33.774C28.7033 33.8258 29.1217 33.7126 29.4537 33.4588C31.8938 31.5272 34.9147 30.4763 38.0268 30.4763C41.1388 30.4763 44.1597 31.5272 46.5998 33.4588C46.9318 33.7126 47.3502 33.8258 47.7649 33.774C48.1796 33.7223 48.5574 33.5097 48.8168 33.1821C49.0763 32.8546 49.1968 32.4382 49.1522 32.0227C49.1077 31.6072 48.9017 31.2258 48.5787 30.9606ZM44.2782 35.6967C42.4614 34.3759 40.2729 33.6645 38.0268 33.6645C35.7806 33.6645 33.5921 34.3759 31.7753 35.6967C31.4336 35.9458 31.2048 36.3203 31.1393 36.738C31.0738 37.1557 31.1769 37.5823 31.426 37.924C31.675 38.2657 32.0496 38.4944 32.4673 38.5599C32.885 38.6254 33.3116 38.5223 33.6532 38.2733C34.9243 37.3492 36.4553 36.8515 38.0268 36.8515C39.5982 36.8515 41.1292 37.3492 42.4003 38.2733C42.5695 38.3966 42.7613 38.4854 42.9648 38.5345C43.1682 38.5837 43.3794 38.5924 43.5862 38.5599C43.7931 38.5275 43.9915 38.4546 44.1701 38.3455C44.3488 38.2364 44.5042 38.0932 44.6275 37.924C44.7508 37.7548 44.8396 37.563 44.8888 37.3595C44.938 37.156 44.9466 36.9448 44.9142 36.738C44.8817 36.5312 44.8089 36.3328 44.6998 36.1541C44.5907 35.9755 44.4474 35.82 44.2782 35.6967Z" fill="white"/>
</g>
<defs>
<filter id="filter0_dddd_4557_10092" x="0.000627398" y="0.000314116" width="76.0534" height="88.8798" filterUnits="userSpaceOnUse" color-interpolation-filters="sRGB">
<feFlood flood-opacity="0" result="BackgroundImageFix"/>
<feColorMatrix in="SourceAlpha" type="matrix" values="0 0 0 0 0 0 0 0 0 0 0 0 0 0 0 0 0 0 127 0" result="hardAlpha"/>
<feOffset dy="0.916289"/>
<feGaussianBlur stdDeviation="1.37443"/>
<feColorMatrix type="matrix" values="0 0 0 0 0 0 0 0 0 0.443137 0 0 0 0 0.94902 0 0 0 0.1 0"/>
<feBlend mode="normal" in2="BackgroundImageFix" result="effect1_dropShadow_4557_10092"/>
<feColorMatrix in="SourceAlpha" type="matrix" values="0 0 0 0 0 0 0 0 0 0 0 0 0 0 0 0 0 0 127 0" result="hardAlpha"/>
<feMorphology radius="1.83258" operator="dilate" in="SourceAlpha" result="effect2_dropShadow_4557_10092"/>
<feOffset dy="5.49773"/>
<feGaussianBlur stdDeviation="4.58144"/>
<feColorMatrix type="matrix" values="0 0 0 0 0 0 0 0 0 0.443137 0 0 0 0 0.94902 0 0 0 0.09 0"/>
<feBlend mode="normal" in2="effect1_dropShadow_4557_10092" result="effect2_dropShadow_4557_10092"/>
<feColorMatrix in="SourceAlpha" type="matrix" values="0 0 0 0 0 0 0 0 0 0 0 0 0 0 0 0 0 0 127 0" result="hardAlpha"/>
<feOffset dx="-0.916289" dy="11.9118"/>
<feGaussianBlur stdDeviation="3.66516"/>
<feColorMatrix type="matrix" values="0 0 0 0 0 0 0 0 0 0.443137 0 0 0 0 0.94902 0 0 0 0.05 0"/>
<feBlend mode="normal" in2="effect2_dropShadow_4557_10092" result="effect3_dropShadow_4557_10092"/>
<feColorMatrix in="SourceAlpha" type="matrix" values="0 0 0 0 0 0 0 0 0 0 0 0 0 0 0 0 0 0 127 0" result="hardAlpha"/>
<feOffset dx="-1.83258" dy="21.9909"/>
<feGaussianBlur stdDeviation="4.1233"/>
<feColorMatrix type="matrix" values="0 0 0 0 0 0 0 0 0 0.443137 0 0 0 0 0.94902 0 0 0 0.01 0"/>
<feBlend mode="normal" in2="effect3_dropShadow_4557_10092" result="effect4_dropShadow_4557_10092"/>
<feBlend mode="normal" in="SourceGraphic" in2="effect4_dropShadow_4557_10092" result="shape"/>
</filter>
<radialGradient id="paint0_radial_4557_10092" cx="0" cy="0" r="1" gradientUnits="userSpaceOnUse" gradientTransform="translate(38.0266 7.81851) scale(35.6756 36.2907)">
<stop stop-color="#74B5FF"/>
<stop offset="1" stop-color="#0071F2"/>
</radialGradient>
<linearGradient id="paint1_linear_4557_10092" x1="38.0266" y1="5.49805" x2="38.0266" y2="58.6428" gradientUnits="userSpaceOnUse">
<stop stop-color="#0071F2"/>
<stop offset="1" stop-color="#7CB9FF"/>
</linearGradient>
</defs>
</svg>
