<svg width="131" height="131" viewBox="0 0 131 131" fill="none" xmlns="http://www.w3.org/2000/svg">
<path d="M105.252 57.6474C106.634 57.6474 107.754 56.5275 107.754 55.146C107.754 53.7645 106.634 52.6445 105.252 52.6445C103.871 52.6445 102.751 53.7645 102.751 55.146C102.751 56.5275 103.871 57.6474 105.252 57.6474Z" fill="#F9FAFB"/>
<path d="M65.5001 110.162C90.0567 110.162 109.964 102.352 109.964 92.7191C109.964 83.0857 90.0567 75.2764 65.5001 75.2764C40.9435 75.2764 21.0364 83.0857 21.0364 92.7191C21.0364 102.352 40.9435 110.162 65.5001 110.162Z" fill="#F9FAFB"/>
<path d="M64.073 29.9072L62.2255 41.4883H50.2205L64.073 29.9072Z" fill="#D0D5DD"/>
<path d="M62.2255 41.759H50.2205C50.106 41.759 50.0049 41.6879 49.9651 41.5808C49.9266 41.4736 49.9591 41.3531 50.0458 41.2809L63.8984 29.6986C63.9851 29.6263 64.1079 29.6155 64.2055 29.6709C64.3042 29.7263 64.3572 29.8371 64.3391 29.9491L62.4917 41.5314C62.4724 41.6627 62.3592 41.759 62.2255 41.759ZM50.9672 41.217H61.9943L63.6912 30.5789L50.9672 41.217Z" fill="#F9FAFB"/>
<path d="M65.1797 51.6784C65.0966 51.6784 65.0135 51.6399 64.9605 51.5676L64.2294 50.5704C64.1475 50.4584 64.1632 50.3019 64.2668 50.2079C64.3703 50.1152 64.5281 50.1152 64.6305 50.2103C64.6353 50.2152 64.6413 50.22 64.6461 50.226C64.6509 50.2308 64.6558 50.2368 64.6594 50.2416C64.6714 50.2561 64.6847 50.2754 64.6979 50.2934L65.3977 51.2473C65.4856 51.3677 65.4603 51.5375 65.3398 51.6255C65.2917 51.6616 65.2363 51.6784 65.1797 51.6784Z" fill="#F9FAFB"/>
<mask id="mask0_623_17600" style="mask-type:luminance" maskUnits="userSpaceOnUse" x="64" y="50" width="2" height="2">
<path d="M65.1797 51.6784C65.0966 51.6784 65.0135 51.6399 64.9605 51.5676L64.2294 50.5704C64.1475 50.4584 64.1632 50.3019 64.2668 50.2079C64.3703 50.1152 64.5281 50.1152 64.6305 50.2103C64.6353 50.2152 64.6413 50.22 64.6461 50.226C64.6509 50.2308 64.6558 50.2368 64.6594 50.2416C64.6714 50.2561 64.6847 50.2754 64.6979 50.2934L65.3977 51.2473C65.4856 51.3677 65.4603 51.5375 65.3398 51.6255C65.2917 51.6616 65.2363 51.6784 65.1797 51.6784Z" fill="white"/>
</mask>
<g mask="url(#mask0_623_17600)">
<path d="M65.0267 51.131L68.0641 55.2716C67.8834 55.0247 67.6907 54.785 67.486 54.5514C65.2399 51.9921 61.9652 50.7119 58.487 50.7119C56.978 50.7119 55.4316 50.9527 53.9129 51.4345L50.8755 47.2939C52.3942 46.8122 53.9406 46.5713 55.4496 46.5713C58.9278 46.5713 62.2025 47.8515 64.4486 50.4108C64.6534 50.6444 64.8461 50.8841 65.0267 51.131Z" fill="#667185"/>
<path d="M68.0642 55.543C67.9811 55.543 67.898 55.5045 67.845 55.4322C67.6691 55.1914 67.4788 54.9553 67.2813 54.7301C65.1604 52.3141 62.0375 50.9833 58.4859 50.9833C56.9889 50.9833 55.4786 51.2218 53.9936 51.6927C53.8828 51.7276 53.7624 51.6879 53.6925 51.5951L50.6551 47.4546C50.6034 47.3847 50.5889 47.2932 50.6166 47.2101C50.6431 47.127 50.7093 47.0619 50.7924 47.0354C52.3304 46.5477 53.8961 46.3008 55.4485 46.3008C59.1579 46.3008 62.4266 47.6966 64.651 50.2318C64.8594 50.4691 65.0581 50.7184 65.2448 50.9713L68.2797 55.1095C68.2809 55.1107 68.2809 55.1119 68.2821 55.1119C68.3701 55.2323 68.3448 55.4021 68.2243 55.4912C68.1762 55.5262 68.1208 55.543 68.0642 55.543ZM58.4871 50.4414C61.268 50.4414 63.8007 51.2266 65.8325 52.6875L64.8088 51.2916C64.6329 51.0508 64.4427 50.8147 64.2451 50.5895C62.1243 48.1736 59.0014 46.8427 55.4497 46.8427C54.0743 46.8427 52.6869 47.0439 51.32 47.4425L54.0165 51.1194C55.4943 50.669 56.9973 50.4414 58.4871 50.4414Z" fill="#F9FAFB"/>
</g>
<path d="M49.1148 70.2583C49.0401 70.2583 48.9667 70.2282 48.9125 70.1679L48.8703 70.1198C48.7306 69.9596 48.5969 69.7934 48.4729 69.6248L45.4355 65.4842C45.3476 65.3638 45.3729 65.1939 45.4933 65.106C45.6137 65.0181 45.7836 65.0434 45.8727 65.1638L45.8751 65.1674C45.9895 65.3228 46.1123 65.4758 46.2412 65.6227L46.2798 65.6661C46.2858 65.6733 46.2918 65.6793 46.2966 65.6865L49.334 69.8271C49.4195 69.9439 49.399 70.1065 49.2858 70.1981C49.2352 70.239 49.1738 70.2583 49.1148 70.2583Z" fill="#F9FAFB"/>
<mask id="mask1_623_17600" style="mask-type:luminance" maskUnits="userSpaceOnUse" x="45" y="65" width="5" height="6">
<path d="M49.1148 70.2583C49.0401 70.2583 48.9667 70.2282 48.9125 70.1679L48.8703 70.1198C48.7306 69.9596 48.5969 69.7934 48.4729 69.6248L45.4355 65.4842C45.3476 65.3638 45.3729 65.1939 45.4933 65.106C45.6137 65.0181 45.7836 65.0434 45.8727 65.1638L45.8751 65.1674C45.9895 65.3228 46.1123 65.4758 46.2412 65.6227L46.2798 65.6661C46.2858 65.6733 46.2918 65.6793 46.2966 65.6865L49.334 69.8271C49.4195 69.9439 49.399 70.1065 49.2858 70.1981C49.2352 70.239 49.1738 70.2583 49.1148 70.2583Z" fill="white"/>
</mask>
<g mask="url(#mask1_623_17600)">
<g opacity="0.6">
<path d="M46.2978 66.083L49.3352 70.2236C49.246 70.132 49.1581 70.0381 49.0738 69.9417C48.9377 69.7876 48.8101 69.6274 48.6908 69.4648L45.6534 65.3242C45.7727 65.4868 45.9003 65.647 46.0364 65.8011C46.1207 65.8975 46.2087 65.9914 46.2978 66.083Z" fill="#667185"/>
<path d="M49.3352 70.4943C49.2641 70.4943 49.1943 70.4666 49.1413 70.4124C49.0474 70.3173 48.9558 70.2185 48.8691 70.1198C48.7294 69.9608 48.5957 69.7946 48.4717 69.6248L45.4343 65.4842C45.3464 65.3638 45.3716 65.1939 45.4921 65.106C45.6125 65.0181 45.7823 65.0434 45.8715 65.1638L45.8739 65.1674C45.9883 65.3228 46.1111 65.4758 46.24 65.6227C46.3207 65.7142 46.405 65.8058 46.4917 65.8937C46.5013 65.9033 46.5086 65.9129 46.517 65.9226L49.5544 70.0632C49.6387 70.1776 49.6194 70.3378 49.511 70.4305C49.4604 70.4739 49.3978 70.4943 49.3352 70.4943Z" fill="#F9FAFB"/>
</g>
</g>
<path d="M49.3352 70.4956C49.2641 70.4956 49.1942 70.4679 49.1413 70.4137C49.063 70.3342 48.9859 70.2523 48.9112 70.168C48.9088 70.1644 48.9052 70.162 48.9028 70.1584C48.8715 70.1198 48.8353 70.0692 48.8016 70.0223L48.7643 69.9705L45.857 66.0069C45.7715 65.8901 45.7919 65.7275 45.9051 65.636C46.0171 65.5445 46.1809 65.5577 46.2773 65.6661C46.3471 65.7432 46.4182 65.8191 46.4905 65.8937C46.4989 65.9034 46.5073 65.913 46.5158 65.9226L49.5531 70.0632C49.6375 70.1776 49.6182 70.3378 49.5098 70.4305C49.4592 70.4751 49.3978 70.4956 49.3352 70.4956Z" fill="#F9FAFB"/>
<mask id="mask2_623_17600" style="mask-type:luminance" maskUnits="userSpaceOnUse" x="45" y="65" width="5" height="6">
<path d="M49.3352 70.4956C49.2641 70.4956 49.1942 70.4679 49.1413 70.4137C49.063 70.3342 48.9859 70.2523 48.9112 70.168C48.9088 70.1644 48.9052 70.162 48.9028 70.1584C48.8715 70.1198 48.8353 70.0692 48.8016 70.0223L48.7643 69.9705L45.857 66.0069C45.7715 65.8901 45.7919 65.7275 45.9051 65.636C46.0171 65.5445 46.1809 65.5577 46.2773 65.6661C46.3471 65.7432 46.4182 65.8191 46.4905 65.8937C46.4989 65.9034 46.5073 65.913 46.5158 65.9226L49.5531 70.0632C49.6375 70.1776 49.6182 70.3378 49.5098 70.4305C49.4592 70.4751 49.3978 70.4956 49.3352 70.4956Z" fill="white"/>
</mask>
<g mask="url(#mask2_623_17600)">
<g opacity="0.6">
<path d="M46.2979 66.0839L49.3353 70.2245C49.2462 70.133 49.1582 70.0391 49.0739 69.9427C48.9379 69.7885 48.8102 69.6284 48.691 69.4658L45.6536 65.3252C45.7728 65.4878 45.9005 65.648 46.0366 65.8021C46.1209 65.8985 46.2088 65.9924 46.2979 66.0839Z" fill="#667185"/>
<path d="M49.3352 70.4953C49.2641 70.4953 49.1943 70.4676 49.1413 70.4134C49.0474 70.3183 48.9558 70.2195 48.8691 70.1207C48.7294 69.9618 48.5957 69.7956 48.4717 69.6258L45.4343 65.4852C45.3464 65.3647 45.3716 65.1949 45.4921 65.107C45.6125 65.0191 45.7823 65.0444 45.8715 65.1648L45.8739 65.1684C45.9883 65.3238 46.1111 65.4767 46.24 65.6237C46.3207 65.7152 46.405 65.8067 46.4917 65.8947C46.5013 65.9043 46.5086 65.9139 46.517 65.9236L49.5544 70.0641C49.6387 70.1786 49.6194 70.3387 49.511 70.4315C49.4604 70.4748 49.3978 70.4953 49.3352 70.4953Z" fill="#F9FAFB"/>
</g>
</g>
<path d="M62.0581 60.9955C61.9858 61.2244 61.9027 61.4544 61.8112 61.6808C61.6149 62.1674 61.3764 62.6455 61.0958 63.1092C60.9609 63.332 60.8176 63.5524 60.6622 63.7692C60.1371 64.5098 59.4988 65.206 58.7521 65.8286C56.7204 67.528 54.2779 68.3758 51.9704 68.3758C49.664 68.3758 47.4926 67.5268 46.004 65.8286C43.0232 62.4323 43.9012 56.9284 47.9635 53.5345C49.9952 51.8352 52.4377 50.9873 54.7452 50.9873C57.0516 50.9873 59.223 51.8364 60.7116 53.5345C60.755 53.5839 60.7959 53.6321 60.8345 53.6815C61.0284 53.9151 61.2066 54.1596 61.3656 54.4089C61.6534 54.8617 61.8811 55.3374 62.0569 55.8361C62.1472 56.089 62.2219 56.3479 62.2809 56.6105C62.6073 58.0147 62.5242 59.5274 62.0581 60.9955Z" fill="#E4E7EC"/>
<path d="M62.2821 56.6112H54.3382C53.4999 56.6112 52.923 55.9572 53.0531 55.1479C53.182 54.3385 53.966 53.6846 54.8054 53.6846H60.8369C61.0308 53.9182 61.209 54.1627 61.368 54.412C61.6558 54.8648 61.8835 55.3406 62.0593 55.8392C62.1484 56.0897 62.2231 56.3486 62.2821 56.6112Z" fill="#98A2B3"/>
<path d="M62.0581 60.9963C61.9859 61.2251 61.9028 61.4552 61.8112 61.6816C61.6149 62.1682 61.3764 62.6463 61.0958 63.11C60.9609 63.3328 60.8176 63.5532 60.6623 63.77H53.1133C52.3173 63.77 51.7753 63.1485 51.8969 62.3825C52.0198 61.6166 52.7617 60.9951 53.5553 60.9951H62.0581V60.9963Z" fill="#98A2B3"/>
<path d="M64.3138 29.7051H97.825L97.3132 32.9159L88.5069 88.1309H46.1111H42.7822L45.4451 71.4313C47.1986 72.3394 49.2003 72.7934 51.273 72.7934C54.0586 72.7934 56.9744 71.9733 59.5987 70.3317H83.0957C83.504 70.3317 83.8834 70.0138 83.9472 69.6199C84.0098 69.2285 83.7304 68.9106 83.3234 68.9106H61.5461C63.5357 67.2341 65.0111 65.2204 65.9408 63.0935H84.2507C84.659 63.0935 85.0384 62.7756 85.101 62.3842C85.1636 61.9915 84.8842 61.6724 84.4771 61.6724H66.478C67.0958 59.7346 67.2668 57.7438 66.973 55.8553H85.4045C85.8128 55.8553 86.1921 55.5374 86.2548 55.146C86.3174 54.7533 86.038 54.4342 85.6309 54.4342H66.6562C66.2275 52.9733 65.4964 51.6051 64.4499 50.4092C62.2037 47.85 58.9291 46.5697 55.4509 46.5697C53.3794 46.5697 51.2368 47.0238 49.1942 47.9306L50.2216 41.4861H62.2266L64.0741 29.9062L64.3138 29.7051ZM81.942 77.5687C82.3502 77.5687 82.7296 77.2508 82.7934 76.8569C82.8561 76.4655 82.5767 76.1476 82.1696 76.1476H53.5841C53.1783 76.1476 52.7977 76.4655 52.7351 76.8569C52.6724 77.2496 52.9518 77.5687 53.3577 77.5687H81.942ZM86.5595 48.6183C86.9677 48.6183 87.3471 48.3004 87.4097 47.909C87.4724 47.5163 87.193 47.1972 86.7859 47.1972H67.409C67.0019 47.1972 66.6225 47.5151 66.5599 47.909C66.4973 48.3004 66.7743 48.6183 67.1825 48.6183H86.5595Z" fill="#F7F9FC"/>
<path d="M88.5069 88.4009H42.7822C42.7027 88.4009 42.6281 88.366 42.5763 88.3058C42.5245 88.2455 42.5028 88.166 42.5148 88.0878L45.1789 71.3881C45.1921 71.3026 45.2463 71.2279 45.3246 71.1894C45.4017 71.1497 45.4944 71.1509 45.5715 71.1906C47.2552 72.0626 49.2267 72.5226 51.2741 72.5226C54.096 72.5226 56.925 71.6856 59.4554 70.1019C59.4987 70.0754 59.5481 70.0609 59.5987 70.0609H83.0957C83.3703 70.0609 83.6377 69.8393 83.6786 69.578C83.6955 69.472 83.6714 69.3732 83.61 69.301C83.5449 69.2239 83.4426 69.1817 83.3221 69.1817H61.5461C61.4317 69.1817 61.3305 69.1107 61.292 69.0035C61.2535 68.8963 61.2848 68.7771 61.3715 68.7036C63.2575 67.1139 64.7521 65.1363 65.6927 62.9853C65.7361 62.8866 65.8336 62.8227 65.9408 62.8227H84.2507C84.5253 62.8227 84.7927 62.6023 84.8336 62.341C84.8505 62.2338 84.8264 62.135 84.765 62.0628C84.6999 61.9857 84.5976 61.9435 84.4771 61.9435H66.478C66.3913 61.9435 66.3106 61.9026 66.2588 61.8327C66.2082 61.7629 66.1937 61.6726 66.219 61.5907C66.8224 59.6986 66.9898 57.7295 66.7044 55.8977C66.6924 55.8194 66.7152 55.7399 66.7658 55.6797C66.8164 55.6195 66.8923 55.5845 66.9718 55.5845H85.4033C85.6779 55.5845 85.9452 55.3641 85.9862 55.1028C86.003 54.9956 85.979 54.8968 85.9175 54.8246C85.8525 54.7475 85.7501 54.7053 85.6297 54.7053H66.6562C66.5358 54.7053 66.4298 54.6259 66.3961 54.5102C65.9673 53.0469 65.2435 51.727 64.2451 50.5876C62.1242 48.1717 59.0013 46.8409 55.4497 46.8409C53.3974 46.8409 51.2717 47.3034 49.3026 48.1789C49.2123 48.2187 49.1063 48.2066 49.0268 48.1464C48.9473 48.0862 48.9088 47.9874 48.9244 47.8887L49.9518 41.4441C49.9722 41.3129 50.0866 41.2153 50.2191 41.2153H61.9929L63.8031 29.863C63.8127 29.7992 63.8465 29.7402 63.8958 29.698L64.1367 29.4945C64.1861 29.4535 64.2475 29.4307 64.3113 29.4307H97.825C97.9045 29.4307 97.9792 29.4656 98.031 29.5258C98.0828 29.586 98.1044 29.6655 98.0924 29.7438L88.7743 88.1697C88.7538 88.3046 88.6406 88.4009 88.5069 88.4009ZM43.099 87.8589H88.2757L97.5071 29.975H64.4125L64.3246 30.0497L62.494 41.5309C62.4735 41.6621 62.3591 41.7597 62.2266 41.7597H50.4528L49.5387 47.4912C51.4476 46.7108 53.4805 46.3001 55.4509 46.3001C59.1603 46.3001 62.4289 47.696 64.6534 50.2311C65.659 51.3801 66.3997 52.7013 66.8574 54.1634H85.6321C85.9091 54.1634 86.1644 54.2766 86.3318 54.4729C86.498 54.668 86.5667 54.9221 86.5233 55.1883C86.439 55.7146 85.9476 56.1265 85.4045 56.1265H67.2849C67.5041 57.8355 67.3523 59.6456 66.8429 61.4016H84.4771C84.7541 61.4016 85.0094 61.5148 85.1769 61.7111C85.3431 61.9062 85.4117 62.1603 85.3683 62.4265C85.284 62.9528 84.7927 63.3647 84.2495 63.3647H66.1167C65.2339 65.3182 63.9115 67.1259 62.2639 68.6398H83.3221C83.5991 68.6398 83.8545 68.753 84.0219 68.9493C84.1881 69.1444 84.2555 69.3973 84.2134 69.6635C84.1291 70.1898 83.6377 70.6029 83.0945 70.6029H59.6758C57.0755 72.2143 54.1718 73.0646 51.2729 73.0646C49.2725 73.0646 47.3395 72.6419 45.6546 71.8373L43.099 87.8589ZM81.9419 77.8399H53.3577C53.0819 77.8399 52.8266 77.7279 52.6592 77.5304C52.493 77.3352 52.4243 77.0811 52.4677 76.8138C52.552 76.2875 53.0421 75.8756 53.5841 75.8756H82.1684C82.4454 75.8756 82.7007 75.9888 82.8681 76.1851C83.0343 76.3802 83.1017 76.6331 83.0596 76.8993C82.9765 77.4268 82.4851 77.8399 81.9419 77.8399ZM53.5841 76.4187C53.3107 76.4187 53.0446 76.6391 53.0024 76.9005C52.9855 77.0077 53.0096 77.1076 53.071 77.1799C53.1361 77.257 53.2385 77.2991 53.3565 77.2991H81.9407C82.2153 77.2991 82.4827 77.0775 82.5236 76.8162C82.5405 76.7102 82.5164 76.6114 82.455 76.5392C82.39 76.4621 82.2876 76.4199 82.1672 76.4199H53.5841V76.4187ZM86.5595 48.8895H67.1825C66.9055 48.8895 66.6514 48.7775 66.484 48.5812C66.3178 48.3861 66.2504 48.1332 66.2925 47.867C66.3768 47.3395 66.867 46.9276 67.4089 46.9276H86.7859C87.0629 46.9276 87.3182 47.0408 87.4856 47.2371C87.6518 47.4322 87.7205 47.6863 87.6771 47.9525C87.594 48.4776 87.1026 48.8895 86.5595 48.8895ZM67.4089 47.4684C67.1356 47.4684 66.8694 47.69 66.8272 47.9513C66.8104 48.0585 66.8345 48.1572 66.8959 48.2283C66.9609 48.3042 67.0621 48.3463 67.1825 48.3463H86.5595C86.834 48.3463 87.1014 48.1259 87.1424 47.8646C87.1592 47.7574 87.1351 47.6586 87.0737 47.5864C87.0087 47.5093 86.9063 47.4671 86.7859 47.4671H67.4089V47.4684Z" fill="#F9FAFB"/>
<g opacity="0.5">
<g opacity="0.6">
<path d="M48.3392 53.2832L48.0514 55.0909C48.0068 55.1247 47.9622 55.1584 47.9189 55.1957C46.9397 56.0123 46.729 57.3395 47.4468 58.1572C47.4781 58.1934 47.5118 58.2283 47.5467 58.2608L46.299 66.0819C46.2099 65.9904 46.122 65.8964 46.0377 65.8001C44.5563 64.1104 44.0336 61.8956 44.3877 59.682C44.7406 57.4671 45.969 55.2535 47.9899 53.565C48.1032 53.4687 48.2212 53.3747 48.3392 53.2832Z" fill="#D0D5DD"/>
</g>
</g>
<path d="M84.4772 61.6738C84.8855 61.6738 85.1637 61.9918 85.1011 62.3856C85.0384 62.777 84.6579 63.095 84.2508 63.095H65.9409C66.1469 62.6265 66.3263 62.152 66.4769 61.6738H84.4772Z" fill="#D0D5DD"/>
<path d="M84.2508 63.3652H65.941C65.8494 63.3652 65.7639 63.3195 65.7146 63.2424C65.6652 63.1653 65.6567 63.0689 65.6929 62.9858C65.8964 62.521 66.0734 62.0525 66.2192 61.5924C66.2541 61.4792 66.3589 61.4033 66.4781 61.4033H84.4773C84.7543 61.4033 85.0096 61.5165 85.177 61.7128C85.3432 61.9079 85.4118 62.1621 85.3685 62.4282C85.2854 62.9533 84.794 63.3652 84.2508 63.3652ZM66.3505 62.8233H84.2508C84.5254 62.8233 84.7928 62.6029 84.8338 62.3415C84.8506 62.2343 84.8265 62.1356 84.7651 62.0633C84.7001 61.9862 84.5977 61.9441 84.4773 61.9441H66.6744C66.5781 62.2355 66.4697 62.5294 66.3505 62.8233Z" fill="#D0D5DD"/>
<path d="M83.3234 68.9102C83.7317 68.9102 84.0099 69.2281 83.9473 69.6195C83.8846 70.0121 83.5041 70.3313 83.0958 70.3313H59.5975C60.2491 69.9242 60.8826 69.4654 61.4908 68.9571C61.5089 68.9415 61.5281 68.9258 61.5462 68.9114H83.3234V68.9102Z" fill="#D0D5DD"/>
<path d="M83.0957 70.6025H59.5975C59.477 70.6025 59.3698 70.523 59.3373 70.4062C59.3036 70.2906 59.3518 70.1653 59.4542 70.1015C60.1009 69.6968 60.7272 69.2416 61.3173 68.749L61.3679 68.7069C61.4173 68.6659 61.4823 68.6406 61.5461 68.6406H83.3233C83.6003 68.6406 83.8557 68.7538 84.0231 68.9501C84.1893 69.1453 84.2567 69.3982 84.2146 69.6643C84.1303 70.1894 83.6401 70.6025 83.0957 70.6025ZM60.4959 70.0606H83.0957C83.3703 70.0606 83.6377 69.839 83.6786 69.5776C83.6955 69.4716 83.6714 69.3729 83.61 69.3006C83.5449 69.2235 83.4426 69.1814 83.3221 69.1814H61.6437C61.2751 69.4897 60.891 69.7836 60.4959 70.0606Z" fill="#D0D5DD"/>
<path d="M100.56 33.4338L100.131 36.1267L100.048 36.6458L91.3251 91.3393H45.1368L42.7822 88.1297H88.5069L97.3132 32.9171L97.8262 29.7051L100.56 33.4338Z" fill="#E4E7EC"/>
<path d="M91.3252 91.6111H45.138C45.0513 91.6111 44.9706 91.5701 44.92 91.5003L42.5643 88.2907C42.5041 88.2088 42.4944 88.0992 42.5414 88.0076C42.5872 87.9161 42.6811 87.8595 42.7835 87.8595H88.2769L97.0471 32.8745L97.5601 29.6625C97.577 29.5541 97.6577 29.4674 97.7637 29.4421C97.8709 29.4168 97.9816 29.4565 98.0455 29.5456L100.779 33.2743C100.823 33.3321 100.84 33.4056 100.829 33.4767L100.317 36.6887L91.5925 91.3835C91.5708 91.5147 91.4576 91.6111 91.3252 91.6111ZM45.2741 91.0691H91.0927L99.781 36.6032L100.275 33.5032L97.9913 30.3887L97.5806 32.96L88.7743 88.1726C88.7539 88.3039 88.6394 88.4015 88.507 88.4015H43.317L45.2741 91.0691Z" fill="#F9FAFB"/>
<path d="M94.1421 94.5518L97.1795 98.6923H51.4524L48.415 94.5518H94.1421Z" fill="#D0D5DD"/>
<path d="M97.1796 98.9638H51.4525C51.3658 98.9638 51.2851 98.9228 51.2345 98.853L48.1971 94.7124C48.1369 94.6305 48.1272 94.5209 48.1742 94.4294C48.22 94.3379 48.3139 94.2812 48.4163 94.2812H94.1434C94.2301 94.2812 94.3108 94.3222 94.3614 94.392L97.3988 98.5326C97.459 98.6145 97.4686 98.7241 97.4216 98.8157C97.3747 98.906 97.2819 98.9638 97.1796 98.9638ZM51.5898 98.4218H96.6448L94.0049 94.8232H48.9498L51.5898 98.4218Z" fill="#F9FAFB"/>
<path d="M103.46 36.1279L94.1421 94.5526H48.415L48.9269 91.3406H91.3251L100.13 36.1279H103.46Z" fill="#F7F9FC"/>
<path d="M94.1421 94.8231H48.415C48.3355 94.8231 48.2609 94.7881 48.2091 94.7279C48.1573 94.6677 48.1356 94.5882 48.1477 94.5099L48.6595 91.2991C48.68 91.1678 48.7944 91.0703 48.9269 91.0703H91.0939L99.8628 36.0853C99.8833 35.954 99.9977 35.8564 100.13 35.8564H103.46C103.54 35.8564 103.614 35.8914 103.666 35.9516C103.718 36.0118 103.74 36.0913 103.728 36.1696L94.4095 94.5942C94.389 94.7255 94.2758 94.8231 94.1421 94.8231ZM48.733 94.2811H93.9109L103.142 36.3984H100.361L91.5925 91.3834C91.572 91.5147 91.4576 91.6122 91.3251 91.6122H49.1581L48.733 94.2811Z" fill="#F9FAFB"/>
<path d="M103.46 36.127L106.498 40.2675L97.1795 98.6922L94.1421 94.5516L103.46 36.127Z" fill="#E4E7EC"/>
<path d="M97.1795 98.9629C97.094 98.9629 97.0133 98.9232 96.9615 98.8521L93.9242 94.7115C93.8808 94.6537 93.8639 94.5803 93.8748 94.508L103.193 36.0834C103.21 35.975 103.29 35.8883 103.396 35.863C103.504 35.8377 103.614 35.8774 103.678 35.9665L106.716 40.1071C106.759 40.1649 106.776 40.2384 106.765 40.3107L97.4469 98.7353C97.43 98.8437 97.3494 98.9304 97.2434 98.9557C97.2217 98.9605 97.2 98.9629 97.1795 98.9629ZM94.4276 94.4815L97.0133 98.0079L106.211 40.336L103.625 36.8096L94.4276 94.4815Z" fill="#F9FAFB"/>
<path d="M43.8108 70.3955L28.0313 83.5869C27.9939 83.6182 27.9554 83.6459 27.9169 83.6748C27.8988 83.688 27.8819 83.7013 27.8639 83.7145C27.8326 83.7362 27.8 83.7555 27.7687 83.7759C27.7458 83.7904 27.723 83.806 27.7001 83.8193C27.6832 83.8289 27.6651 83.8374 27.6483 83.847C27.6061 83.8699 27.5628 83.8928 27.5194 83.912C27.5038 83.9193 27.4881 83.9253 27.4724 83.9313C27.4146 83.9566 27.3568 83.9783 27.299 83.9975C27.2725 84.0072 27.2448 84.0156 27.2171 84.024C27.1954 84.0301 27.1726 84.0373 27.1509 84.0421C27.116 84.0505 27.081 84.059 27.0461 84.0662C27.0244 84.071 27.0027 84.0746 26.9823 84.0782C26.9437 84.0843 26.9064 84.0891 26.8679 84.0939C26.8498 84.0963 26.8317 84.0987 26.8137 84.0999C26.7583 84.1047 26.7017 84.1071 26.6463 84.1071C26.1741 84.1071 25.7309 83.9337 25.4262 83.5869L24.8638 82.9461C24.8361 82.9148 24.8108 82.8823 24.7855 82.8486L27.8229 86.9892C27.847 87.0229 27.8735 87.0554 27.9012 87.0867L28.4636 87.7274C28.7683 88.0743 29.2115 88.2477 29.6837 88.2477C29.7391 88.2477 29.7945 88.2453 29.8511 88.2405C29.8691 88.2393 29.8872 88.2357 29.9053 88.2345C29.9438 88.2297 29.9811 88.2248 30.0197 88.2188C30.0413 88.2152 30.063 88.2104 30.0835 88.2068C30.1184 88.1995 30.1534 88.1923 30.1883 88.1827C30.2112 88.1767 30.2328 88.1706 30.2545 88.1646C30.2702 88.1598 30.287 88.1562 30.3027 88.1514C30.3135 88.1478 30.3244 88.1429 30.3364 88.1381C30.3954 88.1189 30.4532 88.096 30.5098 88.0719C30.5207 88.0671 30.5327 88.0635 30.5448 88.0586C30.5496 88.0562 30.5532 88.0538 30.558 88.0526C30.6014 88.0321 30.6435 88.0105 30.6869 87.9876C30.7025 87.9792 30.7182 87.9731 30.7339 87.9635C30.7363 87.9623 30.7375 87.9611 30.7387 87.9599C30.7616 87.9466 30.7844 87.931 30.8073 87.9165C30.8362 87.8985 30.8663 87.8816 30.8952 87.8611C30.8976 87.8599 30.9001 87.8575 30.9025 87.8551C30.9205 87.8431 30.9374 87.8286 30.9555 87.8154C30.9844 87.7937 31.0145 87.7732 31.0422 87.7503C31.0518 87.7431 31.0602 87.7359 31.0699 87.7274L46.8494 74.5361L43.8108 70.3955Z" fill="#667185"/>
<path d="M29.6825 88.5183C29.1116 88.5183 28.6058 88.3003 28.2589 87.9052L27.6965 87.2645C27.664 87.2272 27.6327 87.1886 27.6037 87.1489L24.5676 83.0107C24.5676 83.0095 24.5664 83.0095 24.5664 83.0083C24.4784 82.8879 24.5037 82.7181 24.6242 82.6301C24.7446 82.5422 24.9144 82.5675 25.0023 82.688L25.0035 82.6904C25.0228 82.7169 25.0433 82.7421 25.065 82.7674L25.6274 83.4082C25.8695 83.684 26.2308 83.8357 26.6439 83.8357C26.692 83.8357 26.739 83.8333 26.7872 83.8285L26.8354 83.8225C26.8679 83.8188 26.9004 83.8152 26.9341 83.8092C26.9474 83.8068 26.9618 83.8044 26.9751 83.8008L26.9907 83.7972C27.0208 83.7911 27.0522 83.7839 27.0823 83.7767C27.1015 83.7719 27.122 83.7659 27.1413 83.761C27.1654 83.7538 27.1882 83.7466 27.2123 83.7382C27.2629 83.7213 27.3135 83.702 27.3641 83.6803L27.405 83.6635C27.4436 83.6454 27.4809 83.6261 27.5182 83.6057L27.564 83.5816C27.5736 83.5756 27.5845 83.5695 27.5941 83.5623L27.6447 83.5298C27.6664 83.5166 27.6869 83.5033 27.7085 83.4888C27.7158 83.484 27.723 83.478 27.7302 83.472L27.7651 83.4455C27.7952 83.4226 27.8266 83.4009 27.8555 83.3756L43.635 70.1843C43.6928 70.1361 43.7662 70.1144 43.8409 70.1229C43.9156 70.1313 43.9818 70.1711 44.0264 70.2313L47.0638 74.3719C47.1481 74.4875 47.1288 74.6489 47.0192 74.7404L31.2108 87.9606C31.1855 87.9811 31.1602 88.0004 31.1337 88.0184L31.0988 88.0437C31.0843 88.0546 31.0699 88.0654 31.0554 88.0763C31.0229 88.0991 30.9976 88.1148 30.9723 88.1305L30.9278 88.1581C30.9109 88.169 30.8941 88.1798 30.8772 88.1895C30.8724 88.1931 30.8676 88.1955 30.8627 88.1979C30.8519 88.2039 30.8375 88.2111 30.8242 88.2172L30.8134 88.222C30.7652 88.2473 30.7182 88.2726 30.6688 88.2954C30.67 88.2954 30.6616 88.2991 30.6544 88.3027C30.6423 88.3075 30.6291 88.3135 30.6159 88.3183C30.5508 88.346 30.4858 88.3713 30.4207 88.393C30.4099 88.3978 30.3955 88.4026 30.3822 88.4075C30.3702 88.4111 30.3557 88.4147 30.3425 88.4183L30.3292 88.4219C30.3039 88.4291 30.2786 88.4364 30.2533 88.4424C30.2136 88.452 30.1751 88.4617 30.1353 88.4689L30.1221 88.4713C30.1016 88.4749 30.0823 88.4797 30.0618 88.4833C30.0185 88.4906 29.9751 88.4966 29.933 88.5014L29.9173 88.5038C29.9017 88.5062 29.8872 88.5074 29.8716 88.5086C29.8041 88.5158 29.7427 88.5183 29.6825 88.5183ZM26.2115 84.3343L28.0421 86.8297C28.0614 86.8562 28.0831 86.8827 28.1048 86.908L28.6672 87.5487C28.937 87.8571 29.3609 88.01 29.827 87.9703L29.874 87.9642C29.9065 87.9606 29.9402 87.957 29.9727 87.951C29.986 87.9486 30.0004 87.9462 30.0137 87.9426L30.0281 87.9402C30.0594 87.9341 30.0895 87.9269 30.1197 87.9197C30.1389 87.9149 30.1582 87.9088 30.1787 87.904L30.2196 87.8932C30.2268 87.8896 30.2389 87.8848 30.2497 87.8811C30.3003 87.8643 30.3521 87.845 30.4027 87.8221C30.4123 87.8173 30.4232 87.8137 30.434 87.8101L30.4424 87.8065C30.4822 87.7884 30.5195 87.7679 30.558 87.7475C30.5677 87.7414 30.5785 87.7366 30.5882 87.7318L30.5966 87.727C30.599 87.7246 30.6026 87.7234 30.605 87.7222C30.6134 87.7174 30.6243 87.7101 30.6351 87.7041L30.6917 87.6692C30.7086 87.6595 30.7254 87.6487 30.7411 87.6379C30.7556 87.627 30.7628 87.6222 30.77 87.6162L30.8158 87.5813C30.8338 87.568 30.8519 87.5548 30.87 87.5403L30.8941 87.521L46.4797 74.4923L43.7638 70.7889L28.2047 83.7948C28.1662 83.8261 28.1276 83.8562 28.0879 83.8851L28.0614 83.9056C28.047 83.9164 28.0337 83.9272 28.0193 83.9369C27.9903 83.9561 27.9614 83.9742 27.9325 83.9923L27.8904 84.0188C27.8723 84.0308 27.8543 84.0417 27.8362 84.0525C27.8217 84.0609 27.8073 84.0682 27.7928 84.0754L27.7772 84.0838C27.7302 84.1091 27.682 84.1344 27.6339 84.1573C27.6206 84.1633 27.6074 84.1693 27.5929 84.1741L27.5797 84.1802C27.5158 84.2079 27.4508 84.2331 27.3846 84.2548C27.3544 84.2657 27.3231 84.2753 27.293 84.2837C27.2677 84.291 27.2424 84.2982 27.2172 84.3042C27.1786 84.3138 27.1389 84.3235 27.0991 84.3307L27.0859 84.3331C27.0666 84.3367 27.0461 84.3415 27.0269 84.3439C26.9835 84.3512 26.9414 84.3572 26.898 84.362L26.8811 84.3644C26.8667 84.3668 26.851 84.368 26.8354 84.3692C26.7679 84.3753 26.7053 84.3777 26.6451 84.3777C26.4957 84.3777 26.35 84.3632 26.2115 84.3343Z" fill="#F9FAFB"/>
<path d="M66.973 55.8557C66.8983 55.3752 66.7923 54.8994 66.655 54.4346C66.2275 52.9725 65.4952 51.6055 64.4486 50.4096C62.2025 47.8503 58.9279 46.5713 55.4497 46.5713C53.377 46.5713 51.2344 47.0241 49.193 47.9334C47.8032 48.5513 46.4615 49.3774 45.2211 50.4144C39.7424 54.9934 38.1081 62.1232 41.0455 67.2417L25.2636 80.4355C24.435 81.1268 24.2568 82.2504 24.8638 82.9453L25.4262 83.5861C25.7297 83.9329 26.1753 84.1075 26.645 84.1075C27.1171 84.1075 27.6169 83.9329 28.03 83.5861L43.8108 70.3959C44.3262 70.7873 44.873 71.1342 45.4451 71.4305C47.1986 72.3373 49.2003 72.7926 51.273 72.7926C54.0598 72.7926 56.9756 71.9736 59.5975 70.3309C60.2502 69.9238 60.8825 69.4649 61.5473 68.9097C63.5357 67.2321 65.0123 65.2196 65.942 63.0915C66.1456 62.6254 66.3262 62.1485 66.4768 61.6703C67.0946 59.7361 67.2668 57.7429 66.973 55.8557ZM58.752 65.8302C56.7203 67.5295 54.2778 68.3774 51.9703 68.3774C49.6639 68.3774 47.4925 67.5283 46.0039 65.8302C43.0231 62.4339 43.9011 56.93 47.9634 53.5361C49.9951 51.8367 52.4376 50.9889 54.7451 50.9889C57.0515 50.9889 59.2229 51.838 60.7115 53.5361C60.7549 53.5855 60.7958 53.6336 60.8344 53.683C61.0283 53.9167 61.2065 54.1612 61.3655 54.4105C61.6533 54.8633 61.881 55.339 62.0568 55.8376C62.1471 56.0905 62.2218 56.3495 62.2808 56.612C62.606 58.0175 62.5241 59.5302 62.0568 60.9971C61.9845 61.2259 61.9014 61.456 61.8099 61.6824C61.6136 62.1689 61.3751 62.6471 61.0945 63.1108C60.9596 63.3336 60.8163 63.554 60.6609 63.7707C60.1382 64.5114 59.4987 65.2075 58.752 65.8302Z" fill="#98A2B3"/>
<path d="M26.6451 84.379C26.0742 84.379 25.5684 84.161 25.2227 83.7648L24.6603 83.1241C24.3495 82.7676 24.2002 82.2991 24.2387 81.8053C24.2857 81.2151 24.5952 80.6395 25.0902 80.2276L40.6999 67.1783C39.3257 64.6612 38.9753 61.6118 39.7148 58.5624C40.4795 55.4106 42.374 52.443 45.0489 50.2065C46.2821 49.1756 47.6406 48.3277 49.0847 47.6858C51.12 46.7801 53.3216 46.3008 55.4521 46.3008C59.1615 46.3008 62.4302 47.6966 64.6546 50.2318C65.7072 51.4338 66.4684 52.8224 66.9176 54.3591C67.0561 54.8301 67.1657 55.319 67.2428 55.814C67.5415 57.7277 67.3656 59.7824 66.737 61.7539C66.5864 62.232 66.4034 62.7186 66.1926 63.2003C65.2195 65.4272 63.6731 67.4722 61.7232 69.1174C61.0632 69.669 60.4153 70.1411 59.742 70.5602C57.1286 72.1969 54.2008 73.0628 51.2742 73.0628C49.1413 73.0628 47.083 72.5811 45.3223 71.6706C44.8044 71.4032 44.301 71.0901 43.8216 70.7408L28.2035 83.7949C27.7543 84.1706 27.2015 84.379 26.6451 84.379ZM55.4509 46.8427C53.3963 46.8427 51.2706 47.3052 49.3039 48.1808C47.9056 48.8022 46.5904 49.6236 45.3957 50.622C40.0797 55.0649 38.349 61.9984 41.2816 67.1061C41.3467 67.2205 41.3214 67.365 41.2202 67.4493L25.4371 80.6431C25.0541 80.9634 24.8132 81.4018 24.7783 81.8474C24.7506 82.1955 24.853 82.5219 25.0673 82.7664L25.6298 83.4071C25.8719 83.6841 26.232 83.8358 26.6451 83.8358C27.0738 83.8358 27.505 83.6732 27.8566 83.3782L43.6374 70.188C43.7349 70.1073 43.8746 70.1037 43.9758 70.1808C44.4804 70.565 45.0163 70.9046 45.5704 71.1901C47.254 72.0608 49.2268 72.5221 51.2742 72.5221C54.0984 72.5221 56.9275 71.6851 59.4542 70.1025C60.1058 69.6955 60.7344 69.2378 61.3739 68.7031C63.26 67.1133 64.7534 65.1357 65.694 62.9848C65.8975 62.5199 66.0734 62.0514 66.2191 61.5913C66.8225 59.6981 66.9911 57.7301 66.7056 55.8983C66.6322 55.4274 66.5286 54.9613 66.3961 54.5133C65.9698 53.0524 65.246 51.7324 64.2451 50.5895C62.1255 48.1736 59.0014 46.8427 55.4509 46.8427ZM51.9703 68.6489C49.4833 68.6489 47.2914 67.7119 45.7992 66.0089C44.4672 64.4914 43.8252 62.4825 43.9902 60.3508C44.1926 57.7362 45.5776 55.1757 47.7888 53.3282C49.8025 51.6445 52.2726 50.7172 54.7452 50.7172C57.2322 50.7172 59.4241 51.6542 60.9163 53.3571C60.9621 53.4089 61.0054 53.4607 61.0476 53.5137C61.2427 53.7485 61.4281 54.0027 61.5956 54.264C61.8858 54.7192 62.1279 55.2179 62.3146 55.7454C62.4073 56.0055 62.4856 56.2765 62.547 56.5511C62.8806 57.9903 62.8011 59.556 62.317 61.0783C62.2411 61.3167 62.1556 61.554 62.0628 61.784C61.8617 62.2838 61.6148 62.7764 61.3282 63.2509C61.1825 63.4906 61.0379 63.7122 60.8838 63.929C60.3346 64.7034 59.6758 65.4128 58.9267 66.039C56.913 67.7215 54.4429 68.6489 51.9703 68.6489ZM54.7452 51.2591C52.4003 51.2591 50.053 52.1419 48.1368 53.7437C46.0364 55.4985 44.7213 57.9228 44.531 60.393C44.3768 62.3778 44.973 64.2445 46.2075 65.6512C47.5949 67.2349 49.6423 68.1069 51.9703 68.1069C54.3152 68.1069 56.6625 67.2241 58.5786 65.6223C59.2928 65.0262 59.9191 64.3505 60.4418 63.6146C60.5875 63.4087 60.726 63.1991 60.8645 62.9703C61.1355 62.5211 61.3691 62.0538 61.5606 61.5805C61.6485 61.3637 61.7292 61.1397 61.8003 60.9145C62.2543 59.4849 62.3302 58.018 62.0183 56.6715C61.9617 56.4174 61.8894 56.1669 61.8039 55.9272C61.6305 55.437 61.4065 54.9758 61.1391 54.5555C60.9849 54.3134 60.8127 54.0773 60.6285 53.8557C60.5887 53.8063 60.5502 53.7606 60.5104 53.7148C59.1206 52.1311 57.0732 51.2591 54.7452 51.2591Z" fill="#F9FAFB"/>
<path d="M52.3003 57.8863C52.2762 57.8176 52.2461 57.7526 52.2051 57.6911C52.1799 57.649 52.1498 57.6093 52.116 57.5707C51.9125 57.3395 51.6162 57.2227 51.3007 57.2227C51.2754 57.2227 51.2501 57.2239 51.2236 57.2251C50.9309 57.2419 50.6286 57.3575 50.3733 57.5707C50.0506 57.8405 49.8747 58.2078 49.8651 58.5595C49.8579 58.8124 49.9361 59.0569 50.106 59.2508C50.3095 59.482 50.6058 59.5989 50.9213 59.5989C51.2368 59.5989 51.5705 59.4832 51.8475 59.2508C51.9787 59.14 52.0871 59.0147 52.169 58.8786C52.2076 58.816 52.2389 58.751 52.2666 58.6835C52.375 58.4186 52.3882 58.1356 52.3003 57.8863Z" fill="#F7F9FC"/>
<path d="M51.314 55.7512C51.2718 55.6308 51.2152 55.5164 51.1466 55.408C51.0996 55.3345 51.049 55.2647 50.99 55.1972C50.6311 54.7877 50.1072 54.583 49.552 54.583C49.045 54.583 48.5126 54.7528 48.0514 55.0925C48.0068 55.1262 47.9622 55.1599 47.9189 55.196C46.9397 56.0126 46.729 57.3398 47.4468 58.1575C47.4793 58.1937 47.5118 58.2286 47.5467 58.2611C47.8984 58.6008 48.3777 58.7694 48.8848 58.7694C49.21 58.7694 49.5472 58.6995 49.8687 58.5598C50.0964 58.461 50.3156 58.3262 50.5191 58.1575C50.7503 57.9624 50.9406 57.7408 51.0839 57.5024C51.1381 57.412 51.1863 57.3193 51.2261 57.2254C51.2357 57.2025 51.2453 57.1808 51.2538 57.1579C51.444 56.6894 51.4669 56.1908 51.314 55.7512Z" fill="#F7F9FC"/>
<path d="M91.3251 91.3405H45.1368L42.7822 88.1309H88.5069L91.3251 91.3405Z" fill="#D0D5DD"/>
<path d="M91.3252 91.6109H45.138C45.0513 91.6109 44.9706 91.57 44.92 91.5002L42.5643 88.2905C42.5041 88.2086 42.4944 88.099 42.5414 88.0075C42.5872 87.916 42.6811 87.8594 42.7835 87.8594H88.5082C88.5864 87.8594 88.6599 87.8931 88.7117 87.9521L91.5299 91.1617C91.5998 91.2412 91.6166 91.3556 91.5733 91.452C91.5275 91.5495 91.4311 91.6109 91.3252 91.6109ZM45.2741 91.069H90.7254L88.3829 88.4013H43.3158L45.2741 91.069Z" fill="#F9FAFB"/>
<path d="M85.6311 54.4346C86.0393 54.4346 86.3175 54.7525 86.2549 55.1463C86.1923 55.5378 85.8117 55.8557 85.4046 55.8557H66.9731C66.8984 55.3752 66.7925 54.8982 66.6564 54.4346H85.6311Z" fill="#D0D5DD"/>
<path d="M85.4046 56.1272H66.9731C66.8394 56.1272 66.7262 56.0296 66.7057 55.8971C66.6334 55.4286 66.5299 54.9625 66.3962 54.5109C66.3721 54.429 66.3878 54.3399 66.4395 54.2725C66.4901 54.2038 66.5708 54.1641 66.6563 54.1641H85.6322C85.9092 54.1641 86.1645 54.2773 86.3319 54.4736C86.4981 54.6687 86.5668 54.9228 86.5234 55.189C86.4391 55.7153 85.9477 56.1272 85.4046 56.1272ZM67.2031 55.5852H85.4046C85.6792 55.5852 85.9465 55.3648 85.9875 55.1035C86.0043 54.9963 85.9803 54.8975 85.9188 54.8253C85.8538 54.7482 85.7514 54.706 85.631 54.706H67.0116C67.0875 54.9963 67.1513 55.2901 67.2031 55.5852Z" fill="#D0D5DD"/>
<path d="M86.786 47.1982C87.1942 47.1982 87.4724 47.5162 87.4098 47.91C87.3472 48.3014 86.9666 48.6194 86.5595 48.6194H67.1826C66.7755 48.6194 66.4973 48.3014 66.5599 47.91C66.6226 47.5174 67.0019 47.1982 67.409 47.1982H86.786Z" fill="#D0D5DD"/>
<path d="M86.5596 48.8896H67.1826C66.9056 48.8896 66.6515 48.7776 66.4841 48.5813C66.3179 48.3862 66.2505 48.1333 66.2926 47.8671C66.3769 47.3408 66.8671 46.9277 67.4091 46.9277H86.786C87.063 46.9277 87.3183 47.0409 87.4857 47.2373C87.6519 47.4324 87.7206 47.6865 87.6772 47.9526C87.5941 48.4777 87.1027 48.8896 86.5596 48.8896ZM67.4091 47.4685C67.1357 47.4685 66.8695 47.6901 66.8274 47.9514C66.8105 48.0586 66.8346 48.1574 66.896 48.2296C66.9611 48.3055 67.0622 48.3477 67.1826 48.3477H86.5596C86.8342 48.3477 87.1015 48.1273 87.1425 47.8659C87.1594 47.7587 87.1353 47.66 87.0738 47.5877C87.0088 47.5106 86.9064 47.4685 86.786 47.4685H67.4091Z" fill="#D0D5DD"/>
<path d="M82.1684 76.1484C82.5767 76.1484 82.8549 76.4664 82.7923 76.8578C82.7297 77.2504 82.3491 77.5696 81.9408 77.5696H53.3577C52.9519 77.5696 52.6725 77.2516 52.7351 76.8578C52.7977 76.4664 53.1783 76.1484 53.5842 76.1484H82.1684Z" fill="#D0D5DD"/>
<path d="M81.9419 77.8401H53.3577C53.0819 77.8401 52.8278 77.7281 52.6604 77.5317C52.4942 77.3366 52.4255 77.0825 52.4689 76.8151C52.5532 76.2888 53.0434 75.877 53.5853 75.877H82.1684C82.4454 75.877 82.7007 75.9902 82.8681 76.1865C83.0343 76.3816 83.1017 76.6345 83.0596 76.9007C82.9765 77.427 82.4851 77.8401 81.9419 77.8401ZM53.5841 76.4189C53.3107 76.4189 53.0446 76.6393 53.0024 76.9007C52.9855 77.0078 53.0096 77.1078 53.0711 77.1801C53.1361 77.2571 53.2373 77.2993 53.3565 77.2993H81.9407C82.2153 77.2993 82.4827 77.0777 82.5236 76.8164C82.5405 76.7104 82.5164 76.6116 82.455 76.5394C82.39 76.4623 82.2876 76.4201 82.1672 76.4201H53.5841V76.4189Z" fill="#D0D5DD"/>
<path d="M70.0104 59.9971C69.9887 59.8586 69.9646 59.7201 69.9382 59.5828C69.9357 59.5696 69.9333 59.5563 69.9309 59.5431C69.9261 59.5178 69.9189 59.4925 69.9141 59.466C69.8912 59.354 69.8659 59.242 69.8394 59.1312C69.8298 59.0902 69.8201 59.0481 69.8093 59.0071C69.7732 58.8626 69.7346 58.7193 69.6937 58.5772C69.6371 58.3833 69.572 58.1918 69.5046 58.0015C69.4962 57.9774 69.4901 57.9533 69.4805 57.9292C69.4721 57.9039 69.46 57.8799 69.4516 57.8558C69.3878 57.6823 69.3203 57.5113 69.2468 57.3415C69.2408 57.3259 69.2348 57.3114 69.2276 57.2957C69.1481 57.1139 69.0614 56.9344 68.9723 56.7562C68.9614 56.7357 68.953 56.7152 68.9434 56.6948C68.9289 56.6659 68.9108 56.637 68.8964 56.6081C68.835 56.4912 68.7711 56.3768 68.7061 56.2612C68.6784 56.2142 68.6531 56.1661 68.6242 56.1191C68.5315 55.9625 68.4351 55.8072 68.3327 55.6542C68.3327 55.653 68.3315 55.653 68.3315 55.6518C68.246 55.5241 68.1581 55.3977 68.0666 55.2724L65.0292 51.1318C65.1219 51.2571 65.2098 51.3848 65.2966 51.5136C65.3989 51.6666 65.4953 51.8219 65.588 51.9785C65.6157 52.0255 65.6422 52.0736 65.6699 52.1206C65.7349 52.235 65.7988 52.3506 65.8602 52.4663C65.8867 52.5156 65.912 52.565 65.9373 52.6144C66.0276 52.7926 66.1131 52.9721 66.1926 53.154C66.1986 53.1684 66.2046 53.1841 66.2107 53.1997C66.2841 53.3695 66.3516 53.5406 66.4154 53.714C66.4335 53.7622 66.4515 53.8115 66.4684 53.8597C66.5358 54.05 66.5997 54.2415 66.6563 54.4354C66.6984 54.5775 66.7358 54.7208 66.7719 54.8653C66.7827 54.9075 66.7924 54.9485 66.802 54.9906C66.8285 55.1014 66.8526 55.2122 66.8755 55.3242C66.8839 55.364 66.8923 55.4025 66.8996 55.4422C66.9261 55.5795 66.9513 55.718 66.9718 55.8565C67.2657 57.7438 67.0935 59.7358 66.4768 61.6736C66.3263 62.1517 66.1456 62.6262 65.9409 63.0947C65.8987 63.1911 65.8542 63.2862 65.8108 63.3814C65.7759 63.456 65.741 63.5307 65.7048 63.6054C65.6747 63.6668 65.6446 63.7294 65.6145 63.7909C65.5772 63.8655 65.5386 63.939 65.5001 64.0137C65.4688 64.0751 65.4363 64.1353 65.4037 64.1955C65.364 64.2702 65.323 64.3437 65.2809 64.4183C65.2472 64.4785 65.2135 64.5376 65.1797 64.5978C65.1364 64.6712 65.093 64.7459 65.0485 64.8194C65.0159 64.8736 64.9846 64.9266 64.9509 64.9808C64.8353 65.1674 64.7161 65.3529 64.592 65.536C64.5679 65.5721 64.5426 65.6082 64.5173 65.6456C64.3897 65.8322 64.2572 66.0165 64.1199 66.1996C64.103 66.2212 64.0862 66.2429 64.0705 66.2634C63.9609 66.4067 63.8489 66.5488 63.7345 66.6897C63.7032 66.7283 63.6719 66.7668 63.6394 66.8066C63.5093 66.9631 63.3756 67.1197 63.2383 67.2727C63.2166 67.2967 63.1949 67.3196 63.1733 67.3437C63.0613 67.4678 62.9469 67.5894 62.83 67.711C62.7915 67.752 62.7517 67.7917 62.712 67.8315C62.5892 67.9567 62.4627 68.082 62.335 68.2036C62.317 68.2217 62.2989 68.2398 62.2808 68.2566C62.2038 68.3289 62.1255 68.3999 62.0472 68.4722C62.005 68.5107 61.9629 68.5505 61.9195 68.589C61.7967 68.6986 61.6726 68.8058 61.5462 68.913C61.3884 69.0455 61.2318 69.1707 61.0765 69.2924C61.0656 69.3008 61.0548 69.3092 61.044 69.3177C60.8982 69.4309 60.7537 69.5393 60.6092 69.6452C60.5851 69.6633 60.5598 69.6814 60.5357 69.6994C60.4057 69.7934 60.2756 69.8849 60.1455 69.9728C59.9637 70.0969 59.7806 70.2173 59.5975 70.3329C59.4169 70.4461 59.235 70.5545 59.0508 70.6593C59.0026 70.687 58.9544 70.7123 58.9062 70.74C58.7448 70.8303 58.5835 70.9182 58.4209 71.0026C58.3594 71.0339 58.298 71.0664 58.2366 71.0977C58.0584 71.188 57.8789 71.2735 57.6983 71.3566C57.6657 71.3711 57.6344 71.3867 57.6019 71.4012C57.5598 71.4205 57.5164 71.4385 57.4742 71.4566C57.3562 71.5084 57.2382 71.5602 57.119 71.6083C57.0599 71.6324 57.0009 71.6553 56.9419 71.6794C56.8383 71.7203 56.7336 71.7613 56.63 71.801C56.5674 71.8251 56.5035 71.848 56.4409 71.8709C56.3385 71.9082 56.2362 71.9432 56.1338 71.9781C56.0712 71.9998 56.0085 72.0202 55.9447 72.0407C55.8604 72.0684 55.7749 72.0937 55.6906 72.1202C55.587 72.1515 55.4822 72.1828 55.3787 72.2129C55.298 72.2358 55.2173 72.2575 55.1354 72.2792C55.0318 72.3069 54.9294 72.3334 54.8259 72.3587C54.744 72.3791 54.6621 72.3984 54.5814 72.4165C54.4778 72.4406 54.3742 72.4622 54.2706 72.4839C54.19 72.5008 54.1081 72.5176 54.0274 72.5321C53.9226 72.5514 53.8178 72.5706 53.713 72.5875C53.6335 72.6007 53.5529 72.614 53.4734 72.626C53.3662 72.6417 53.259 72.6561 53.153 72.6706C53.0759 72.6802 52.9976 72.6911 52.9206 72.7007C52.8086 72.7139 52.6978 72.7236 52.587 72.7332C52.5147 72.7392 52.4412 72.7477 52.369 72.7525C52.2461 72.7621 52.1245 72.7681 52.0028 72.7742C51.9414 72.7778 51.8812 72.7814 51.8198 72.7838C51.6367 72.791 51.4549 72.7946 51.273 72.7946C49.2003 72.7946 47.1999 72.3406 45.4451 71.4325C44.8718 71.1362 44.3251 70.7906 43.8108 70.3968L46.8482 74.5373C47.3624 74.9312 47.9092 75.2756 48.4825 75.5731C50.236 76.4812 52.2377 76.9352 54.3092 76.9352C54.491 76.9352 54.6729 76.9316 54.856 76.9244C54.9174 76.922 54.9776 76.9172 55.039 76.9148C55.1607 76.9087 55.2835 76.9027 55.4052 76.8931C55.4774 76.8871 55.5497 76.8798 55.6219 76.8738C55.7339 76.8642 55.8447 76.8533 55.9568 76.8413C56.0338 76.8329 56.1109 76.822 56.188 76.8124C56.2952 76.7979 56.4024 76.7847 56.5096 76.7678C56.589 76.7558 56.6697 76.7425 56.7492 76.7293C56.854 76.7112 56.9588 76.6932 57.0636 76.6739C57.1442 76.6582 57.2261 76.6426 57.3068 76.6257C57.4104 76.604 57.514 76.5823 57.6176 76.5583C57.6995 76.5402 57.7802 76.5209 57.8608 76.5005C57.9644 76.4752 58.068 76.4487 58.1716 76.421C58.2523 76.3993 58.333 76.3776 58.4136 76.3547C58.5184 76.3246 58.622 76.2933 58.7268 76.262C58.7786 76.2463 58.8316 76.2319 58.8833 76.2162C58.9159 76.2054 58.9484 76.1945 58.9809 76.1837C59.0435 76.1632 59.1061 76.1416 59.17 76.1211C59.2724 76.0862 59.3747 76.0512 59.4771 76.0139C59.5397 75.991 59.6035 75.9681 59.6662 75.944C59.771 75.9055 59.8745 75.8646 59.9781 75.8224C60.0371 75.7983 60.0961 75.7754 60.1551 75.7513C60.2744 75.702 60.3924 75.6514 60.5104 75.5996C60.5526 75.5803 60.5959 75.5635 60.6381 75.5442C60.6453 75.5406 60.6538 75.537 60.661 75.5346C60.6851 75.5237 60.7092 75.5105 60.7332 75.4996C60.9139 75.4165 61.0933 75.331 61.2716 75.2407C61.333 75.2094 61.3944 75.1781 61.4559 75.1455C61.6184 75.0612 61.781 74.9733 61.9412 74.883C61.9761 74.8637 62.0111 74.8469 62.0448 74.8264C62.058 74.8192 62.0725 74.8095 62.0857 74.8023C62.2688 74.6975 62.4519 74.5891 62.6325 74.4759C62.8168 74.3603 62.9986 74.2399 63.1805 74.1158C63.1974 74.105 63.213 74.0941 63.2299 74.0833C63.3431 74.005 63.4575 73.9243 63.5707 73.8424C63.5948 73.8244 63.6201 73.8063 63.6442 73.7882C63.7887 73.6823 63.9332 73.5739 64.0777 73.4607C64.0886 73.4522 64.0994 73.4438 64.1103 73.4354C64.1873 73.3751 64.2656 73.3137 64.3427 73.2499C64.421 73.1861 64.5005 73.121 64.5788 73.0548C64.7052 72.9476 64.8293 72.8404 64.9521 72.7308C64.9955 72.6923 65.0364 72.6537 65.0786 72.6152C65.1568 72.5429 65.2363 72.4719 65.3134 72.3984C65.317 72.3948 65.3218 72.3912 65.3255 72.3876C65.3399 72.3743 65.3532 72.3599 65.3664 72.3466C65.4953 72.2238 65.6205 72.0985 65.7446 71.9733C65.7843 71.9335 65.8229 71.8926 65.8614 71.8528C65.9782 71.7312 66.0926 71.6095 66.2046 71.4855C66.2215 71.4674 66.2396 71.4494 66.2552 71.4313C66.26 71.4265 66.2637 71.4205 66.2685 71.4156C66.4058 71.2615 66.5395 71.1061 66.6695 70.9496C66.702 70.911 66.7334 70.8725 66.7647 70.8339C66.8791 70.693 66.9923 70.5509 67.1007 70.4076C67.1127 70.3907 67.1272 70.3751 67.1392 70.3582C67.1428 70.3534 67.1465 70.3486 67.1501 70.3438C67.2874 70.1607 67.4198 69.9764 67.5475 69.7898C67.5728 69.7536 67.5969 69.7175 67.6222 69.6814C67.7462 69.4971 67.8667 69.3116 67.9823 69.125C67.9895 69.1129 67.9979 69.1021 68.0052 69.09C68.0304 69.0479 68.0545 69.0057 68.0798 68.9636C68.1244 68.8901 68.1677 68.8166 68.2111 68.742C68.246 68.6818 68.2785 68.6215 68.3123 68.5625C68.3532 68.4891 68.3942 68.4156 68.4339 68.3409C68.4664 68.2807 68.4989 68.2193 68.5303 68.1579C68.5688 68.0844 68.6073 68.0097 68.6435 67.9351C68.6748 67.8736 68.7049 67.8122 68.735 67.7496C68.7711 67.6749 68.8061 67.6002 68.841 67.5256C68.8554 67.4931 68.8723 67.4617 68.8867 67.4292C68.9157 67.3654 68.9434 67.3028 68.9711 67.2389C69.177 66.7704 69.3565 66.2959 69.507 65.8178C70.1321 63.8776 70.3043 61.8856 70.0104 59.9971Z" fill="#D0D5DD"/>
<path d="M54.3093 77.2053C52.1751 77.2053 50.1181 76.7235 48.3573 75.8118C47.766 75.5059 47.2035 75.1494 46.6821 74.7508C46.6616 74.7351 46.6435 74.7171 46.6279 74.6954L43.5905 70.5548C43.511 70.4464 43.523 70.2959 43.6194 70.2007C43.7157 70.1068 43.8663 70.0971 43.9735 70.179C44.4684 70.5584 45.0044 70.898 45.568 71.1895C47.2517 72.0614 49.2233 72.5215 51.2707 72.5215C51.4405 72.5215 51.6211 72.5179 51.8066 72.5107C51.8415 72.5095 51.8753 72.5071 51.9102 72.5046L51.9861 72.4998C52.1065 72.4938 52.2257 72.4878 52.3462 72.4781C52.3931 72.4745 52.4401 72.4697 52.4859 72.4661L52.5593 72.4589C52.6713 72.4492 52.7797 72.4384 52.8869 72.4264C52.9435 72.4203 53.0001 72.4119 53.0567 72.4047L53.1157 72.3975C53.2205 72.3842 53.3253 72.3698 53.4313 72.3541C53.5011 72.3433 53.5722 72.3312 53.642 72.3192L53.6661 72.3156C53.7685 72.2987 53.8721 72.2806 53.9744 72.2614C54.0539 72.2457 54.1334 72.23 54.2141 72.2132C54.3153 72.1927 54.4177 72.1698 54.5188 72.1469C54.5995 72.1289 54.679 72.1096 54.7597 72.0903C54.8609 72.0651 54.9632 72.0398 55.0644 72.0121C55.1439 71.9904 55.2234 71.9699 55.3029 71.947C55.4052 71.9181 55.5076 71.8868 55.61 71.8555L55.6437 71.8447C55.716 71.823 55.7882 71.8001 55.8593 71.7772C55.9219 71.7567 55.9833 71.7363 56.0447 71.7158C56.1459 71.6821 56.2459 71.6471 56.347 71.6098C56.4085 71.5869 56.4711 71.5652 56.5325 71.5412C56.6349 71.5026 56.7372 71.4629 56.8396 71.4219L56.8866 71.4039C56.9287 71.387 56.9721 71.3701 57.0143 71.3533C57.1311 71.3051 57.2467 71.2545 57.3635 71.2039L57.4189 71.1799C57.4418 71.1702 57.4659 71.1594 57.4888 71.1497L57.5827 71.1052C57.7561 71.0257 57.9344 70.9402 58.1114 70.8511C58.1716 70.8209 58.2331 70.7896 58.2933 70.7583C58.4523 70.6764 58.6124 70.5897 58.7714 70.5006L58.8304 70.4681C58.8581 70.4524 58.8858 70.438 58.9135 70.4223C59.111 70.3091 59.2869 70.2043 59.4507 70.1007C59.6181 69.996 59.7939 69.8803 59.9902 69.7467C60.1179 69.6587 60.2468 69.5696 60.3744 69.4769L60.4467 69.4239C60.6032 69.3095 60.7429 69.2035 60.8742 69.1011L60.9067 69.0746C61.0693 68.947 61.2211 68.8241 61.368 68.7013C61.4921 68.5965 61.6137 68.4905 61.7341 68.3833C61.7594 68.3604 61.7835 68.3376 61.8088 68.3147L61.8907 68.24C61.9569 68.1798 62.0244 68.1184 62.0894 68.057L62.1436 68.0052C62.2653 67.8883 62.3869 67.7691 62.5158 67.6378C62.5543 67.5981 62.5928 67.5583 62.6314 67.5186C62.7458 67.3994 62.859 67.2789 62.9686 67.1573L63.0324 67.0886C63.1601 66.9465 63.289 66.796 63.4275 66.6298L63.5214 66.5154C63.6406 66.3696 63.749 66.2323 63.8514 66.0962L63.9008 66.0336C64.026 65.8674 64.1537 65.6892 64.291 65.4893L64.3645 65.3821C64.4897 65.1978 64.6077 65.0135 64.7173 64.8365C64.745 64.7907 64.7727 64.745 64.8004 64.6992L64.8125 64.6787C64.8558 64.6065 64.8992 64.5342 64.9413 64.4607C64.9714 64.4089 65.0004 64.3572 65.0293 64.3054L65.0413 64.2837C65.0823 64.2114 65.122 64.138 65.1617 64.0657C65.1943 64.0067 65.2256 63.9465 65.2569 63.8863C65.2942 63.814 65.3316 63.7405 65.3689 63.6683C65.399 63.608 65.4291 63.5478 65.458 63.4864C65.4929 63.4129 65.5279 63.3407 65.5616 63.2672L65.5724 63.2419C65.6122 63.1564 65.6519 63.0709 65.6892 62.9854C65.8928 62.5205 66.071 62.052 66.2156 61.5907C66.8189 59.6975 66.9863 57.7296 66.7009 55.8977C66.6816 55.7725 66.6588 55.64 66.6299 55.4931L66.6058 55.3775C66.5829 55.2679 66.56 55.1595 66.5335 55.0511L66.5034 54.9282C66.4637 54.768 66.4275 54.6344 66.3902 54.5103C66.3408 54.3429 66.283 54.1647 66.2059 53.9479C66.1891 53.9009 66.1722 53.8527 66.1541 53.8058C66.0855 53.6215 66.0204 53.4577 65.9542 53.3048L65.9361 53.2602C65.8663 53.1 65.7856 52.929 65.6868 52.7351C65.6628 52.6869 65.6375 52.6387 65.6122 52.5906C65.552 52.4774 65.4905 52.3654 65.4267 52.2533L65.4014 52.21C65.3833 52.1787 65.3653 52.1462 65.346 52.1148C65.2448 51.945 65.1521 51.7969 65.0618 51.662C64.9775 51.5355 64.8896 51.4103 64.8016 51.2899C64.7137 51.1694 64.739 50.9996 64.8594 50.9117C64.9799 50.8238 65.1497 50.8491 65.2376 50.9695L65.2388 50.9707L68.275 55.1101C68.3677 55.2365 68.4593 55.3678 68.5472 55.4991C68.5484 55.5015 68.5496 55.5039 68.552 55.5063C68.6472 55.6496 68.7435 55.8038 68.8483 55.9784C68.8688 56.0122 68.8868 56.0459 68.9061 56.0784L68.9314 56.123C68.9988 56.241 69.0639 56.359 69.1265 56.4782L69.1433 56.5096C69.1542 56.5288 69.165 56.5481 69.1747 56.5674C69.1819 56.5806 69.1879 56.5951 69.1939 56.6083L69.2036 56.63C69.3059 56.8323 69.3914 57.013 69.4661 57.184L69.4854 57.2298C69.5564 57.396 69.6251 57.5682 69.6962 57.7585L69.7058 57.7838C69.713 57.8006 69.7202 57.8175 69.7263 57.8356C69.7323 57.8512 69.7371 57.8681 69.7419 57.8849L69.7503 57.9102C69.8298 58.133 69.8913 58.3209 69.943 58.4992C69.9816 58.6304 70.0189 58.7701 70.0623 58.9387C70.0707 58.9713 70.0779 59.005 70.0864 59.0375L70.0936 59.0664C70.1213 59.1808 70.1466 59.2952 70.1695 59.4096L70.1767 59.4398C70.1803 59.4554 70.1839 59.4711 70.1875 59.4879L70.1948 59.5301C70.2249 59.6867 70.2489 59.8252 70.2694 59.9552C70.5669 61.8702 70.3935 63.9236 69.7648 65.8951C69.6143 66.372 69.43 66.8598 69.218 67.3428C69.1903 67.4066 69.1614 67.4716 69.1325 67.5355C69.1229 67.5559 69.1144 67.5752 69.1048 67.5945L69.0855 67.6342C69.0506 67.7101 69.0145 67.786 68.9784 67.8606C68.9482 67.9245 68.9169 67.9871 68.8856 68.0497C68.8483 68.1256 68.8097 68.2003 68.77 68.2761C68.7375 68.3388 68.705 68.4002 68.6712 68.4628C68.6303 68.5387 68.5893 68.6134 68.5472 68.688L68.5291 68.7205C68.5014 68.7711 68.4725 68.8217 68.4436 68.8711C68.4003 68.947 68.3557 69.0216 68.3099 69.0963L68.2786 69.1481C68.2642 69.1734 68.2485 69.1987 68.2341 69.224L68.2172 69.2505C68.0968 69.4444 67.9739 69.6347 67.845 69.8249L67.7692 69.9345C67.6259 70.1429 67.4934 70.3272 67.3645 70.4982L67.3139 70.5644C67.2079 70.7029 67.0935 70.8499 66.9719 70.998L66.9598 71.0136C66.9321 71.0474 66.9044 71.0823 66.8755 71.116C66.7322 71.2882 66.5997 71.4436 66.4673 71.5905L66.4528 71.6074C66.4432 71.6182 66.4323 71.6303 66.4215 71.6411L66.401 71.6628C66.2866 71.7881 66.171 71.9121 66.053 72.0349C66.0132 72.0759 65.9735 72.1168 65.9337 72.1578C65.8 72.2939 65.6736 72.4179 65.5495 72.5372L65.5351 72.5516C65.5255 72.5612 65.517 72.5697 65.5074 72.5793C65.5062 72.5805 65.4978 72.5877 65.4965 72.5889C65.4291 72.6528 65.3605 72.7154 65.2918 72.778L65.2087 72.8551C65.1822 72.8792 65.1557 72.9045 65.128 72.9286C65.004 73.0394 64.8775 73.149 64.7486 73.2574C64.668 73.3248 64.5885 73.391 64.509 73.4549C64.4295 73.5187 64.3512 73.5813 64.2729 73.6428L64.2404 73.6693C64.1031 73.7764 63.9586 73.886 63.7996 74.0017L63.7249 74.0571C63.6093 74.1402 63.4937 74.2233 63.3781 74.3028C63.3672 74.31 63.3564 74.3172 63.3456 74.3244L63.3275 74.3365C63.1264 74.4738 62.9433 74.593 62.7699 74.7026C62.5977 74.811 62.4158 74.9194 62.2147 75.035L62.1725 75.0603C62.152 75.0723 62.1304 75.0832 62.1099 75.094C62.0954 75.1012 62.081 75.1085 62.0677 75.1169C61.9027 75.2096 61.7365 75.2988 61.574 75.3831C61.5113 75.4156 61.4487 75.4481 61.3861 75.4794C61.2018 75.5721 61.0175 75.6601 60.8393 75.742L60.8116 75.7552C60.7959 75.7624 60.7803 75.7709 60.7646 75.7769L60.7478 75.7841C60.7152 75.7986 60.6887 75.8106 60.6623 75.8214L60.6117 75.8431C60.4912 75.8961 60.3708 75.9479 60.2504 75.9973C60.2082 76.0154 60.1649 76.0322 60.1215 76.0491L60.0709 76.0695C59.9649 76.1117 59.8589 76.1526 59.753 76.1924C59.6891 76.2165 59.6253 76.2394 59.5615 76.2634C59.4579 76.3008 59.3531 76.3369 59.2495 76.373C59.1833 76.3947 59.1207 76.4164 59.058 76.4369L59.0171 76.4501C58.9978 76.4574 58.9774 76.4634 58.9581 76.4694C58.9268 76.479 58.8955 76.4887 58.8629 76.4971L58.7991 76.5164C58.6931 76.5489 58.5871 76.5802 58.4812 76.6103C58.3993 76.6332 58.3174 76.6561 58.2355 76.6777C58.1295 76.7054 58.0247 76.7332 57.9187 76.7584C57.8368 76.7789 57.7537 76.7982 57.6706 76.8175C57.5646 76.8415 57.4599 76.8644 57.3539 76.8861C57.2708 76.903 57.1889 76.9198 57.1058 76.9355C56.9998 76.956 56.8926 76.974 56.7854 76.9921L56.7577 76.9969C56.6855 77.0089 56.6144 77.021 56.5421 77.0318C56.4325 77.0487 56.3242 77.0631 56.2146 77.0764L56.1555 77.0836C56.0965 77.0908 56.0375 77.0993 55.9797 77.1053C55.8665 77.1185 55.7533 77.1282 55.6401 77.139L55.5678 77.1462C55.5172 77.1511 55.4679 77.1559 55.4173 77.1595C55.292 77.1691 55.168 77.1751 55.0439 77.1812L54.9741 77.1848C54.9355 77.1872 54.897 77.1896 54.8584 77.1908C54.6742 77.2016 54.4863 77.2053 54.3093 77.2053ZM47.0434 74.3437C47.5299 74.7134 48.0562 75.0446 48.6078 75.3301C50.2915 76.202 52.2631 76.6621 54.3105 76.6621C54.4803 76.6621 54.6609 76.6585 54.8464 76.6513C54.8813 76.65 54.9163 76.6476 54.9512 76.6452L55.0259 76.6404C55.1463 76.6344 55.2655 76.6284 55.386 76.6187C55.4329 76.6151 55.4799 76.6103 55.5269 76.6067L55.6003 76.5995C55.7111 76.5898 55.8195 76.579 55.9291 76.5669C55.9845 76.5609 56.0399 76.5537 56.0965 76.5465L56.1567 76.538C56.2615 76.5248 56.3675 76.5103 56.4723 76.4947C56.5409 76.4838 56.6108 76.473 56.6794 76.461L56.7071 76.4561C56.8107 76.4393 56.9131 76.4212 57.0155 76.402C57.0949 76.3863 57.1744 76.3706 57.2551 76.3538C57.3575 76.3333 57.4587 76.3104 57.561 76.2875C57.6405 76.2695 57.7212 76.2502 57.8007 76.2309C57.9031 76.2056 58.0042 76.1791 58.1066 76.1526C58.1861 76.131 58.2656 76.1105 58.3439 76.0876C58.4462 76.0587 58.5486 76.0274 58.651 75.9961L58.7232 75.9744C58.7509 75.966 58.7774 75.9587 58.8039 75.9503L58.9003 75.9178C58.9605 75.8985 59.0219 75.8781 59.0821 75.8576C59.1857 75.8227 59.2869 75.7877 59.3868 75.7516C59.4483 75.7287 59.5109 75.707 59.5723 75.6829C59.6747 75.6444 59.777 75.6047 59.8794 75.5637L59.9312 75.5432C59.9722 75.5276 60.0119 75.5107 60.0528 75.4951C60.1697 75.4469 60.2865 75.3963 60.4021 75.3457L60.4575 75.3216C60.4816 75.312 60.5045 75.3012 60.5274 75.2915L60.5804 75.2674C60.5948 75.2602 60.6081 75.2542 60.6225 75.247C60.7947 75.1675 60.973 75.082 61.1524 74.9928C61.2138 74.9627 61.2741 74.9314 61.3343 74.9001C61.4921 74.8182 61.6522 74.7315 61.8124 74.6424C61.8305 74.6327 61.8485 74.6231 61.8666 74.6135C61.8823 74.6051 61.8979 74.5966 61.9136 74.5882L61.9533 74.5641C62.1496 74.4521 62.3255 74.3461 62.4917 74.2425C62.6591 74.1378 62.8361 74.0221 63.0312 73.8885L63.0794 73.8571C63.1914 73.7801 63.3034 73.7006 63.4154 73.6199L63.4889 73.5657C63.643 73.4525 63.7828 73.3477 63.9152 73.2429L63.9477 73.2164C64.0224 73.1574 64.0995 73.0972 64.1766 73.0346C64.2537 72.9719 64.3319 72.9081 64.409 72.8431C64.5331 72.7383 64.6547 72.6323 64.7751 72.5251C64.8004 72.5034 64.8245 72.4806 64.8474 72.4589L64.9341 72.3794C64.9991 72.3192 65.0654 72.2602 65.1292 72.1987C65.1304 72.1975 65.1364 72.1915 65.1389 72.1903L65.1834 72.1469C65.3039 72.0325 65.4255 71.9121 65.5556 71.7796C65.5941 71.7399 65.6326 71.7001 65.6712 71.6604C65.7856 71.5412 65.8988 71.4207 66.0084 71.2991L66.0722 71.2292C66.1987 71.0871 66.3288 70.9378 66.4673 70.7704C66.495 70.7378 66.5215 70.7053 66.548 70.6716L66.5612 70.656C66.678 70.5126 66.79 70.3705 66.8924 70.2368L66.9418 70.173C67.0658 70.0092 67.1935 69.831 67.332 69.6298L67.4043 69.5239C67.5295 69.3396 67.6475 69.1553 67.7583 68.9771L67.78 68.9434C67.7933 68.9217 67.8065 68.8988 67.8198 68.8759L67.8535 68.8193C67.8968 68.747 67.9402 68.6748 67.9823 68.6025C68.01 68.5543 68.0377 68.5062 68.0642 68.4568L68.0823 68.4243C68.1221 68.352 68.163 68.2798 68.2015 68.2075C68.2341 68.1473 68.2654 68.0883 68.2967 68.028C68.334 67.9558 68.3714 67.8835 68.4075 67.8101C68.4376 67.7486 68.4677 67.6884 68.4978 67.627C68.5327 67.5547 68.5677 67.4813 68.6014 67.4078L68.6472 67.3126C68.6749 67.2512 68.7026 67.1898 68.7303 67.1272C68.935 66.6611 69.112 66.1926 69.2566 65.7325C69.8599 63.8393 70.0273 61.8714 69.7419 60.0395C69.7226 59.9167 69.6998 59.7854 69.6709 59.6361L69.648 59.5217C69.6251 59.4121 69.601 59.3037 69.5757 59.1953L69.5685 59.1652C69.5613 59.1351 69.554 59.1037 69.5468 59.0736C69.5059 58.9122 69.4697 58.7786 69.4336 58.6545C69.3842 58.4847 69.3252 58.3065 69.2493 58.0933C69.2445 58.0776 69.2397 58.0644 69.2349 58.0499C69.2325 58.0415 69.2289 58.0319 69.2265 58.0234C69.2228 58.0138 69.2192 58.0054 69.2156 57.9969C69.2096 57.9825 69.2036 57.9668 69.1975 57.9524C69.1301 57.7717 69.0651 57.6067 68.9976 57.4514L68.9796 57.4068C68.9097 57.2454 68.8278 57.0732 68.7303 56.8805C68.7242 56.8685 68.717 56.854 68.711 56.8408L68.7014 56.8191C68.6953 56.807 68.6881 56.7938 68.6809 56.7817C68.6724 56.7673 68.664 56.7516 68.6556 56.736C68.5954 56.6216 68.5339 56.5096 68.4701 56.3975L68.4436 56.3506C68.4268 56.3205 68.4087 56.2892 68.3906 56.259C68.2895 56.0892 68.1967 55.9399 68.1064 55.8062C68.1052 55.805 68.104 55.8026 68.1028 55.8002C68.0197 55.6761 67.933 55.5533 67.8463 55.4341L66.8093 54.0201C66.8502 54.1418 66.8852 54.2538 66.9165 54.361C66.955 54.4923 66.9936 54.632 67.0357 54.8006L67.067 54.9282C67.0935 55.0426 67.1188 55.1559 67.1429 55.2703L67.1682 55.3907C67.1983 55.5449 67.2224 55.6834 67.2429 55.8158C67.5403 57.7308 67.3657 59.7842 66.7382 61.7557C66.5877 62.2339 66.4034 62.7216 66.1915 63.2034C66.1529 63.2925 66.1108 63.3816 66.0698 63.4707L66.059 63.4948C66.0241 63.5707 65.9879 63.6466 65.9518 63.7225C65.9217 63.7851 65.8904 63.8477 65.8591 63.9115C65.8205 63.9874 65.782 64.0633 65.7434 64.138C65.7109 64.1994 65.6784 64.262 65.6459 64.3234C65.6049 64.3993 65.5628 64.474 65.5206 64.5498L65.5086 64.5715C65.4785 64.6257 65.4484 64.6787 65.4171 64.7329C65.3737 64.8088 65.3291 64.8835 65.2834 64.9581L65.2713 64.9786C65.2424 65.0268 65.2135 65.0749 65.1846 65.1219C65.0714 65.3062 64.9486 65.4965 64.8185 65.688L64.7426 65.7988C64.6005 66.0059 64.468 66.1902 64.338 66.3624L64.2874 66.4274C64.1802 66.5684 64.0682 66.7105 63.9453 66.861L63.8478 66.979C63.7057 67.1513 63.572 67.3054 63.4395 67.4524L63.3733 67.5234C63.2589 67.6487 63.1432 67.7727 63.024 67.8968C62.9843 67.9377 62.9445 67.9787 62.9048 68.0196C62.7723 68.1545 62.647 68.2785 62.5206 68.399L62.4652 68.4532C62.3977 68.517 62.3291 68.5796 62.2592 68.6435L62.181 68.7157C62.1533 68.741 62.1268 68.7663 62.0991 68.7904C61.975 68.9012 61.8485 69.0108 61.7197 69.1192C61.5667 69.2469 61.4114 69.3733 61.2428 69.5046L61.2102 69.5311C61.0741 69.6371 60.9296 69.7467 60.7694 69.8635L60.6948 69.9189C60.5623 70.0152 60.4298 70.1068 60.2985 70.1971C60.0974 70.3344 59.9143 70.4536 59.7409 70.5632C59.5699 70.6704 59.388 70.7788 59.1857 70.8956C59.1556 70.9125 59.1255 70.9293 59.0942 70.9462L59.0388 70.9775C58.875 71.0691 58.7088 71.1594 58.545 71.2437C58.4824 71.2762 58.4197 71.3087 58.3571 71.34C58.1728 71.4328 57.9898 71.5207 57.8103 71.6026L57.7682 71.6218C57.7501 71.6303 57.7308 71.6399 57.7128 71.6483C57.6863 71.6604 57.6598 71.6712 57.6333 71.6833L57.5815 71.705C57.4611 71.7579 57.3406 71.8097 57.2202 71.8591C57.1756 71.8772 57.1311 71.8952 57.0853 71.9133L57.0395 71.9314C56.9336 71.9735 56.8288 72.0145 56.7216 72.0542C56.6578 72.0783 56.5939 72.1012 56.5289 72.1253C56.4253 72.1626 56.3205 72.1987 56.217 72.2337C56.1531 72.2553 56.0893 72.277 56.0255 72.2975C55.9508 72.3216 55.8749 72.3445 55.8003 72.3673L55.7665 72.377C55.6606 72.4095 55.5546 72.4408 55.4486 72.4709C55.3667 72.4938 55.2836 72.5167 55.2017 72.5384C55.0969 72.5661 54.9921 72.5938 54.8861 72.6191C54.803 72.6395 54.7199 72.6588 54.6368 72.6781C54.5321 72.7022 54.4261 72.725 54.3213 72.7467C54.2394 72.7636 54.1563 72.7804 54.0732 72.7961C53.966 72.8166 53.86 72.8346 53.7528 72.8527L53.7288 72.8563C53.6553 72.8684 53.5818 72.8804 53.5084 72.8924C53.3988 72.9093 53.2904 72.9238 53.182 72.937L53.1242 72.9442C53.064 72.9527 53.0049 72.9599 52.9459 72.9671C52.8339 72.9804 52.7219 72.99 52.6099 73.0008L52.5352 73.0081C52.4847 73.0129 52.4341 73.0177 52.3847 73.0213C52.2606 73.0309 52.1366 73.037 52.0125 73.043L51.9415 73.0466C51.903 73.049 51.8644 73.0514 51.8259 73.0526C51.6332 73.0599 51.4465 73.0635 51.2695 73.0635C49.1353 73.0635 47.0783 72.5817 45.3175 71.67C45.1838 71.6014 45.0526 71.5291 44.9225 71.4556L47.0434 74.3437Z" fill="#F9FAFB"/>
<path d="M105.252 78.0754C106.242 78.0754 107.045 77.273 107.045 76.2833C107.045 75.2936 106.242 74.4912 105.252 74.4912C104.263 74.4912 103.46 75.2936 103.46 76.2833C103.46 77.273 104.263 78.0754 105.252 78.0754Z" fill="#F9FAFB"/>
<path d="M29.8908 71.4631C30.8806 71.4631 31.6829 70.6607 31.6829 69.671C31.6829 68.6813 30.8806 67.8789 29.8908 67.8789C28.9011 67.8789 28.0988 68.6813 28.0988 69.671C28.0988 70.6607 28.9011 71.4631 29.8908 71.4631Z" fill="#F9FAFB"/>
<path d="M30.7881 72.9116C31.1366 72.9116 31.4191 72.629 31.4191 72.2805C31.4191 71.932 31.1366 71.6494 30.7881 71.6494C30.4395 71.6494 30.157 71.932 30.157 72.2805C30.157 72.629 30.4395 72.9116 30.7881 72.9116Z" fill="#F9FAFB"/>
<path d="M39.6738 48.923C40.6635 48.923 41.4659 48.1207 41.4659 47.131C41.4659 46.1412 40.6635 45.3389 39.6738 45.3389C38.6841 45.3389 37.8817 46.1412 37.8817 47.131C37.8817 48.1207 38.6841 48.923 39.6738 48.923Z" fill="#F9FAFB"/>
<path d="M41.7682 45.9653C42.1167 45.9653 42.3993 45.6827 42.3993 45.3342C42.3993 44.9857 42.1167 44.7031 41.7682 44.7031C41.4196 44.7031 41.1371 44.9857 41.1371 45.3342C41.1371 45.6827 41.4196 45.9653 41.7682 45.9653Z" fill="#F9FAFB"/>
<path d="M109.854 39.4857C111.557 39.4857 112.937 38.1053 112.937 36.4025C112.937 34.6997 111.557 33.3193 109.854 33.3193C108.151 33.3193 106.771 34.6997 106.771 36.4025C106.771 38.1053 108.151 39.4857 109.854 39.4857Z" fill="#E4E7EC"/>
<path d="M106.771 34.8806C107.582 34.8806 108.239 34.2233 108.239 33.4124C108.239 32.6016 107.582 31.9443 106.771 31.9443C105.96 31.9443 105.303 32.6016 105.303 33.4124C105.303 34.2233 105.96 34.8806 106.771 34.8806Z" fill="#F9FAFB"/>
</svg>
