<svg width="158" height="158" viewBox="0 0 158 158" fill="none" xmlns="http://www.w3.org/2000/svg">
<circle cx="78.9998" cy="78.6052" r="78.6052" fill="#23A26D" fill-opacity="0.12"/>
<path d="M77.5971 41.1748C56.9726 41.1748 40.166 57.9813 40.166 78.6059C40.166 99.2304 56.9726 116.037 77.5971 116.037C98.2216 116.037 115.028 99.2304 115.028 78.6059C115.028 57.9813 98.2216 41.1748 77.5971 41.1748ZM95.4891 69.9967L74.2657 91.2201C73.7417 91.7442 73.0305 92.0436 72.2819 92.0436C71.5332 92.0436 70.8221 91.7442 70.298 91.2201L59.705 80.6271C58.6195 79.5416 58.6195 77.7449 59.705 76.6594C60.7905 75.5739 62.5872 75.5739 63.6727 76.6594L72.2819 85.2686L91.5214 66.029C92.6069 64.9435 94.4036 64.9435 95.4891 66.029C96.5746 67.1145 96.5746 68.8738 95.4891 69.9967Z" fill="#23A26D"/>
</svg>
