<svg width="99" height="100" viewBox="0 0 99 100" fill="none" xmlns="http://www.w3.org/2000/svg">
<rect x="0.753906" y="0.865723" width="97.5701" height="98.858" rx="11.3454" fill="#F8E9E3"/>
<path d="M57.5292 30.3188H41.5485C34.5569 30.3188 31.5605 34.314 31.5605 40.3068V60.2826C31.5605 66.2754 34.5569 70.2705 41.5485 70.2705H57.5292C64.5207 70.2705 67.5171 66.2754 67.5171 60.2826V40.3068C67.5171 34.314 64.5207 30.3188 57.5292 30.3188ZM41.5485 50.7941H49.5388C50.3578 50.7941 51.037 51.4733 51.037 52.2923C51.037 53.1113 50.3578 53.7905 49.5388 53.7905H41.5485C40.7295 53.7905 40.0503 53.1113 40.0503 52.2923C40.0503 51.4733 40.7295 50.7941 41.5485 50.7941ZM57.5292 61.7808H41.5485C40.7295 61.7808 40.0503 61.1016 40.0503 60.2826C40.0503 59.4636 40.7295 58.7844 41.5485 58.7844H57.5292C58.3482 58.7844 59.0273 59.4636 59.0273 60.2826C59.0273 61.1016 58.3482 61.7808 57.5292 61.7808ZM62.5231 44.8013H58.5279C55.4916 44.8013 53.0346 42.3443 53.0346 39.308V35.3128C53.0346 34.4938 53.7138 33.8146 54.5328 33.8146C55.3518 33.8146 56.031 34.4938 56.031 35.3128V39.308C56.031 40.6863 57.1496 41.805 58.5279 41.805H62.5231C63.3421 41.805 64.0213 42.4841 64.0213 43.3032C64.0213 44.1222 63.3421 44.8013 62.5231 44.8013Z" fill="#FF7134"/>
</svg>
