<svg width="99" height="100" viewBox="0 0 99 100" fill="none" xmlns="http://www.w3.org/2000/svg">
<rect x="0.787109" y="0.866211" width="97.5701" height="98.858" rx="11.3454" fill="#DFECFA"/>
<path d="M68.8926 36.481V59.4526C68.8926 61.3267 67.3663 63.0462 65.4922 63.278L64.8933 63.3553C61.7248 63.7803 57.2619 65.0941 53.6683 66.6011C52.4125 67.1227 51.0215 66.176 51.0215 64.8043V37.93C51.0215 37.2152 51.4272 36.5583 52.0648 36.2106C55.6003 34.2979 60.952 32.5977 64.5842 32.2886H64.7001C67.0185 32.2886 68.8926 34.1626 68.8926 36.481Z" fill="#007BFF"/>
<path d="M47.0815 36.2106C43.5459 34.2979 38.1943 32.5977 34.5621 32.2886H34.4268C32.1084 32.2886 30.2344 34.1626 30.2344 36.481V59.4526C30.2344 61.3267 31.7607 63.0462 33.6347 63.278L34.2336 63.3553C37.4021 63.7803 41.8651 65.0941 45.4586 66.6011C46.7144 67.1227 48.1055 66.176 48.1055 64.8043V37.93C48.1055 37.1959 47.7191 36.5583 47.0815 36.2106ZM36.0497 42.0645H40.3967C41.1889 42.0645 41.8457 42.7214 41.8457 43.5135C41.8457 44.325 41.1889 44.9626 40.3967 44.9626H36.0497C35.2576 44.9626 34.6007 44.325 34.6007 43.5135C34.6007 42.7214 35.2576 42.0645 36.0497 42.0645ZM41.8457 50.7586H36.0497C35.2576 50.7586 34.6007 50.121 34.6007 49.3096C34.6007 48.5175 35.2576 47.8606 36.0497 47.8606H41.8457C42.6379 47.8606 43.2948 48.5175 43.2948 49.3096C43.2948 50.121 42.6379 50.7586 41.8457 50.7586Z" fill="#007BFF"/>
</svg>
