<svg width="98" height="99" viewBox="0 0 98 99" fill="none" xmlns="http://www.w3.org/2000/svg">
<rect x="0.806641" y="0.154785" width="97" height="98.2803" rx="11.2791" fill="#E4F7EF"/>
<path d="M61.1875 58.2478C62.8355 57.1655 64.9999 58.3461 64.9999 60.3138V63.4867C64.9999 66.6105 62.5649 69.9555 59.638 70.9394L51.7918 73.5466C50.4144 74.0139 48.1762 74.0139 46.8234 73.5466L38.9772 70.9394C36.0257 69.9555 33.6152 66.6105 33.6152 63.4867V60.2892C33.6152 58.3461 35.7797 57.1655 37.403 58.2232L42.4699 61.519C44.413 62.8226 46.8726 63.4621 49.3322 63.4621C51.7918 63.4621 54.2514 62.8226 56.1945 61.519L61.1875 58.2478Z" fill="#01C070"/>
<path d="M68.9338 35.6689L54.2006 26.0026C51.5443 24.2563 47.1661 24.2563 44.5098 26.0026L29.7029 35.6689C24.9558 38.7434 24.9558 45.7041 29.7029 48.8033L33.6383 51.3613L44.5098 58.445C47.1661 60.1913 51.5443 60.1913 54.2006 58.445L64.9984 51.3613L68.368 49.1476V56.674C68.368 57.6825 69.2043 58.5187 70.2127 58.5187C71.2212 58.5187 72.0575 57.6825 72.0575 56.674V44.5727C73.0413 41.3998 72.0329 37.7104 68.9338 35.6689Z" fill="#01C070"/>
</svg>
